<svg width="401" height="321" viewBox="0 0 401 321" fill="none" xmlns="http://www.w3.org/2000/svg">
<g clip-path="url(#clip0)">
<ellipse rx="66.0876" ry="117.281" transform="matrix(-0.936218 0.351421 -0.478128 -0.87829 84.0258 206.507)" fill="#FDF7FF" fill-opacity="0.26"/>
<path d="M244.303 97.125C190.113 -59.9026 115.833 -28.3062 104.687 204.914C101.754 266.278 163.674 317.649 239.439 319.536C315.204 321.423 377.712 273.164 379.055 211.747C380.398 150.33 264.791 156.493 244.303 97.125Z" fill="#F2F2F2"/>
<path d="M325.127 110.157H127.636V196.663H325.127V110.157Z" fill="#444053"/>
<path opacity="0.4" d="M353.747 252.866C358.967 252.866 363.199 248.35 363.199 242.78C363.199 237.209 358.967 232.693 353.747 232.693C348.527 232.693 344.295 237.209 344.295 242.78C344.295 248.35 348.527 252.866 353.747 252.866Z" fill="#D75413"/>
<path d="M326.025 320.264L325.163 320.246C325.497 310.013 326.52 299.82 328.224 289.744C331.954 268.173 338.155 254.006 346.655 247.637L347.151 248.39C327.293 263.268 326.036 319.695 326.025 320.264Z" fill="#444053"/>
<path d="M336.806 320.043L335.943 320.025C335.962 319.006 336.501 294.987 345.362 288.349L345.857 289.102C337.354 295.473 336.81 319.798 336.806 320.043Z" fill="#444053"/>
<path d="M352.057 248.473C354.439 248.473 356.369 246.413 356.369 243.872C356.369 241.331 354.439 239.271 352.057 239.271C349.676 239.271 347.745 241.331 347.745 243.872C347.745 246.413 349.676 248.473 352.057 248.473Z" fill="#D75413"/>
<path d="M349.921 288.045C352.303 288.045 354.233 285.985 354.233 283.444C354.233 280.902 352.303 278.842 349.921 278.842C347.54 278.842 345.609 280.902 345.609 283.444C345.609 285.985 347.54 288.045 349.921 288.045Z" fill="#D75413"/>
<path d="M334.795 251.232C335.605 256.755 333.493 261.696 333.493 261.696C333.493 261.696 330.067 257.68 329.256 252.157C328.446 246.633 330.558 241.693 330.558 241.693C330.558 241.693 333.984 245.708 334.795 251.232Z" fill="#D75413"/>
<path d="M348.877 264.604C343.921 266.418 339.001 265.08 339.001 265.08C339.001 265.08 342.116 260.801 347.071 258.987C352.027 257.173 356.947 258.511 356.947 258.511C356.947 258.511 353.833 262.79 348.877 264.604Z" fill="#444053"/>
<path d="M349.05 299.691C346.807 300.443 344.418 300.553 342.123 300.01C343.58 298.03 345.543 296.542 347.775 295.725C350.007 294.908 352.413 294.797 354.702 295.406C353.202 297.338 351.253 298.815 349.05 299.691V299.691Z" fill="#444053"/>
<path d="M344.1 319.519H0V320.44H344.1V319.519Z" fill="#444053"/>
<path d="M379.028 197.123H127.205V92.2121H379.028V197.123ZM128.067 196.203H378.165V93.1324H128.067V196.203Z" fill="#444053"/>
<path d="M296.237 150.536C296.237 185.191 276.933 197.291 253.116 197.291C252.565 197.291 252.013 197.282 251.465 197.27C250.362 197.244 249.267 197.189 248.187 197.109C226.693 195.487 209.996 182.765 209.996 150.536C209.996 117.189 249.93 75.106 252.938 71.9848C252.938 71.9842 252.938 71.9837 252.938 71.9832C252.938 71.9827 252.939 71.9822 252.939 71.9818C252.939 71.9814 252.94 71.9811 252.94 71.9809C252.941 71.9806 252.941 71.9805 252.942 71.9806C253.057 71.8578 253.116 71.7985 253.116 71.7985C253.116 71.7985 296.237 115.885 296.237 150.536Z" fill="#D75413"/>
<path d="M251.544 191.989L267.316 168.476L251.505 194.572L251.465 197.27C250.362 197.244 249.266 197.189 248.187 197.109L249.885 162.441L249.874 162.17L249.901 162.123L250.064 158.845L234.213 132.685L250.112 156.389L250.151 157.084L251.433 130.89L237.864 103.858L251.6 126.295L252.937 71.9848L252.941 71.7985V71.9806L252.719 114.805L266.229 97.8269L252.663 118.494L252.306 141.947L264.923 119.438L252.255 145.399L252.056 158.439L270.364 127.108L251.985 162.987L251.544 191.989Z" fill="#444053"/>
<path d="M175.93 70.1256C174.821 70.1256 173.737 69.7748 172.816 69.1175C171.894 68.4602 171.175 67.526 170.751 66.4329C170.327 65.3399 170.216 64.1372 170.432 62.9768C170.648 61.8165 171.182 60.7506 171.966 59.9141C172.75 59.0775 173.749 58.5078 174.836 58.277C175.924 58.0462 177.051 58.1646 178.075 58.6174C179.099 59.0701 179.975 59.8368 180.591 60.8205C181.207 61.8042 181.536 62.9607 181.536 64.1438C181.534 65.7297 180.943 67.2502 179.892 68.3716C178.841 69.4931 177.416 70.1238 175.93 70.1256V70.1256ZM175.93 59.0823C174.992 59.0823 174.075 59.3792 173.295 59.9353C172.515 60.4915 171.907 61.282 171.548 62.2069C171.189 63.1317 171.095 64.1494 171.278 65.1313C171.461 66.1131 171.913 67.015 172.576 67.7228C173.239 68.4307 174.084 68.9128 175.005 69.1081C175.925 69.3034 176.878 69.2031 177.745 68.82C178.612 68.4369 179.353 67.7882 179.874 66.9558C180.395 66.1235 180.673 65.1449 180.673 64.1438C180.672 62.8019 180.172 61.5154 179.282 60.5665C178.393 59.6176 177.187 59.0838 175.93 59.0823V59.0823Z" fill="#444053"/>
<path d="M283.732 225.651C285.637 225.651 287.181 224.003 287.181 221.97C287.181 219.937 285.637 218.289 283.732 218.289C281.827 218.289 280.282 219.937 280.282 221.97C280.282 224.003 281.827 225.651 283.732 225.651Z" fill="#444053"/>
<path d="M41.8266 117.52C43.7317 117.52 45.2762 115.872 45.2762 113.839C45.2762 111.806 43.7317 110.157 41.8266 110.157C39.9214 110.157 38.377 111.806 38.377 113.839C38.377 115.872 39.9214 117.52 41.8266 117.52Z" fill="#444053"/>
<path d="M224.657 238.535H213.445V226.572H224.657V238.535ZM214.308 237.615H223.794V227.492H214.308V237.615Z" fill="#444053"/>
<path d="M378.595 115.679C390.503 115.679 400.156 105.379 400.156 92.6722C400.156 79.966 390.503 69.6655 378.595 69.6655C366.688 69.6655 357.035 79.966 357.035 92.6722C357.035 105.379 366.688 115.679 378.595 115.679Z" fill="#D75413"/>
<path d="M374.877 102.968L365.604 93.0716L368.205 90.2956L374.886 97.4254L388.989 82.3767L391.59 85.1527L374.877 102.968Z" fill="white"/>
<path d="M58.2122 244.517C51.2189 244.517 44.3827 246.73 38.568 250.876C32.7533 255.022 28.2213 260.915 25.545 267.809C22.8688 274.704 22.1686 282.29 23.5329 289.609C24.8973 296.928 28.2648 303.651 33.2098 308.928C38.1548 314.205 44.4551 317.798 51.314 319.254C58.1729 320.71 65.2824 319.963 71.7433 317.107C78.2043 314.251 83.7265 309.415 87.6118 303.21C91.497 297.006 93.5708 289.711 93.5708 282.248C93.5708 272.241 89.8455 262.644 83.2145 255.568C76.5835 248.492 67.5899 244.517 58.2122 244.517V244.517ZM60.3682 285.469C59.0036 285.469 57.6697 285.037 56.5352 284.228C55.4006 283.419 54.5163 282.27 53.9941 280.924C53.4719 279.579 53.3353 278.099 53.6015 276.671C53.8677 275.243 54.5248 273.931 55.4897 272.901C56.4545 271.872 57.6839 271.17 59.0222 270.886C60.3605 270.602 61.7477 270.748 63.0084 271.305C64.2691 271.862 65.3466 272.806 66.1047 274.017C66.8628 275.227 67.2674 276.651 67.2674 278.107C67.2674 280.06 66.5405 281.932 65.2467 283.313C63.9528 284.693 62.198 285.469 60.3682 285.469Z" fill="#F2F2F2"/>
<path d="M95.6975 217.734C94.9175 218.641 80.5684 233.209 80.5684 233.209C80.5684 233.209 81.9943 243.377 97.347 244.639L122.935 246.742C122.935 246.742 127.771 265.682 133.522 271.734C139.272 277.787 136.633 278.124 138.791 281.074C140.949 284.024 137.92 284.815 141.196 285.102C144.472 285.388 151.24 281.162 151.314 277.893C151.388 274.624 149.477 272.751 148.627 271.919C147.778 271.086 145.624 263.129 144.333 261.445C143.041 259.762 138.153 239.519 138.153 239.519C138.153 239.519 133.273 229.725 126.509 228.944C119.745 228.163 112.219 224.652 112.219 224.652" fill="#031F73"/>
<path opacity="0.1" d="M95.6975 217.734C94.9175 218.641 80.5684 233.209 80.5684 233.209C80.5684 233.209 81.9943 243.377 97.347 244.639L122.935 246.742C122.935 246.742 127.771 265.682 133.522 271.734C139.272 277.787 136.633 278.124 138.791 281.074C140.949 284.024 137.92 284.815 141.196 285.102C144.472 285.388 151.24 281.162 151.314 277.893C151.388 274.624 149.477 272.751 148.627 271.919C147.778 271.086 145.624 263.129 144.333 261.445C143.041 259.762 138.153 239.519 138.153 239.519C138.153 239.519 133.273 229.725 126.509 228.944C119.745 228.163 112.219 224.652 112.219 224.652" fill="black"/>
<path d="M120.518 158.989C120.518 158.989 125.902 143.376 129.588 148.35C133.274 153.325 123.658 161.495 123.658 161.495L120.518 158.989Z" fill="#A0616A"/>
<path d="M92.1514 167.14L95.2173 165.755C95.2173 165.755 100.783 171.988 102.994 173.147C105.205 174.307 111.243 177.113 112.046 177.574C112.849 178.035 121.938 160.876 119.764 158.412C119.764 158.412 123.832 159.977 125.685 159.384C125.685 159.384 121.061 183.305 120.357 186.547C119.654 189.789 118.011 190.171 114.949 190.29C111.887 190.409 93.289 184.586 93.289 184.586L92.1514 167.14Z" fill="#575A89"/>
<path d="M139.457 283.053C139.457 283.053 140.405 286.297 139.982 286.816C139.56 287.336 138.324 296.207 143.403 295.627C148.482 295.046 150.925 293.3 152.211 293.397C153.497 293.495 172.581 286.389 171.634 283.145C170.686 279.901 161.144 283.454 161.144 283.454C161.144 283.454 150.304 281.254 147.759 278.716C145.213 276.179 139.457 283.053 139.457 283.053Z" fill="#031F73"/>
<path opacity="0.1" d="M139.457 283.053C139.457 283.053 140.405 286.297 139.982 286.816C139.56 287.336 138.324 296.207 143.403 295.627C148.482 295.046 150.925 293.3 152.211 293.397C153.497 293.495 172.581 286.389 171.634 283.145C170.686 279.901 161.144 283.454 161.144 283.454C161.144 283.454 150.304 281.254 147.759 278.716C145.213 276.179 139.457 283.053 139.457 283.053Z" fill="black"/>
<path d="M129.727 287.826C129.727 287.826 132.79 302.07 135.038 301.925C137.285 301.78 153.151 293.541 155.103 291.909C157.61 289.813 157.511 286.11 154.634 286.888C151.757 287.666 143.619 286.968 142.236 285.4L138.679 281.369L129.727 287.826Z" fill="#031F73"/>
<path d="M98.318 208.687C97.4784 209.53 71.9434 232.646 71.9434 232.646C71.9434 232.646 74.0336 247.589 89.2597 250.039C104.486 252.488 113.276 249.429 113.276 249.429C113.276 249.429 116.809 268.694 122.132 275.177C127.455 281.66 124.8 281.792 126.751 284.901C128.703 288.011 125.628 288.565 128.876 289.105C132.123 289.645 139.162 285.954 139.458 282.699C139.754 279.445 137.976 277.429 137.185 276.533C136.395 275.637 134.789 267.533 133.615 265.754C132.442 263.975 128.946 243.406 128.946 243.406C128.946 243.406 124.746 233.26 118.053 231.956C111.36 230.652 104.093 226.567 104.093 226.567" fill="#031F73"/>
<path d="M74.812 158.609C81.4989 158.609 86.9198 152.825 86.9198 145.689C86.9198 138.553 81.4989 132.769 74.812 132.769C68.125 132.769 62.7041 138.553 62.7041 145.689C62.7041 152.825 68.125 158.609 74.812 158.609Z" fill="#A0616A"/>
<path d="M68.4665 153.754C68.4665 153.754 70.2825 161.647 67.5167 165.693C64.751 169.738 86.0152 167.812 86.0152 167.812C86.0152 167.812 80.2596 155.005 82.3833 152.027C84.507 149.048 68.4665 153.754 68.4665 153.754Z" fill="#A0616A"/>
<path d="M95.647 166.164C98.2158 169.076 97.3405 185.587 97.3405 185.587L95.6994 200.333C95.6994 200.333 97.6631 203.008 97.021 204.075C96.379 205.143 95.3295 206.197 97.3547 206.697C99.3799 207.198 104.048 208.001 102.554 210.347C102.066 211.011 101.543 211.646 100.989 212.248C100.513 212.786 99.9464 213.41 99.3047 214.105C97.8027 215.724 95.8926 217.714 93.7733 219.813C93.1731 220.412 92.5578 221.016 91.9274 221.625C83.8425 229.43 73.789 237.691 71.7089 233.726C68.226 227.085 65.8056 226.137 65.9656 220.484C66.1256 214.831 61.6418 200.323 61.6418 200.323C61.6418 200.323 56.4285 175.564 63.7753 168.184L64.9239 166.223C65.4572 165.311 66.2456 164.602 67.1776 164.195C68.1097 163.788 69.1381 163.704 70.1172 163.955C73.7031 164.869 79.2002 166.133 81.5819 165.929C85.2618 165.612 84.455 163.997 84.455 163.997C84.455 163.997 93.0782 163.252 95.647 166.164Z" fill="#575A89"/>
<path d="M106.999 218.978C106.999 218.978 121.978 222.942 119.781 228.53C117.583 234.117 104.616 223.906 104.616 223.906L106.999 218.978Z" fill="#A0616A"/>
<path d="M68.1118 150.416C68.41 150.03 68.1151 149.467 67.8555 149.051C66.4655 146.824 66.2 143.653 67.7294 141.532C68.3322 140.742 69.0862 140.098 69.9408 139.644C71.1406 138.966 72.4503 138.537 73.8003 138.38C74.5184 138.369 75.2288 138.219 75.8973 137.939C76.3196 137.711 78.3121 136.966 78.7397 136.749C79.68 136.272 80.9881 136.478 81.5905 135.572C82.1668 134.705 81.6286 133.518 81.0687 132.639C79.7931 130.636 76.5676 128.977 74.3526 128.451C72.6717 128.052 70.9175 128.613 69.3598 129.396C67.564 130.347 65.8606 131.484 64.2741 132.791C62.0951 134.514 59.9484 136.423 58.6397 138.958C57.331 141.492 57.0157 144.794 58.4941 147.22C58.802 147.725 59.1786 148.181 59.467 148.699C60.1704 149.964 60.2974 151.493 60.7944 152.865C61.1643 153.867 61.727 154.776 62.4461 155.532C63.1653 156.288 64.0249 156.875 64.9697 157.255C66.484 157.852 68.3464 158.017 69.241 159.451L69.6585 156.461C69.7674 156.084 69.7517 155.679 69.6142 155.312C69.4767 154.946 69.2257 154.641 68.903 154.449L66.7582 152.521C66.3308 152.211 66.0062 151.764 65.8309 151.245C65.367 149.18 67.6147 151.059 68.1118 150.416Z" fill="#031F73"/>
<path opacity="0.1" d="M89.5865 207.317L99.3037 214.105C97.3768 216.184 94.7739 218.875 91.9265 221.625C89.2294 220.076 86.4788 218.399 84.0181 216.713C75.0154 210.547 67.2961 195.065 63.8378 187.554C60.3795 180.043 63.1945 174.258 63.1945 174.258C65.4854 173.175 67.9096 172.447 70.3936 172.097C74.9008 171.371 89.5865 207.317 89.5865 207.317Z" fill="black"/>
<path opacity="0.1" d="M90.8717 205.183L100.989 212.248C100.513 212.786 99.9466 213.41 99.3048 214.105C97.8029 215.723 95.8927 217.714 93.7735 219.813C90.8995 218.176 87.934 216.38 85.3033 214.578C76.3005 208.412 68.5813 192.93 65.123 185.419C61.6647 177.909 70.9697 180.602 70.9697 180.602C70.9697 180.602 66.1411 178.27 70.6483 177.545C75.1555 176.82 90.8717 205.183 90.8717 205.183Z" fill="black"/>
<path d="M63.6389 172.967C63.6389 172.967 60.8239 178.752 64.2821 186.263C67.7404 193.773 75.4597 209.256 84.4624 215.422C93.4651 221.588 106.345 227.661 106.345 227.661C106.345 227.661 107.567 220.519 109.629 219.715L90.0308 206.026C90.0308 206.026 75.3451 170.08 70.8379 170.805C68.354 171.156 65.9298 171.884 63.6389 172.967V172.967Z" fill="#575A89"/>
<path d="M60.3679 320.439C52.5218 320.439 44.8519 317.957 38.3281 313.305C31.8043 308.654 26.7196 302.042 23.717 294.307C20.7145 286.572 19.9288 278.06 21.4595 269.848C22.9902 261.637 26.7685 254.094 32.3166 248.173C37.8646 242.253 44.9332 238.221 52.6286 236.588C60.3239 234.955 68.3004 235.793 75.5493 238.997C82.7981 242.201 88.9938 247.627 93.3529 254.588C97.712 261.55 100.039 269.734 100.039 278.107C100.027 289.33 95.8433 300.09 88.4062 308.027C80.9691 315.963 70.8856 320.427 60.3679 320.439V320.439ZM60.3679 236.695C52.6924 236.695 45.1892 239.124 38.8072 243.674C32.4252 248.224 27.4511 254.692 24.5138 262.259C21.5765 269.826 20.808 278.153 22.3054 286.186C23.8028 294.219 27.4989 301.598 32.9264 307.39C38.3538 313.181 45.2688 317.126 52.7968 318.724C60.3249 320.321 68.1279 319.501 75.2192 316.367C82.3105 313.233 88.3715 307.925 92.6358 301.114C96.9001 294.304 99.1762 286.298 99.1762 278.107C99.1645 267.128 95.0721 256.602 87.7966 248.838C80.5212 241.074 70.657 236.707 60.3679 236.695V236.695Z" fill="#444053"/>
<path d="M60.3685 285.929C58.9187 285.929 57.5014 285.47 56.296 284.611C55.0905 283.751 54.1509 282.53 53.5961 281.1C53.0413 279.671 52.8961 278.098 53.1789 276.581C53.4618 275.064 54.1599 273.67 55.1851 272.576C56.2103 271.482 57.5165 270.737 58.9384 270.435C60.3604 270.133 61.8343 270.288 63.1738 270.88C64.5133 271.472 65.6581 272.475 66.4636 273.761C67.2691 275.047 67.699 276.56 67.699 278.107C67.6968 280.181 66.9238 282.169 65.5496 283.636C64.1753 285.102 62.312 285.927 60.3685 285.929V285.929ZM60.3685 271.205C59.0893 271.205 57.8388 271.61 56.7751 272.368C55.7114 273.127 54.8824 274.204 54.3928 275.466C53.9033 276.727 53.7752 278.115 54.0248 279.453C54.2743 280.792 54.8904 282.022 55.7949 282.987C56.6995 283.953 57.852 284.61 59.1067 284.876C60.3614 285.143 61.6619 285.006 62.8438 284.484C64.0256 283.961 65.0358 283.077 65.7465 281.942C66.4573 280.806 66.8366 279.472 66.8366 278.107C66.8347 276.277 66.1526 274.523 64.94 273.229C63.7275 271.935 62.0834 271.207 60.3685 271.205Z" fill="#444053"/>
<path d="M59.5057 236.235H58.6433V188.841H36.2207V187.92H59.5057V236.235Z" fill="#444053"/>
<path d="M110.819 251.419H91.6152V252.339H110.819V251.419Z" fill="#444053"/>
<path d="M102.195 219.67H58.2119V220.59H102.195V219.67Z" fill="#444053"/>
<path d="M133.459 305.862L110.427 252.071L111.212 251.688L133.887 304.648L154.625 294.712L154.979 295.552L133.459 305.862Z" fill="#444053"/>
<path d="M38.3774 190.221C45.0455 190.221 50.4511 189.397 50.4511 188.38C50.4511 187.364 45.0455 186.54 38.3774 186.54C31.7093 186.54 26.3037 187.364 26.3037 188.38C26.3037 189.397 31.7093 190.221 38.3774 190.221Z" fill="#444053"/>
</g>
<defs>
<clipPath id="clip0">
<rect width="400.156" height="320.44" fill="white"/>
</clipPath>
</defs>
</svg>
