<svg width="393" height="324" viewBox="0 0 393 324" fill="none" xmlns="http://www.w3.org/2000/svg">
<g clip-path="url(#clip0)">
<ellipse rx="65.1454" ry="117.816" transform="matrix(-0.932773 0.360464 -0.467447 -0.884021 82.5228 208.801)" fill="#FDF7FF" fill-opacity="0.26"/>
<path d="M239.934 98.2042C186.713 -60.5681 113.762 -28.6208 102.815 207.191C99.9349 269.237 160.748 321.178 235.157 323.086C309.567 324.994 370.957 276.199 372.276 214.099C373.595 152 260.056 158.232 239.934 98.2042Z" fill="#F2F2F2"/>
<path d="M319.313 111.381H125.354V198.848H319.313V111.381Z" fill="#444053"/>
<path opacity="0.4" d="M347.421 255.676C352.548 255.676 356.704 251.11 356.704 245.477C356.704 239.845 352.548 235.279 347.421 235.279C342.294 235.279 338.138 239.845 338.138 245.477C338.138 251.11 342.294 255.676 347.421 255.676Z" fill="#D75413"/>
<path d="M320.195 323.822L319.348 323.804C319.675 313.458 320.68 303.151 322.354 292.964C326.017 271.153 332.107 256.828 340.456 250.388L340.942 251.15C321.439 266.193 320.205 323.247 320.195 323.822Z" fill="#444053"/>
<path d="M330.783 323.599L329.936 323.581C329.954 322.551 330.483 298.265 339.186 291.553L339.672 292.314C331.321 298.756 330.787 323.352 330.783 323.599Z" fill="#444053"/>
<path d="M345.761 251.234C348.1 251.234 349.996 249.151 349.996 246.582C349.996 244.012 348.1 241.929 345.761 241.929C343.422 241.929 341.526 244.012 341.526 246.582C341.526 249.151 343.422 251.234 345.761 251.234Z" fill="#D75413"/>
<path d="M343.664 291.246C346.003 291.246 347.899 289.163 347.899 286.593C347.899 284.024 346.003 281.941 343.664 281.941C341.325 281.941 339.429 284.024 339.429 286.593C339.429 289.163 341.325 291.246 343.664 291.246Z" fill="#D75413"/>
<path d="M328.807 254.023C329.603 259.608 327.529 264.603 327.529 264.603C327.529 264.603 324.164 260.543 323.368 254.959C322.572 249.374 324.647 244.379 324.647 244.379C324.647 244.379 328.012 248.438 328.807 254.023Z" fill="#D75413"/>
<path d="M342.638 267.544C337.771 269.379 332.938 268.026 332.938 268.026C332.938 268.026 335.997 263.699 340.865 261.865C345.732 260.031 350.564 261.384 350.564 261.384C350.564 261.384 347.505 265.71 342.638 267.544Z" fill="#444053"/>
<path d="M342.807 303.021C340.604 303.781 338.258 303.892 336.004 303.343C337.435 301.341 339.363 299.837 341.555 299.011C343.747 298.185 346.109 298.073 348.358 298.688C346.885 300.641 344.971 302.135 342.807 303.021V303.021Z" fill="#444053"/>
<path d="M337.946 323.069H0V324H337.946V323.069Z" fill="#444053"/>
<path d="M372.25 199.313H124.931V93.2367H372.25V199.313ZM125.778 198.383H371.403V94.1672H125.778V198.383Z" fill="#444053"/>
<path d="M290.939 152.209C290.939 187.249 271.98 199.483 248.589 199.483C248.048 199.483 247.506 199.474 246.968 199.462C245.884 199.436 244.809 199.38 243.748 199.299C222.638 197.659 206.24 184.795 206.24 152.209C206.24 118.492 245.459 75.9406 248.414 72.7847C248.414 72.7841 248.414 72.7835 248.414 72.783C248.414 72.7825 248.415 72.782 248.415 72.7816C248.415 72.7812 248.416 72.7809 248.416 72.7807C248.417 72.7805 248.417 72.7804 248.418 72.7804C248.531 72.6562 248.589 72.5963 248.589 72.5963C248.589 72.5963 290.939 117.173 290.939 152.209Z" fill="#D75413"/>
<path d="M247.046 194.122L262.536 170.348L247.007 196.734L246.968 199.462C245.884 199.436 244.809 199.38 243.748 199.299L245.417 164.246L245.405 163.972L245.432 163.925L245.592 160.61L230.024 134.16L245.639 158.127L245.678 158.829L246.937 132.344L233.61 105.012L247.1 127.698L248.414 72.7847L248.418 72.5963V72.7804L248.2 116.081L261.468 98.9139L248.145 119.811L247.794 143.525L260.185 120.765L247.744 147.015L247.549 160.199L265.529 128.52L247.479 164.798L247.046 194.122Z" fill="#444053"/>
<path d="M172.784 70.9048C171.695 70.9048 170.63 70.5501 169.725 69.8855C168.82 69.2209 168.114 68.2763 167.697 67.1711C167.281 66.066 167.172 64.8499 167.384 63.6766C167.597 62.5034 168.121 61.4257 168.891 60.5798C169.661 59.734 170.642 59.1579 171.71 58.9246C172.778 58.6912 173.885 58.811 174.891 59.2687C175.897 59.7265 176.756 60.5017 177.361 61.4964C177.966 62.491 178.289 63.6604 178.289 64.8566C178.288 66.4601 177.707 67.9975 176.675 69.1314C175.643 70.2653 174.243 70.903 172.784 70.9048V70.9048ZM172.784 59.7389C171.862 59.7389 170.962 60.039 170.196 60.6013C169.43 61.1637 168.832 61.963 168.48 62.8981C168.127 63.8333 168.035 64.8623 168.215 65.855C168.395 66.8478 168.838 67.7596 169.49 68.4754C170.141 69.1911 170.971 69.6785 171.875 69.876C172.779 70.0735 173.715 69.9721 174.566 69.5848C175.418 69.1974 176.145 68.5415 176.657 67.6998C177.169 66.8582 177.442 65.8688 177.442 64.8566C177.441 63.4998 176.949 62.1989 176.076 61.2395C175.203 60.2801 174.019 59.7404 172.784 59.7389V59.7389Z" fill="#444053"/>
<path d="M278.657 228.159C280.529 228.159 282.045 226.492 282.045 224.437C282.045 222.381 280.529 220.715 278.657 220.715C276.786 220.715 275.27 222.381 275.27 224.437C275.27 226.492 276.786 228.159 278.657 228.159Z" fill="#444053"/>
<path d="M41.0793 118.825C42.9504 118.825 44.4673 117.159 44.4673 115.103C44.4673 113.048 42.9504 111.381 41.0793 111.381C39.2082 111.381 37.6914 113.048 37.6914 115.103C37.6914 117.159 39.2082 118.825 41.0793 118.825Z" fill="#444053"/>
<path d="M220.639 241.186H209.628V229.089H220.639V241.186ZM210.475 240.255H219.792V230.02H210.475V240.255Z" fill="#444053"/>
<path d="M371.825 116.964C383.519 116.964 393 106.549 393 93.7019C393 80.8545 383.519 70.4395 371.825 70.4395C360.131 70.4395 350.65 80.8545 350.65 93.7019C350.65 106.549 360.131 116.964 371.825 116.964Z" fill="#D75413"/>
<path d="M368.173 104.112L359.065 94.1058L361.62 91.2989L368.182 98.5079L382.032 83.292L384.587 86.0988L368.173 104.112Z" fill="white"/>
<path d="M57.1706 247.234C50.3024 247.234 43.5884 249.471 37.8777 253.664C32.167 257.856 27.7161 263.814 25.0877 270.785C22.4594 277.756 21.7717 285.427 23.1116 292.827C24.4515 300.228 27.7589 307.025 32.6154 312.361C37.472 317.696 43.6596 321.33 50.3959 322.802C57.1321 324.274 64.1144 323.518 70.4598 320.631C76.8052 317.743 82.2287 312.853 86.0445 306.58C89.8603 300.306 91.8969 292.93 91.8969 285.384C91.8969 275.266 88.2383 265.563 81.7258 258.408C75.2134 251.253 66.3806 247.234 57.1706 247.234V247.234ZM59.2881 288.641C57.948 288.641 56.6379 288.204 55.5236 287.387C54.4093 286.569 53.5409 285.406 53.028 284.046C52.5152 282.686 52.381 281.189 52.6424 279.745C52.9039 278.301 53.5492 276.974 54.4968 275.933C55.4444 274.892 56.6518 274.183 57.9662 273.896C59.2806 273.609 60.643 273.756 61.8811 274.32C63.1192 274.883 64.1775 275.837 64.922 277.061C65.6666 278.286 66.0639 279.725 66.0639 281.197C66.0639 283.171 65.3501 285.065 64.0794 286.461C62.8086 287.857 61.0852 288.641 59.2881 288.641Z" fill="#F2F2F2"/>
<path d="M93.9865 220.154C93.2205 221.07 79.1279 235.8 79.1279 235.8C79.1279 235.8 80.5284 246.081 95.6065 247.357L120.737 249.483C120.737 249.483 125.487 268.634 131.134 274.753C136.782 280.873 134.19 281.215 136.309 284.198C138.429 287.18 135.454 287.98 138.671 288.27C141.889 288.559 148.536 284.286 148.608 280.98C148.681 277.675 146.804 275.782 145.97 274.94C145.136 274.098 143.02 266.052 141.752 264.35C140.484 262.649 135.683 242.18 135.683 242.18C135.683 242.18 130.89 232.278 124.247 231.488C117.604 230.698 110.213 227.148 110.213 227.148" fill="#031F73"/>
<path opacity="0.1" d="M93.9865 220.154C93.2205 221.07 79.1279 235.8 79.1279 235.8C79.1279 235.8 80.5284 246.081 95.6065 247.357L120.737 249.483C120.737 249.483 125.487 268.634 131.134 274.753C136.782 280.873 134.19 281.215 136.309 284.198C138.429 287.18 135.454 287.98 138.671 288.27C141.889 288.559 148.536 284.286 148.608 280.98C148.681 277.675 146.804 275.782 145.97 274.94C145.136 274.098 143.02 266.052 141.752 264.35C140.484 262.649 135.683 242.18 135.683 242.18C135.683 242.18 130.89 232.278 124.247 231.488C117.604 230.698 110.213 227.148 110.213 227.148" fill="black"/>
<path d="M118.362 160.756C118.362 160.756 123.651 144.969 127.271 149.999C130.891 155.029 121.446 163.29 121.446 163.29L118.362 160.756Z" fill="#A0616A"/>
<path d="M90.5029 168.997L93.514 167.597C93.514 167.597 98.9807 173.899 101.152 175.071C103.323 176.244 109.253 179.081 110.042 179.547C110.83 180.014 119.757 162.663 117.622 160.172C117.622 160.172 121.617 161.755 123.437 161.155C123.437 161.155 118.896 185.342 118.205 188.62C117.513 191.898 115.901 192.284 112.893 192.404C109.885 192.525 91.6202 186.637 91.6202 186.637L90.5029 168.997Z" fill="#575A89"/>
<path d="M136.963 286.198C136.963 286.198 137.893 289.478 137.479 290.003C137.064 290.529 135.85 299.499 140.838 298.911C145.827 298.324 148.226 296.559 149.489 296.657C150.752 296.756 169.495 289.571 168.564 286.291C167.634 283.011 158.262 286.604 158.262 286.604C158.262 286.604 147.616 284.379 145.116 281.813C142.616 279.248 136.963 286.198 136.963 286.198Z" fill="#031F73"/>
<path opacity="0.1" d="M136.963 286.198C136.963 286.198 137.893 289.478 137.479 290.003C137.064 290.529 135.85 299.499 140.838 298.911C145.827 298.324 148.226 296.559 149.489 296.657C150.752 296.756 169.495 289.571 168.564 286.291C167.634 283.011 158.262 286.604 158.262 286.604C158.262 286.604 147.616 284.379 145.116 281.813C142.616 279.248 136.963 286.198 136.963 286.198Z" fill="black"/>
<path d="M127.406 291.024C127.406 291.024 130.415 305.427 132.622 305.28C134.83 305.133 150.412 296.802 152.329 295.152C154.791 293.033 154.694 289.289 151.868 290.076C149.042 290.862 141.05 290.157 139.692 288.572L136.198 284.495L127.406 291.024Z" fill="#031F73"/>
<path d="M96.5592 211.006C95.7346 211.859 70.6562 235.231 70.6562 235.231C70.6562 235.231 72.7091 250.34 87.6629 252.817C102.617 255.294 111.249 252.201 111.249 252.201C111.249 252.201 114.72 271.68 119.947 278.234C125.175 284.789 122.568 284.923 124.484 288.067C126.4 291.211 123.381 291.771 126.57 292.317C129.76 292.863 136.673 289.131 136.963 285.84C137.254 282.55 135.508 280.511 134.731 279.605C133.955 278.699 132.378 270.505 131.225 268.707C130.073 266.908 126.639 246.11 126.639 246.11C126.639 246.11 122.515 235.852 115.941 234.533C109.368 233.215 102.231 229.084 102.231 229.084" fill="#031F73"/>
<path d="M73.4743 160.372C80.0417 160.372 85.3657 154.523 85.3657 147.308C85.3657 140.093 80.0417 134.244 73.4743 134.244C66.9069 134.244 61.583 140.093 61.583 147.308C61.583 154.523 66.9069 160.372 73.4743 160.372Z" fill="#A0616A"/>
<path d="M67.242 155.462C67.242 155.462 69.0254 163.443 66.3092 167.534C63.5929 171.624 84.4768 169.677 84.4768 169.677C84.4768 169.677 78.8242 156.727 80.9099 153.716C82.9956 150.704 67.242 155.462 67.242 155.462Z" fill="#A0616A"/>
<path d="M93.9365 168.011C96.4593 170.955 95.5997 187.649 95.5997 187.649L93.9879 202.559C93.9879 202.559 95.9165 205.263 95.2859 206.343C94.6554 207.422 93.6246 208.488 95.6136 208.994C97.6026 209.5 102.187 210.312 100.72 212.684C100.24 213.356 99.7273 213.998 99.1827 214.607C98.7151 215.15 98.159 215.781 97.5287 216.484C96.0536 218.12 94.1776 220.133 92.0963 222.256C91.5068 222.861 90.9025 223.472 90.2834 224.088C82.3431 231.979 72.4693 240.332 70.4265 236.323C67.0058 229.608 64.6287 228.649 64.7859 222.934C64.943 217.218 60.5394 202.549 60.5394 202.549C60.5394 202.549 55.4193 177.514 62.6347 170.052L63.7628 168.07C64.2865 167.148 65.0609 166.431 65.9762 166.019C66.8916 165.608 67.9016 165.523 68.8632 165.777C72.385 166.701 77.7838 167.978 80.1229 167.772C83.7369 167.452 82.9446 165.819 82.9446 165.819C82.9446 165.819 91.4136 165.066 93.9365 168.011Z" fill="#575A89"/>
<path d="M105.086 221.411C105.086 221.411 119.798 225.42 117.639 231.069C115.481 236.718 102.746 226.394 102.746 226.394L105.086 221.411Z" fill="#A0616A"/>
<path d="M66.894 152.087C67.1868 151.697 66.8972 151.128 66.6423 150.707C65.2771 148.455 65.0164 145.25 66.5184 143.105C67.1105 142.306 67.8509 141.655 68.6903 141.196C69.8686 140.51 71.1549 140.076 72.4807 139.918C73.186 139.906 73.8837 139.755 74.5403 139.472C74.955 139.241 76.9118 138.488 77.3318 138.269C78.2553 137.786 79.54 137.995 80.1316 137.079C80.6976 136.202 80.169 135.001 79.6192 134.113C78.3664 132.088 75.1985 130.41 73.0231 129.878C71.3723 129.475 69.6495 130.042 68.1196 130.834C66.356 131.795 64.683 132.945 63.1249 134.267C60.9849 136.009 58.8765 137.939 57.5913 140.502C56.306 143.065 55.9963 146.402 57.4482 148.855C57.7507 149.366 58.1206 149.828 58.4038 150.352C59.0946 151.63 59.2193 153.177 59.7074 154.563C60.0707 155.577 60.6233 156.496 61.3296 157.26C62.0359 158.025 62.8802 158.618 63.808 159.002C65.2952 159.606 67.1244 159.773 68.003 161.223L68.413 158.2C68.5199 157.818 68.5046 157.408 68.3695 157.038C68.2345 156.668 67.9879 156.36 67.671 156.165L65.5646 154.216C65.1448 153.902 64.826 153.45 64.6539 152.926C64.1983 150.838 66.4058 152.737 66.894 152.087Z" fill="#031F73"/>
<path opacity="0.1" d="M87.9839 209.621L97.5273 216.484C95.6348 218.586 93.0784 221.307 90.282 224.088C87.6331 222.521 84.9317 220.825 82.515 219.121C73.6733 212.887 66.0921 197.232 62.6957 189.638C59.2992 182.044 62.0639 176.195 62.0639 176.195C64.3138 175.1 66.6947 174.363 69.1342 174.009C73.5608 173.275 87.9839 209.621 87.9839 209.621Z" fill="black"/>
<path opacity="0.1" d="M89.246 207.462L99.1824 214.607C98.7148 215.15 98.1586 215.781 97.5284 216.484C96.0533 218.12 94.1773 220.133 92.096 222.256C89.2734 220.6 86.3609 218.785 83.7772 216.963C74.9355 210.728 67.3543 195.074 63.9578 187.479C60.5614 179.885 69.7 182.609 69.7 182.609C69.7 182.609 64.9578 180.251 69.3844 179.518C73.811 178.785 89.246 207.462 89.246 207.462Z" fill="black"/>
<path d="M62.5014 174.889C62.5014 174.889 59.7367 180.738 63.1332 188.332C66.5296 195.926 74.1108 211.581 82.9525 217.815C91.7942 224.05 104.444 230.191 104.444 230.191C104.444 230.191 105.644 222.969 107.669 222.156L88.4213 208.315C88.4213 208.315 73.9983 171.97 69.5717 172.703C67.1322 173.058 64.7513 173.794 62.5014 174.889V174.889Z" fill="#575A89"/>
<path d="M59.2884 324C51.5826 324 44.0498 321.49 37.6427 316.786C31.2355 312.083 26.2418 305.398 23.2929 297.577C20.344 289.756 19.5725 281.15 21.0758 272.847C22.5791 264.544 26.2898 256.917 31.7386 250.931C37.1875 244.945 44.1297 240.868 51.6874 239.217C59.2451 237.565 67.0789 238.413 74.1982 241.652C81.3174 244.892 87.4023 250.378 91.6834 257.417C95.9645 264.456 98.2496 272.731 98.2496 281.197C98.2378 292.545 94.1293 303.425 86.8252 311.449C79.521 319.473 69.6179 323.987 59.2884 324V324ZM59.2884 239.325C51.7501 239.325 44.3811 241.78 38.1132 246.381C31.8454 250.982 26.9602 257.522 24.0754 265.173C21.1906 272.824 20.4359 281.243 21.9065 289.366C23.3771 297.488 27.0072 304.949 32.3375 310.805C37.6679 316.661 44.4592 320.649 51.8526 322.265C59.2461 323.88 66.9096 323.051 73.874 319.882C80.8385 316.713 86.7911 311.346 90.9792 304.46C95.1672 297.574 97.4026 289.479 97.4026 281.197C97.3911 270.096 93.3718 259.453 86.2265 251.603C79.0812 243.753 69.3934 239.337 59.2884 239.325V239.325Z" fill="#444053"/>
<path d="M59.2892 289.106C57.8653 289.106 56.4734 288.642 55.2895 287.773C54.1055 286.904 53.1828 285.669 52.6379 284.224C52.093 282.779 51.9504 281.188 52.2282 279.654C52.506 278.12 53.1916 276.711 54.1985 275.604C55.2053 274.498 56.4881 273.745 57.8847 273.44C59.2812 273.135 60.7288 273.291 62.0443 273.89C63.3598 274.489 64.4842 275.502 65.2753 276.803C66.0663 278.104 66.4886 279.633 66.4886 281.197C66.4864 283.294 65.7273 285.304 64.3776 286.787C63.0279 288.27 61.1979 289.104 59.2892 289.106V289.106ZM59.2892 274.218C58.0328 274.218 56.8047 274.628 55.76 275.394C54.7154 276.161 53.9012 277.251 53.4204 278.526C52.9396 279.802 52.8138 281.205 53.0589 282.559C53.304 283.912 53.909 285.156 54.7974 286.132C55.6858 287.108 56.8177 287.772 58.0499 288.042C59.2822 288.311 60.5594 288.173 61.7202 287.645C62.8809 287.116 63.873 286.222 64.571 285.074C65.269 283.927 65.6416 282.577 65.6416 281.197C65.6397 279.347 64.9698 277.573 63.7789 276.265C62.5881 274.956 60.9734 274.22 59.2892 274.218Z" fill="#444053"/>
<path d="M58.4418 238.859H57.5948V190.939H35.5732V190.008H58.4418V238.859Z" fill="#444053"/>
<path d="M108.838 254.213H89.9775V255.143H108.838V254.213Z" fill="#444053"/>
<path d="M100.367 222.11H57.1709V223.041H100.367V222.11Z" fill="#444053"/>
<path d="M131.071 309.26L108.451 254.871L109.222 254.484L131.492 308.033L151.859 297.987L152.206 298.836L131.071 309.26Z" fill="#444053"/>
<path d="M37.6908 192.335C44.2396 192.335 49.5485 191.501 49.5485 190.474C49.5485 189.446 44.2396 188.613 37.6908 188.613C31.1419 188.613 25.833 189.446 25.833 190.474C25.833 191.501 31.1419 192.335 37.6908 192.335Z" fill="#444053"/>
</g>
<defs>
<clipPath id="clip0">
<rect width="393" height="324" fill="white"/>
</clipPath>
</defs>
</svg>
