<svg width="400" height="320" viewBox="0 0 400 320" fill="none" xmlns="http://www.w3.org/2000/svg">
<ellipse rx="145.056" ry="97.4028" transform="matrix(0.75853 -0.651638 0.740689 0.671848 182.175 160.007)" fill="white"/>
<g clip-path="url(#clip0)">
<ellipse cx="301.704" cy="179.862" rx="98.2958" ry="85.7012" fill="white"/>
<path opacity="0.1" d="M205.375 273.531C219.573 273.531 231.083 271.556 231.083 269.119C231.083 266.682 219.573 264.706 205.375 264.706C191.176 264.706 179.666 266.682 179.666 269.119C179.666 271.556 191.176 273.531 205.375 273.531Z" fill="#031F73"/>
<path opacity="0.1" d="M345.123 273.655C362.841 273.655 377.204 271.68 377.204 269.243C377.204 266.806 362.841 264.83 345.123 264.83C327.406 264.83 313.043 266.806 313.043 269.243C313.043 271.68 327.406 273.655 345.123 273.655Z" fill="#031F73"/>
<path opacity="0.1" d="M112.096 148.319H138.873V187.321H114.056C113.99 187.721 113.927 188.124 113.858 188.528H138.873V219.981C138.828 219.967 138.788 219.95 138.746 219.933C138.039 219.634 137.337 219.319 136.636 218.98L136.187 218.763C135.483 218.408 134.78 218.032 134.076 217.635C133.831 217.497 133.586 217.354 133.343 217.207C129.437 214.869 125.889 211.906 122.821 208.422C122.731 208.328 122.647 208.23 122.557 208.14C122.13 207.643 121.71 207.142 121.304 206.628L120.855 206.064C120.375 205.436 119.911 204.79 119.459 204.136C119.394 204.04 119.33 203.944 119.262 203.854C117.427 201.135 115.903 198.192 114.724 195.086C114.687 194.993 114.655 194.891 114.621 194.804C114.258 193.807 113.937 192.802 113.658 191.787C113.536 191.361 113.42 190.941 113.32 190.498C113.283 190.369 113.251 190.242 113.222 190.115C111.724 183.864 111.547 177.371 111.547 170.923C111.547 170.17 111.547 169.414 111.547 168.667C111.547 166.059 111.576 163.434 111.618 160.812C111.618 160.133 111.644 159.456 111.658 158.774C111.695 157.043 111.747 155.312 111.816 153.58C111.832 153.098 111.853 152.619 111.877 152.14C111.877 151.863 111.89 151.587 111.916 151.311C111.98 150.307 112.032 149.312 112.096 148.319Z" fill="#031F73"/>
<path opacity="0.1" d="M138.873 104.894H124.185C126.572 100.901 129.181 97.0631 131.997 93.4021C134.179 90.5375 136.482 87.7463 138.873 85.0565V104.894Z" fill="#031F73"/>
<path opacity="0.1" d="M138.874 106.101V147.113H112.181C112.181 146.994 112.199 146.873 112.207 146.755C112.231 146.43 112.255 146.106 112.281 145.785C112.31 145.407 112.342 145.026 112.376 144.657C112.41 144.288 112.447 143.836 112.487 143.428C112.526 143.019 112.563 142.604 112.608 142.195C112.653 141.787 112.693 141.378 112.74 140.972C112.787 140.566 112.83 140.154 112.88 139.748C112.919 139.41 112.962 139.074 113.004 138.736C113.065 138.26 113.128 137.78 113.196 137.307C113.196 137.236 113.215 137.163 113.225 137.095C113.707 133.628 114.363 130.19 115.191 126.798C116.058 123.24 117.164 119.754 118.502 116.367C119.924 112.823 121.589 109.396 123.484 106.115L138.874 106.101Z" fill="#031F73"/>
<path opacity="0.1" d="M145.266 148.317V187.321H202.459V148.317H145.266ZM145.266 188.525V222.02C145.593 222.093 145.917 222.164 146.239 222.223C146.677 222.313 147.113 222.395 147.558 222.466C147.643 222.48 147.73 222.494 147.822 222.502C147.996 222.533 148.176 222.559 148.35 222.584C148.791 222.649 149.229 222.702 149.669 222.745C149.878 222.767 150.089 222.787 150.3 222.804L150.809 222.846C151.086 222.869 151.36 222.886 151.632 222.894C151.801 222.894 151.97 222.911 152.144 222.917C152.276 222.917 152.408 222.917 152.545 222.917C152.682 222.917 152.877 222.917 153.044 222.917C153.271 222.917 153.497 222.917 153.722 222.917H154.025C154.252 222.917 154.479 222.917 154.703 222.894H154.719C154.875 222.894 155.033 222.894 155.191 222.872C155.235 222.874 155.279 222.874 155.323 222.872C155.455 222.872 155.587 222.872 155.714 222.852H155.806L156.69 222.779C156.98 222.75 157.273 222.714 157.569 222.68L158.17 222.604C160.617 222.237 163.038 221.687 165.413 220.957C170.747 219.367 175.966 217.142 181.298 215.513C188.193 213.412 195.81 212.38 202.472 214.949V188.525H145.266ZM202.459 104.894V52.9687C196.197 52.8962 189.952 53.6788 183.876 55.2975C169.394 59.1856 156.4 67.6185 145.266 78.3888V104.892H148.136V106.096H145.266V147.113H202.459V106.098H159.922V104.894H202.459ZM275.92 87.3547C272.337 87.2194 268.775 86.007 265.554 84.1349C259.393 80.5542 254.472 75.0252 248.974 70.359C237.549 60.6404 223.381 54.7759 208.846 53.3211V104.894H290.492L290.695 104.666L275.92 87.3547ZM283.358 85.945L291.244 95.1928V83.5202C288.603 83.8698 286.289 84.7016 283.368 85.9337L283.358 85.945ZM291.244 230.337V188.525H274.44C274.395 188.347 274.35 188.167 274.297 187.987C274.347 188.167 274.39 188.347 274.437 188.525H208.857V218.764C209.479 219.257 210.094 219.776 210.704 220.303C211.361 220.867 212.01 221.462 212.661 222.046L213.318 222.626C213.632 222.908 213.949 223.19 214.268 223.455C214.901 224.004 215.541 224.545 216.186 225.079C216.505 225.361 216.833 225.615 217.157 225.88C222.309 230.089 227.744 233.888 233.418 237.245C234.689 237.997 235.973 238.731 237.267 239.447C238.13 239.918 238.998 240.386 239.869 240.84C241.177 241.522 242.496 242.18 243.826 242.814C256.086 248.694 269.05 252.73 282.347 254.805C285.3 255.271 288.265 255.637 291.241 255.904V230.335H291.505L291.244 230.337ZM208.857 106.098V147.113H291.254V106.098H208.857ZM208.857 148.317V187.321H291.254V148.317H208.857ZM297.65 83.4695V96.4897L307.715 84.6875C304.38 84.1123 301.025 83.7016 297.65 83.4554V83.4695ZM297.65 148.331V187.321H377.792V148.317L297.65 148.331ZM377.499 233.433L377.781 188.525H297.65V256.353C302.812 256.584 307.982 256.518 313.137 256.155H313.227C315.69 255.99 318.141 255.749 320.58 255.433H320.636C333.651 253.815 346.378 250.186 358.418 244.66L377.499 233.433ZM393.245 154.74C392.944 153.981 392.63 153.228 392.311 152.484C391.715 151.074 391.084 149.704 390.435 148.334H384.182V187.321H399.991C399.983 176.28 397.369 165.002 393.253 154.725L393.245 154.74ZM384.182 188.539V227.166C388.636 222.604 392.398 217.385 395.108 211.419C398.366 204.235 399.857 196.456 399.978 188.534L384.182 188.539ZM384.182 136.966V147.116H389.849C388.135 143.622 386.246 140.229 384.19 136.952L384.182 136.966ZM329.831 91.1215C329.414 90.9523 328.997 90.7803 328.577 90.614C324.153 88.868 319.632 87.416 315.04 86.2664L299.637 104.331L299.341 104.666L299.539 104.897H354.36C346.725 99.2811 338.494 94.6521 329.839 91.1074L329.831 91.1215ZM355.967 106.112H298.774L297.65 107.212V147.113H307.502H307.518H377.802V127.786C371.444 119.569 364.106 112.277 355.975 106.098L355.967 106.112Z" fill="#031F73"/>
<path opacity="0.1" d="M138.874 126.787V147.113H112.181C112.181 146.994 112.199 146.873 112.207 146.755C112.231 146.43 112.255 146.106 112.281 145.785C112.31 145.407 112.342 145.026 112.376 144.657C112.41 144.288 112.447 143.836 112.487 143.428C112.526 143.019 112.563 142.604 112.608 142.195C112.653 141.787 112.693 141.378 112.74 140.972C112.787 140.566 112.83 140.154 112.88 139.748C112.919 139.41 112.962 139.074 113.004 138.736C113.065 138.26 113.128 137.78 113.196 137.307C113.196 137.236 113.215 137.163 113.225 137.095C113.707 133.628 114.363 130.19 115.191 126.798L138.874 126.787Z" fill="#031F73"/>
<path opacity="0.1" d="M112.096 148.319H138.873V187.321H114.056C113.99 187.721 113.927 188.124 113.858 188.528H138.873V219.981C138.828 219.967 138.788 219.95 138.746 219.933C138.039 219.634 137.337 219.319 136.636 218.98L136.187 218.763C135.483 218.408 134.78 218.032 134.076 217.635C133.831 217.497 133.586 217.354 133.343 217.207C129.437 214.869 125.889 211.906 122.821 208.422C122.731 208.328 122.647 208.23 122.557 208.14C122.13 207.643 121.71 207.142 121.304 206.628L120.855 206.064C120.375 205.436 119.911 204.79 119.459 204.136C119.394 204.04 119.33 203.944 119.262 203.854C117.427 201.135 115.903 198.192 114.724 195.086C114.687 194.993 114.655 194.891 114.621 194.804C114.258 193.807 113.937 192.802 113.658 191.787C113.536 191.361 113.42 190.941 113.32 190.498C113.283 190.369 113.251 190.242 113.222 190.115C111.724 183.864 111.547 177.371 111.547 170.923C111.547 170.17 111.547 169.414 111.547 168.667C111.547 166.059 111.576 163.434 111.618 160.812C111.618 160.133 111.644 159.456 111.658 158.774C111.695 157.043 111.747 155.312 111.816 153.58C111.832 153.098 111.853 152.619 111.877 152.14C111.877 151.863 111.89 151.587 111.916 151.311C111.98 150.307 112.032 149.312 112.096 148.319Z" fill="#031F73"/>
<path opacity="0.1" d="M165.399 111.971V147.113H145.266V111.971H148.136V100.073H159.919V111.971H165.399Z" fill="#031F73"/>
<path opacity="0.1" d="M165.4 148.317H145.269V187.318H165.4V148.317Z" fill="#031F73"/>
<path opacity="0.1" d="M145.266 188.527H165.399V220.951C163.024 221.68 160.604 222.23 158.157 222.595L157.555 222.674C157.26 222.71 156.967 222.741 156.677 222.773C156.387 222.804 156.086 222.826 155.793 222.846H155.701C155.574 222.846 155.437 222.863 155.313 222.866H155.178C155.02 222.866 154.862 222.882 154.703 222.888C154.479 222.902 154.255 222.905 154.025 222.908C153.928 222.908 153.835 222.908 153.738 222.908C153.511 222.908 153.286 222.908 153.059 222.908H152.561C152.426 222.908 152.297 222.908 152.157 222.908L151.648 222.888C151.384 222.888 151.099 222.857 150.825 222.837L150.318 222.798L149.688 222.736C149.244 222.694 148.804 222.64 148.368 222.575L147.841 222.496L147.577 222.457C147.136 222.383 146.701 222.304 146.258 222.214C145.933 222.155 145.611 222.082 145.284 222.011L145.266 188.527Z" fill="#031F73"/>
<path opacity="0.1" d="M291.255 107.821H274.654V147.11H291.255V107.821Z" fill="#031F73"/>
<path opacity="0.1" d="M291.258 148.317V187.321H208.857V170.497H252.747V180.422H274.654V148.317H291.258Z" fill="#031F73"/>
<path opacity="0.1" d="M334.551 104.894H323.733V101.302H328.583V90.6024C329.003 90.7659 329.422 90.9341 329.839 91.107V101.302H334.551V104.894Z" fill="#031F73"/>
<path opacity="0.1" d="M360.614 147.113H307.508C307.508 147.113 307.508 147.113 307.526 147.127L307.502 147.113H297.65V107.824H300.442V136.864H313.199V119.665H323.736V106.101H334.554V119.677H345.092V136.875H360.614V147.113Z" fill="#031F73"/>
<path opacity="0.1" d="M297.65 148.317V187.321H360.614V148.317H297.65ZM377.705 233.233L377.792 202.36H360.614V188.544H297.65V256.352C302.812 256.584 307.982 256.518 313.138 256.155H313.228C315.69 255.989 318.141 255.749 320.581 255.433H320.636C333.652 253.814 346.378 250.186 358.418 244.66" fill="#031F73"/>
<path opacity="0.1" d="M385.301 188.527H399.99C399.86 196.447 398.372 204.226 395.116 211.41C392.407 217.379 388.642 222.598 384.193 227.157V202.346H385.301V188.527Z" fill="#031F73"/>
<path opacity="0.1" d="M399.997 187.321H385.301V154.725H393.253C397.369 165.002 399.984 176.28 399.997 187.321Z" fill="#031F73"/>
<path opacity="0.1" d="M291.257 118.743H282.363V131.061H291.257V118.743Z" fill="#031F73"/>
<path opacity="0.1" d="M291.257 144.276H282.363V147.113H291.257V144.276Z" fill="#031F73"/>
<path opacity="0.1" d="M291.257 148.317H282.363V156.592H291.257V148.317Z" fill="#031F73"/>
<path opacity="0.1" d="M291.257 169.809H282.363V182.127H291.257V169.809Z" fill="#031F73"/>
<path opacity="0.1" d="M291.257 195.342H282.363V207.66H291.257V195.342Z" fill="#031F73"/>
<path opacity="0.1" d="M291.255 230.329C291.344 230.329 291.431 230.329 291.519 230.346H291.255V233.207H282.363V220.875H291.255V230.329Z" fill="#031F73"/>
<path opacity="0.1" d="M291.255 246.402V255.918C288.282 255.649 285.318 255.284 282.363 254.821V246.402H291.255Z" fill="#031F73"/>
<path opacity="0.1" d="M246.975 186.416H208.857V187.321H246.975V186.416Z" fill="#031F73"/>
<path opacity="0.1" d="M246.975 188.525H208.857V191.993H246.975V188.525Z" fill="#031F73"/>
<path opacity="0.1" d="M246.975 203.361H208.857V208.938H246.975V203.361Z" fill="#031F73"/>
<path opacity="0.1" d="M246.971 220.306V225.882H217.157C215.863 224.826 214.584 223.742 213.321 222.629C212.448 221.859 211.582 221.07 210.701 220.306H246.971Z" fill="#031F73"/>
<path opacity="0.1" d="M246.972 237.248V242.819H243.824C240.287 241.114 236.819 239.254 233.421 237.239L246.972 237.248Z" fill="#031F73"/>
<path opacity="0.1" d="M320.644 152.097H313.141V160.116H320.644V152.097Z" fill="#031F73"/>
<path opacity="0.1" d="M158.176 114.737H150.672V122.755H158.176V114.737Z" fill="#031F73"/>
<path opacity="0.1" d="M158.176 133.362H150.672V141.381H158.176V133.362Z" fill="#031F73"/>
<path opacity="0.1" d="M158.176 151.987H150.672V160.006H158.176V151.987Z" fill="#031F73"/>
<path opacity="0.1" d="M158.176 170.61H150.672V178.628H158.176V170.61Z" fill="#031F73"/>
<path opacity="0.1" d="M158.176 189.235H150.672V197.254H158.176V189.235Z" fill="#031F73"/>
<path opacity="0.1" d="M158.176 207.86H150.672V215.879H158.176V207.86Z" fill="#031F73"/>
<path opacity="0.1" d="M349.29 152.097H341.786V160.116H349.29V152.097Z" fill="#031F73"/>
<path opacity="0.1" d="M320.644 171.876H313.141V179.894H320.644V171.876Z" fill="#031F73"/>
<path opacity="0.1" d="M349.29 171.876H341.786V179.894H349.29V171.876Z" fill="#031F73"/>
<path opacity="0.1" d="M320.644 191.651H313.141V199.67H320.644V191.651Z" fill="#031F73"/>
<path opacity="0.1" d="M349.29 191.651H341.786V199.67H349.29V191.651Z" fill="#031F73"/>
<path opacity="0.1" d="M320.644 211.43H313.141V219.448H320.644V211.43Z" fill="#031F73"/>
<path opacity="0.1" d="M349.29 211.43H341.786V219.448H349.29V211.43Z" fill="#031F73"/>
<path opacity="0.1" d="M320.644 231.208H313.141V239.227H320.644V231.208Z" fill="#031F73"/>
<path opacity="0.1" d="M349.29 231.208H341.786V239.227H349.29V231.208Z" fill="#031F73"/>
<path opacity="0.1" d="M313.141 256.155V250.984H320.642V255.419L313.141 256.155Z" fill="#031F73"/>
<path opacity="0.1" d="M113.193 137.089V141.677H138.873V137.089H113.193ZM115.753 141.389H113.658V137.371H115.768L115.753 141.389ZM118.309 141.389H116.199V137.371H118.309V141.389ZM120.861 141.389H118.75V137.371H120.861V141.389ZM123.417 141.389H121.309V137.371H123.42L123.417 141.389ZM125.971 141.389H123.86V137.371H125.971V141.389ZM128.528 141.389H126.417V137.371H128.528V141.389ZM131.084 141.389H128.974V137.371H131.084V141.389ZM133.638 141.389H131.528V137.371H133.638V141.389ZM136.192 141.389H134.082V137.371H136.192V141.389ZM138.746 141.389H136.636V137.371H138.746V141.389Z" fill="#031F73"/>
<path opacity="0.1" d="M113.193 150.437V155.024H138.873V150.437H113.193ZM115.753 154.734H113.658V150.727H115.768L115.753 154.734ZM118.309 154.734H116.199V150.727H118.309V154.734ZM120.861 154.734H118.75V150.727H120.861V154.734ZM123.417 154.734H121.309V150.727H123.42L123.417 154.734ZM125.971 154.734H123.86V150.727H125.971V154.734ZM128.528 154.734H126.417V150.727H128.528V154.734ZM131.084 154.734H128.974V150.727H131.084V154.734ZM133.638 154.734H131.528V150.727H133.638V154.734ZM136.192 154.734H134.082V150.727H136.192V154.734ZM138.746 154.734H136.636V150.727H138.746V154.734Z" fill="#031F73"/>
<path opacity="0.1" d="M113.193 163.79V168.385H138.873V163.79H113.193ZM115.753 168.086H113.658V164.077H115.768L115.753 168.086ZM118.309 168.086H116.199V164.077H118.309V168.086ZM120.861 168.086H118.75V164.077H120.861V168.086ZM123.417 168.086H121.309V164.077H123.42L123.417 168.086ZM125.971 168.086H123.86V164.077H125.971V168.086ZM128.528 168.086H126.417V164.077H128.528V168.086ZM131.084 168.086H128.974V164.077H131.084V168.086ZM133.638 168.086H131.528V164.077H133.638V168.086ZM136.192 168.086H134.082V164.077H136.192V168.086ZM138.746 168.086H136.636V164.077H138.746V168.086Z" fill="#031F73"/>
<path opacity="0.1" d="M113.193 177.143V181.724H138.873V177.143H113.193ZM115.753 181.439H113.658V177.427H115.768L115.753 181.439ZM118.309 181.439H116.199V177.427H118.309V181.439ZM120.861 181.439H118.75V177.427H120.861V181.439ZM123.417 181.439H121.309V177.427H123.42L123.417 181.439ZM125.971 181.439H123.86V177.427H125.971V181.439ZM128.528 181.439H126.417V177.427H128.528V181.439ZM131.084 181.439H128.974V177.427H131.084V181.439ZM133.638 181.439H131.528V177.427H133.638V181.439ZM136.192 181.439H134.082V177.427H136.192V181.439ZM138.746 181.439H136.636V177.427H138.746V181.439Z" fill="#031F73"/>
<path opacity="0.1" d="M113.305 190.493C113.408 190.924 113.524 191.355 113.645 191.781V190.78H115.756V194.789H114.627C114.661 194.883 114.695 194.984 114.729 195.071H138.874V190.493H113.305ZM118.318 194.789H116.207V190.78H118.318V194.789ZM120.869 194.789H118.758V190.78H120.869V194.789ZM123.426 194.789H121.31V190.78H123.42L123.426 194.789ZM125.98 194.789H123.869V190.78H125.98V194.789ZM128.536 194.789H126.426V190.78H128.536V194.789ZM131.093 194.789H128.982V190.78H131.093V194.789ZM133.647 194.789H131.536V190.78H133.647V194.789ZM136.201 194.789H134.09V190.78H136.201V194.789ZM138.755 194.789H136.644V190.78H138.755V194.789Z" fill="#031F73"/>
<path opacity="0.1" d="M119.267 203.846C119.333 203.936 119.396 204.037 119.464 204.128H120.86V206.053C121.011 206.245 121.158 206.437 121.311 206.617V204.116H123.422V208.14H122.567C122.652 208.233 122.733 208.331 122.831 208.422H138.881V203.846H119.267ZM125.971 208.14H123.86V204.133H125.971V208.14ZM128.527 208.14H126.417V204.133H128.527V208.14ZM131.084 208.14H128.973V204.133H131.084V208.14ZM133.638 208.14H131.527V204.133H133.638V208.14ZM136.192 208.14H134.081V204.133H136.192V208.14ZM138.746 208.14H136.635V204.133H138.746V208.14Z" fill="#031F73"/>
<path opacity="0.1" d="M133.354 217.196C133.594 217.342 133.839 217.478 134.087 217.624V217.483H136.198V218.752L136.646 218.975V217.483H138.757V219.922C138.797 219.944 138.84 219.961 138.884 219.973V217.196H133.354Z" fill="#031F73"/>
<path opacity="0.1" d="M307.508 147.113H307.524H307.508ZM291.255 230.326H291.519H291.255ZM274.298 187.986C274.348 188.167 274.39 188.347 274.438 188.525C274.396 188.347 274.351 188.167 274.298 187.986ZM307.508 147.104H307.524H307.508ZM148.147 104.886V106.09H159.933V104.886H148.147ZM291.255 230.326H291.519H291.255ZM274.298 187.986C274.348 188.167 274.39 188.347 274.438 188.525C274.396 188.347 274.351 188.167 274.298 187.986ZM307.508 147.104H307.524H307.508ZM291.255 230.317H291.519H291.255ZM274.298 187.986C274.348 188.167 274.39 188.347 274.438 188.525C274.396 188.347 274.351 188.167 274.298 187.986Z" fill="#031F73"/>
<path d="M230.234 160.012C230.234 160.012 229.194 159.856 229.194 158.238C229.194 156.62 228.45 153.597 228.45 153.597C228.45 153.583 227.806 148.333 226.917 147.499C226.028 146.664 224.886 141.764 224.886 141.764C224.886 141.764 224.69 139.105 224.292 138.533C223.894 137.961 223.355 136.559 222.561 134.56C221.767 132.561 218.456 131.177 218.456 131.177C218.456 131.177 212.469 127.467 210.773 126.257C210.619 126.158 210.475 126.041 210.343 125.91C210.047 125.496 208.76 125.487 208.76 125.487C208.625 124.58 208.496 123.536 208.454 122.592C208.454 122.49 208.454 122.389 208.44 122.287C210.332 121.092 211.757 119.208 212.454 116.981C212.485 116.874 212.512 116.761 212.541 116.654C212.654 116.614 212.758 116.549 212.847 116.464C212.935 116.378 213.006 116.274 213.055 116.158C213.208 115.794 213.211 115.368 213.401 115.03C213.622 114.63 214.044 114.415 214.377 114.114C215.216 113.352 215.432 112.07 215.393 110.902C215.366 109.958 215.224 109.005 215.279 108.066L215.295 107.829C215.311 107.688 215.329 107.547 215.353 107.412C215.482 106.713 215.765 106.053 215.923 105.359C216.081 104.666 216.097 103.885 215.728 103.287C215.187 102.41 214.06 102.235 213.071 102.145C211.95 102.044 210.947 102.176 210.229 101.181C209.893 100.661 209.516 100.173 209.1 99.7232C208.952 99.5766 207.517 98.6406 207.517 98.5785C206.116 97.8852 204.528 97.7551 203.045 98.212C202.301 98.4432 201.599 98.821 200.845 99.0099C199.217 99.4216 197.343 98.9761 195.961 99.9713C195.19 100.535 194.729 101.432 194.296 102.306C193.944 103.026 193.587 103.745 193.225 104.463C192.642 105.644 192.048 106.845 191.803 108.153C191.751 108.438 191.719 108.726 191.708 109.016V109.03C191.708 109.135 191.708 109.239 191.708 109.343V109.476C191.708 109.574 191.708 109.67 191.724 109.758C191.739 109.845 191.737 109.873 191.745 109.932C191.753 109.992 191.766 110.124 191.782 110.214C191.797 110.305 191.829 110.463 191.861 110.587C191.874 110.64 191.892 110.691 191.908 110.742C191.935 110.838 191.966 110.931 192.001 111.024C192.019 111.072 192.037 111.122 192.059 111.17C192.098 111.269 192.146 111.365 192.193 111.452C192.214 111.492 192.23 111.528 192.251 111.565C192.325 111.696 192.406 111.822 192.494 111.943C193.059 112.696 193.89 113.175 194.504 113.88C194.504 113.908 194.504 113.936 194.504 113.961C194.504 114.04 194.504 114.117 194.504 114.195C194.537 115.767 194.929 117.307 195.645 118.681C196.361 120.054 197.381 121.22 198.615 122.076C198.615 122.183 198.628 122.293 198.634 122.4C198.685 123.237 198.675 124.077 198.604 124.912C198.497 124.777 198.363 124.669 198.211 124.597C198.059 124.525 197.894 124.49 197.729 124.495C197.615 124.489 197.502 124.499 197.391 124.526L197.367 124.506V124.532C196.787 124.684 196.072 125.329 195.388 127.165C195.388 127.165 193.309 129.669 191.726 129.564C190.143 129.46 186.135 132.169 186.135 132.169C186.135 132.169 182.225 134.882 181.386 137.645C180.917 139.212 180.355 140.745 179.703 142.235L174.869 152.878L173.978 161.323C173.978 161.323 174.471 165.078 174.373 165.65C174.276 166.223 176.402 171.385 176.402 171.385C176.402 171.385 183.428 184.577 186.299 185.254L186.505 185.099C186.628 185.168 186.758 185.22 186.893 185.254L187.484 184.809C187.519 185.305 187.504 185.804 187.439 186.297C187.043 187.6 187.586 196.1 188.278 197.767C188.969 199.433 188.724 221.281 188.724 221.281L188.626 223.21C188.626 223.21 188.626 223.272 188.65 223.379L188.626 223.835L188.697 223.875C188.771 224.487 188.747 225.107 188.626 225.71C188.378 226.556 188.278 228.947 188.278 228.947C188.278 228.947 186.302 242.447 187.238 245.159C188.175 247.871 188.972 250.843 188.972 250.843C188.972 250.843 189.961 254.226 189.019 254.804C188.077 255.382 185.399 256.352 185.951 257.762C186.452 259.064 188.354 262.555 188.637 263.065L188.613 263.333L188.225 267.824C188.288 268.418 188.438 268.996 188.671 269.539C189.096 270.517 189.921 271.532 191.491 271.422C191.755 271.402 192.061 271.369 192.357 271.326C195.23 270.915 198.768 269.544 198.768 269.544C198.584 269.42 198.416 269.271 198.267 269.102C198.126 268.955 198.014 268.78 197.938 268.586C197.862 268.392 197.824 268.184 197.826 267.974C197.868 267.156 196.436 263.26 196.08 262.301C196.024 262.163 195.995 262.084 195.995 262.084C195.995 262.084 199.261 258.436 198.718 255.202C198.718 255.202 195.103 252.946 196.293 251.709C197.483 250.471 199.61 246.915 199.61 246.915C199.61 246.915 199.707 233.622 199.61 231.637C199.508 230.259 199.569 228.873 199.792 227.512C199.831 227.306 199.879 227.106 199.929 226.909C201.575 227.171 203.236 227.306 204.9 227.312C205.507 227.312 206.124 227.312 206.747 227.272C206.747 227.46 206.755 227.663 206.77 227.881C206.908 231.174 207.164 236.949 207.372 239.094C207.667 242.17 209.301 250.459 209.301 250.459C209.301 250.459 206.185 252.597 209.844 257.863C209.844 257.863 209.844 259.772 209.601 260.048C209.342 260.952 209.133 261.871 208.976 262.8C208.823 263.793 208.76 264.796 209.008 265.318C209.601 266.564 213.163 266.463 213.163 266.463L213.25 266.446C213.923 266.371 214.602 266.441 215.25 266.649C215.897 266.858 216.499 267.202 217.021 267.661C218.374 268.823 223.511 268.312 226.292 267.943C227.382 267.796 228.11 267.661 228.11 267.661C228.145 267.529 228.158 267.392 228.147 267.255C228.118 266.525 227.582 264.923 223.952 263.494C223.952 263.494 220.538 261.041 220.585 258.904H220.514H220.118C220.406 258.887 220.59 258.904 220.59 258.904C220.59 258.904 219.253 253.688 219.799 253.265C220.345 252.842 218.709 247.062 218.709 247.062C218.709 247.062 217.773 237.363 217.722 236.684C217.725 236.101 217.807 235.521 217.968 234.964L217.722 229.646C217.722 229.646 217.675 227.878 217.722 227.303C217.714 226.804 217.677 226.306 217.609 225.812C217.585 225.614 217.561 225.409 217.535 225.206C218.815 224.859 219.646 224.537 219.646 224.537L219.498 206.028C220.585 203.772 220.786 198.824 220.78 195.314C220.78 193.058 220.685 191.389 220.685 191.389L222.171 188.798C222.171 188.798 222.514 185.697 221.97 185.017C221.73 184.71 221.838 184.391 222.036 184.129C222.139 184.042 222.247 183.963 222.361 183.892C222.361 183.892 222.345 183.867 222.326 183.83C222.43 183.738 222.54 183.654 222.656 183.579C222.656 183.579 222.129 182.705 222.601 182.336C223.044 182.657 223.44 182.9 223.741 183.097C223.72 183.303 223.698 183.421 223.698 183.421L223.825 183.139C224.115 183.314 224.292 183.421 224.292 183.421C224.292 183.421 226.619 178.468 226.569 177.737C226.519 177.007 228.152 173.931 228.152 173.931C228.152 173.931 228.35 172.316 229.242 171.639C230.134 170.962 229.933 166.059 229.933 166.059C229.933 166.059 230.181 163.505 230.775 162.462C231.368 161.418 230.234 160.012 230.234 160.012ZM185.708 157.838L185.753 159.019C185.489 158.565 185.299 158.238 185.299 158.238L185.708 157.838Z" fill="url(#paint0_linear)"/>
<path d="M224.418 181.282L223.848 183.875C223.848 183.875 219.284 181.386 218.461 178.222C217.638 175.059 219.838 173.858 219.838 173.858L224.091 175.784L224.418 181.282Z" fill="white"/>
<path opacity="0.1" d="M224.418 181.282L223.848 183.875C223.848 183.875 219.284 181.386 218.461 178.222C217.638 175.059 219.838 173.858 219.838 173.858L224.091 175.784L224.418 181.282Z" fill="#444053"/>
<path d="M198.802 269.561C198.802 269.561 194.581 271.219 191.679 271.428C190.138 271.538 189.328 270.528 188.911 269.556C188.683 269.015 188.536 268.439 188.476 267.85L188.853 263.381L189.053 261.001L195.219 259.29L196.093 262.143L196.174 262.36C196.525 263.313 197.932 267.19 197.889 267.999C197.888 268.206 197.925 268.412 198 268.603C198.074 268.795 198.184 268.968 198.322 269.113C198.464 269.284 198.625 269.434 198.802 269.561Z" fill="white"/>
<path d="M227.637 267.289C227.647 267.424 227.635 267.561 227.6 267.692C227.6 267.692 218.571 269.302 216.724 267.692C216.204 267.222 215.597 266.873 214.942 266.668C214.288 266.463 213.601 266.407 212.925 266.502C212.925 266.502 209.432 266.604 208.849 265.374C208.606 264.858 208.669 263.858 208.82 262.871C208.973 261.946 209.178 261.032 209.432 260.133L209.572 260.015L210.403 259.301L220.133 258.994H220.207C220.16 261.12 223.51 263.559 223.51 263.559C227.07 264.968 227.595 266.561 227.637 267.289Z" fill="white"/>
<path opacity="0.1" d="M227.637 267.289C227.647 267.425 227.633 267.561 227.598 267.692C227.598 267.692 218.572 269.302 216.725 267.692C216.205 267.222 215.598 266.873 214.944 266.669C214.29 266.464 213.604 266.407 212.928 266.502C212.928 266.502 209.432 266.604 208.852 265.374C208.609 264.856 208.67 263.858 208.82 262.871C210.166 263.015 212.29 263.373 213.124 264.227C214.385 265.527 216.522 266.824 217.833 266.925C218.859 266.996 224.999 267.204 227.637 267.289Z" fill="#444053"/>
<path opacity="0.1" d="M198.802 269.561C198.802 269.561 194.58 271.219 191.678 271.428C190.137 271.538 189.327 270.528 188.913 269.553C189.987 269.939 191.478 270.345 192.261 269.973C193.19 269.533 196.483 269.248 198.33 269.127C198.47 269.292 198.629 269.437 198.802 269.561Z" fill="#444053"/>
<path d="M205.066 135.962C201.583 134.515 197.103 129.736 198.222 127.503C198.47 126.94 198.618 126.332 198.657 125.71C198.729 124.866 198.74 124.018 198.689 123.173C198.61 121.788 198.454 120.41 198.222 119.045C198.222 119.045 209.095 119.307 208.461 121.019C208.277 121.52 208.248 122.392 208.298 123.367C208.348 124.343 208.48 125.445 208.617 126.378C208.807 127.658 208.997 128.634 208.997 128.634C208.997 128.634 208.332 129.629 207.942 129.683C207.551 129.736 210.063 138.023 205.066 135.962Z" fill="#CF6F80"/>
<path opacity="0.1" d="M196.166 262.36L196.085 262.456C192.834 258.255 188.903 263.491 188.903 263.491L188.845 263.381L189.045 261.001L195.211 259.29L196.085 262.143L196.166 262.36Z" fill="#444053"/>
<path opacity="0.1" d="M220.21 259.29C220.21 259.29 217.836 259.237 216.569 260.432C215.303 261.627 209.182 260.691 209.446 260.432C209.524 260.303 209.571 260.156 209.583 260.003L210.414 259.29L220.145 258.983C220.181 259.172 220.21 259.29 220.21 259.29Z" fill="#444053"/>
<path d="M200.211 226.3C200.034 226.767 199.9 227.251 199.81 227.746C199.59 229.101 199.529 230.48 199.628 231.851C199.725 233.825 199.628 247.051 199.628 247.051C199.628 247.051 197.541 250.578 196.377 251.821C195.214 253.065 198.752 255.298 198.752 255.298C199.28 258.512 196.082 262.143 196.082 262.143C192.831 257.942 188.9 263.181 188.9 263.181C188.9 263.181 186.763 259.234 186.23 257.824C185.697 256.414 188.317 255.439 189.238 254.866C190.159 254.294 189.193 250.919 189.193 250.919C189.193 250.919 188.415 247.962 187.491 245.263C186.568 242.565 188.51 229.133 188.51 229.133C188.51 229.133 188.61 226.748 188.85 225.916C188.971 225.316 188.995 224.698 188.921 224.089C188.905 223.883 188.887 223.711 188.874 223.596C188.861 223.48 188.85 223.427 188.85 223.427L188.887 223.359L190.206 220.731C190.206 220.731 200.844 224.645 200.211 226.3Z" fill="#031F73"/>
<path d="M220.21 258.98C220.21 258.98 217.835 258.926 216.569 260.108C215.302 261.289 209.181 260.367 209.445 260.108C209.709 259.848 209.688 257.928 209.688 257.928C206.097 252.69 209.16 250.564 209.16 250.564C209.16 250.564 207.556 242.317 207.266 239.258C207.063 237.121 206.812 231.378 206.677 228.099C206.619 226.689 206.585 225.719 206.585 225.719L209.519 225.087L209.896 225.006L216.972 223.489C216.972 223.489 217.168 224.899 217.3 226.052C217.365 226.544 217.402 227.04 217.41 227.537C217.363 228.101 217.41 229.866 217.41 229.866L217.65 235.158C217.494 235.714 217.413 236.29 217.41 236.87C217.458 237.544 218.379 247.192 218.379 247.192C218.379 247.192 219.98 252.949 219.434 253.364C218.888 253.778 220.21 258.98 220.21 258.98Z" fill="#031F73"/>
<path opacity="0.1" d="M208.461 121.019C208.277 121.52 208.248 122.392 208.298 123.367C206.841 124.304 205.167 124.784 203.467 124.75C201.768 124.716 200.111 124.17 198.689 123.175C198.61 121.79 198.454 120.411 198.222 119.045C198.222 119.045 209.095 119.302 208.461 121.019Z" fill="#444053"/>
<path d="M212.665 114.788C212.667 115.804 212.517 116.813 212.221 117.779C211.56 119.943 210.205 121.787 208.395 122.986C206.584 124.184 204.436 124.661 202.328 124.331C200.221 124 198.291 122.884 196.879 121.18C195.467 119.477 194.664 117.294 194.613 115.019C194.613 114.94 194.613 114.867 194.613 114.788C194.592 113.507 194.811 112.235 195.255 111.045C195.699 109.855 196.361 108.772 197.201 107.859C198.042 106.945 199.044 106.22 200.149 105.725C201.255 105.23 202.441 104.974 203.64 104.974C204.839 104.974 206.025 105.23 207.131 105.725C208.236 106.22 209.238 106.945 210.079 107.859C210.919 108.772 211.581 109.855 212.025 111.045C212.469 112.235 212.688 113.507 212.667 114.788H212.665Z" fill="#CF6F80"/>
<path opacity="0.1" d="M205.066 135.962C201.583 134.515 197.103 129.736 198.222 127.503C198.47 126.94 198.618 126.332 198.657 125.71L203.425 129.897L206.374 132.483L208.617 126.381C208.807 127.661 208.997 128.637 208.997 128.637C208.997 128.637 208.332 129.632 207.942 129.686C207.551 129.739 210.063 138.023 205.066 135.962Z" fill="#444053"/>
<path d="M217.395 154.466L213.413 225.939L208.221 226.303L194.775 184.859L196.981 135.657L197.445 125.262L203.424 130.509L206.376 133.094L208.685 126.815L212.978 130.813L217.395 154.466Z" fill="#031F73"/>
<path opacity="0.1" d="M200.211 226.3C200.034 226.767 199.9 227.251 199.81 227.746C196.032 227.123 192.362 225.898 188.924 224.112L188.853 224.072L188.876 223.618L188.889 223.382L190.209 220.754C190.209 220.754 200.844 224.645 200.211 226.3Z" fill="#444053"/>
<path opacity="0.1" d="M209.58 227.757C208.614 227.933 207.64 228.051 206.662 228.113C206.604 226.703 206.569 225.733 206.569 225.733L209.503 225.101L209.58 227.757Z" fill="#444053"/>
<path opacity="0.1" d="M217.284 226.066C215.408 226.587 212.511 227.174 209.918 226.807L209.881 225.02L216.957 223.503C216.957 223.503 217.152 224.898 217.284 226.066Z" fill="#444053"/>
<path opacity="0.1" d="M209.87 227.134C199.052 229.108 189.145 223.449 189.145 223.449L189.24 221.532C189.24 221.532 189.485 199.797 188.805 198.131C188.124 196.464 187.594 188.014 187.979 186.717C188.364 185.42 186.573 165.972 186.573 165.972L186.282 158.077L175.66 153.479L180.409 142.9C181.051 141.417 181.602 139.891 182.061 138.333C182.887 135.587 186.72 132.888 186.72 132.888C186.72 132.888 190.652 130.193 192.206 130.295C193.76 130.396 195.797 127.909 195.797 127.909C197.3 123.813 198.662 125.668 198.662 125.668C198.662 125.862 198.662 125.668 198.588 126.274C198.06 130.771 207.121 144.981 207.25 145.232L208.113 167.692L208.986 196.115L209.87 227.134Z" fill="#444053"/>
<path d="M209.58 227.134C198.762 229.108 188.853 223.449 188.853 223.449L188.95 221.532C188.95 221.532 189.196 199.797 188.512 198.131C187.829 196.464 187.301 188.014 187.689 186.717C188.077 185.421 186.283 165.972 186.283 165.972L185.99 158.077L175.362 153.462L180.111 142.883C180.752 141.4 181.303 139.874 181.763 138.316C182.586 135.57 186.423 132.872 186.423 132.872C186.423 132.872 190.354 130.176 191.905 130.278C193.457 130.379 195.496 127.892 195.496 127.892C197.003 123.796 198.662 125.651 198.662 125.651C198.662 125.846 198.504 125.933 198.588 126.257C199.749 130.619 206.831 144.964 206.96 145.215L207.833 167.675L208.707 196.098L209.58 227.134Z" fill="white"/>
<path opacity="0.1" d="M206.665 145.855C205.501 145.336 199.338 137.817 199.338 137.817V136.105C199.113 135.542 197.781 135.886 196.699 136.28L197.164 125.885L197.691 126.353C198.847 130.712 206.53 145.604 206.665 145.855Z" fill="#444053"/>
<path d="M206.957 145.232C205.791 144.713 199.628 137.194 199.628 137.194V135.482C199.403 134.919 198.071 135.262 196.989 135.657L197.456 125.262L197.984 125.73C199.142 130.089 206.828 144.984 206.957 145.232Z" fill="white"/>
<path opacity="0.1" d="M189.145 182.733C189.291 182.733 196.668 181.905 196.668 181.905C196.668 181.905 201.134 191.291 200.841 193.574C200.549 195.858 200.018 197.88 198.222 197.521C196.425 197.163 188.552 197.803 188.552 197.803L189.145 182.733Z" fill="#444053"/>
<path d="M188.852 182.11C188.998 182.11 196.375 181.281 196.375 181.281C196.375 181.281 200.839 190.67 200.549 192.951C200.258 195.232 199.723 197.257 197.929 196.898C196.134 196.54 188.259 197.18 188.259 197.18L188.852 182.11Z" fill="white"/>
<path d="M194.412 177.704C194.412 177.704 201.182 181.592 201.327 182.779C201.472 183.966 197.882 182.26 197.106 182.054C196.595 181.923 196.076 181.836 195.552 181.795L190.378 181.944L194.412 177.704Z" fill="#CF6F80"/>
<path opacity="0.1" d="M204.776 146.34C205.17 146.34 205.489 145.999 205.489 145.579C205.489 145.158 205.17 144.818 204.776 144.818C204.383 144.818 204.063 145.158 204.063 145.579C204.063 145.999 204.383 146.34 204.776 146.34Z" fill="#444053"/>
<path d="M204.776 146.03C205.17 146.03 205.489 145.689 205.489 145.269C205.489 144.848 205.17 144.507 204.776 144.507C204.383 144.507 204.063 144.848 204.063 145.269C204.063 145.689 204.383 146.03 204.776 146.03Z" fill="#3F3D56"/>
<path opacity="0.1" d="M206.087 179.294C206.48 179.294 206.799 178.953 206.799 178.533C206.799 178.112 206.48 177.771 206.087 177.771C205.693 177.771 205.374 178.112 205.374 178.533C205.374 178.953 205.693 179.294 206.087 179.294Z" fill="#444053"/>
<path d="M206.087 178.981C206.48 178.981 206.799 178.64 206.799 178.22C206.799 177.799 206.48 177.458 206.087 177.458C205.693 177.458 205.374 177.799 205.374 178.22C205.374 178.64 205.693 178.981 206.087 178.981Z" fill="#3F3D56"/>
<path opacity="0.1" d="M205.485 162.817C205.879 162.817 206.198 162.476 206.198 162.056C206.198 161.635 205.879 161.294 205.485 161.294C205.092 161.294 204.772 161.635 204.772 162.056C204.772 162.476 205.092 162.817 205.485 162.817Z" fill="#444053"/>
<path d="M205.485 162.507C205.879 162.507 206.198 162.166 206.198 161.746C206.198 161.325 205.879 160.984 205.485 160.984C205.092 160.984 204.772 161.325 204.772 161.746C204.772 162.166 205.092 162.507 205.485 162.507Z" fill="#3F3D56"/>
<path d="M221.907 181.637C221.907 181.637 222.392 182.415 221.907 182.779C221.421 183.142 221.954 184.022 221.954 184.022C221.954 184.022 220.743 184.78 221.276 185.463C221.809 186.145 221.471 189.227 221.471 189.227L220.015 191.804C220.015 191.804 220.102 193.464 220.107 195.709C220.107 199.21 219.915 204.133 218.849 206.377L218.996 224.791C218.996 224.791 213.896 226.782 209.627 226.176L208.994 196.628C208.994 196.628 209.918 179.872 210.258 176.658C210.457 174.989 210.538 173.307 210.501 171.625C210.501 171.625 210.356 166.595 209.868 164.26C209.868 164.26 209.34 154.147 209.287 151.347C209.263 150.008 209.329 146.1 209.403 142.384C209.485 138.322 209.577 134.49 209.577 134.49L208.614 126.347C208.614 126.347 209.577 126.243 209.868 126.657C209.998 126.787 210.139 126.903 210.29 127.004C211.952 128.205 217.825 131.899 217.825 131.899C217.825 131.899 221.075 133.28 221.854 135.26C222.632 137.239 223.173 138.643 223.55 139.207C223.928 139.771 224.133 142.421 224.133 142.421C224.133 142.421 225.252 147.299 226.125 148.125C226.999 148.951 227.637 154.206 227.637 154.206L219.92 160.691C219.92 160.691 219.242 171.478 219.097 171.896C218.952 172.313 221.907 181.637 221.907 181.637Z" fill="white"/>
<path d="M222.199 181.637C222.199 181.637 222.682 182.415 222.199 182.779C221.717 183.142 222.244 184.022 222.244 184.022C222.244 184.022 221.041 184.789 221.569 185.471C222.096 186.154 221.764 189.235 221.764 189.235L220.308 191.812C220.308 191.812 220.395 193.473 220.403 195.717C220.403 199.219 220.21 204.142 219.144 206.386L219.289 224.8C219.289 224.8 214.181 226.79 209.918 226.184L209.287 196.636C209.287 196.636 210.21 179.88 210.551 176.666C210.75 174.997 210.83 173.315 210.791 171.633C210.791 171.633 210.646 166.603 210.16 164.269C210.16 164.269 209.633 154.156 209.577 151.356C209.553 150.017 209.622 146.109 209.693 142.393C209.775 138.33 209.867 134.498 209.867 134.498L208.596 126.246C208.596 126.246 209.867 126.246 210.16 126.666C210.289 126.797 210.431 126.914 210.582 127.013C212.245 128.214 218.12 131.907 218.12 131.907C218.12 131.907 221.368 133.289 222.147 135.268C222.925 137.247 223.466 138.651 223.846 139.215C224.226 139.779 224.426 142.429 224.426 142.429C224.426 142.429 225.545 147.307 226.418 148.133C227.291 148.959 227.922 154.204 227.922 154.204L220.205 160.688C220.205 160.688 219.527 171.475 219.379 171.893C219.231 172.31 222.199 181.637 222.199 181.637Z" fill="white"/>
<path opacity="0.1" d="M212.957 136.892L213.654 139.063L209.986 143.01C210.068 138.95 210.16 135.116 210.16 135.116L208.889 126.863C208.889 126.863 210.16 126.863 210.453 127.283C210.582 127.414 210.723 127.53 210.875 127.627L213.994 137.242L212.957 136.892Z" fill="#444053"/>
<path d="M212.664 136.269L213.363 138.44L209.696 142.387C209.778 138.324 209.87 134.493 209.87 134.493L208.596 126.24C208.596 126.24 209.87 126.24 210.16 126.66C210.29 126.791 210.431 126.907 210.582 127.007L213.704 136.619L212.664 136.269Z" fill="white"/>
<path opacity="0.1" d="M212.665 114.788C212.667 115.804 212.517 116.813 212.221 117.779C212.172 117.787 212.121 117.785 212.072 117.772C212.023 117.759 211.977 117.735 211.936 117.703C211.868 115.165 210.699 112.783 209.261 110.756C208.857 110.144 208.368 109.602 207.81 109.149C207.246 108.696 206.544 108.484 205.842 108.554C205.05 108.669 204.351 109.245 203.552 109.318C202.496 109.411 201.552 108.63 200.504 108.59C200.078 108.595 199.658 108.696 199.272 108.888C198.886 109.079 198.542 109.357 198.264 109.701C197.714 110.397 197.305 111.207 197.064 112.081C196.649 113.406 196.423 114.789 196.394 116.186C196.38 116.975 196.309 117.965 195.623 118.253C195.675 117.672 195.613 117.086 195.442 116.533C195.271 115.979 194.994 115.469 194.628 115.036L194.613 115.019C194.613 114.94 194.613 114.867 194.613 114.788C194.592 113.507 194.811 112.235 195.255 111.045C195.699 109.855 196.361 108.772 197.201 107.859C198.042 106.945 199.044 106.22 200.149 105.725C201.255 105.23 202.441 104.974 203.64 104.974C204.839 104.974 206.025 105.23 207.131 105.725C208.236 106.22 209.238 106.945 210.079 107.859C210.919 108.772 211.581 109.855 212.025 111.045C212.469 112.235 212.688 113.507 212.667 114.788H212.665Z" fill="#444053"/>
<path d="M207.377 99.4695C206.006 98.7803 204.446 98.65 202.992 99.103C202.261 99.3342 201.572 99.7092 200.831 99.8981C199.248 100.307 197.401 99.8642 196.042 100.854C195.287 101.418 194.834 102.309 194.412 103.174L193.356 105.323C192.781 106.498 192.201 107.694 191.96 108.988C191.72 110.282 191.865 111.731 192.633 112.772C193.193 113.53 194.018 114.007 194.625 114.72C194.989 115.154 195.265 115.663 195.435 116.216C195.606 116.769 195.668 117.354 195.617 117.934C196.306 117.652 196.372 116.66 196.388 115.87C196.417 114.474 196.643 113.09 197.058 111.765C197.299 110.891 197.708 110.081 198.258 109.386C198.537 109.041 198.88 108.764 199.266 108.572C199.653 108.381 200.073 108.279 200.498 108.275C201.554 108.314 202.501 109.092 203.546 108.999C204.337 108.929 205.039 108.351 205.836 108.238C206.538 108.167 207.24 108.379 207.804 108.833C208.362 109.285 208.851 109.827 209.253 110.44C210.693 112.467 211.862 114.844 211.931 117.387C212.229 117.621 212.659 117.317 212.807 116.956C212.954 116.595 212.96 116.172 213.147 115.828C213.363 115.43 213.777 115.219 214.102 114.92C214.925 114.162 215.131 112.884 215.099 111.726C215.068 110.567 214.857 109.391 215.062 108.252C215.186 107.553 215.466 106.899 215.619 106.208C215.772 105.517 215.791 104.742 215.429 104.147C214.901 103.273 213.791 103.101 212.822 103.019C211.722 102.918 210.738 103.047 210.036 102.058C209.707 101.541 209.336 101.056 208.928 100.609C208.788 100.462 207.377 99.5315 207.377 99.4695Z" fill="#512E4E"/>
<path opacity="0.1" d="M178.7 158.926L175.943 153.479L175.069 161.884C175.069 161.884 175.555 165.617 175.457 166.189C175.36 166.761 177.447 171.893 177.447 171.893C177.447 171.893 184.341 185.015 187.156 185.691L196.667 178.428L194.145 175.005C194.145 175.005 193.272 174.642 193.053 175.005C193.053 175.005 188.37 166.395 187.884 165.772C187.399 165.149 187.494 163.905 187.494 163.905C187.494 163.905 186.765 163.076 187.008 162.298C187.251 161.52 185.602 158.822 185.602 158.822L187.106 157.319L178.7 158.926Z" fill="#444053"/>
<path d="M176.088 152.859L175.36 153.479L174.486 161.884C174.486 161.884 174.972 165.617 174.874 166.189C174.777 166.761 176.866 171.893 176.866 171.893C176.866 171.893 183.758 185.014 186.573 185.691L196.087 178.428L193.562 175.005C193.562 175.005 192.689 174.642 192.47 175.005C192.47 175.005 187.787 166.395 187.301 165.772C186.816 165.149 186.913 163.905 186.913 163.905C186.913 163.905 186.185 163.076 186.428 162.298C186.671 161.52 185.019 158.822 185.019 158.822L186.523 157.319L176.088 152.859Z" fill="white"/>
<path opacity="0.1" d="M221.276 185.784C221.804 186.469 221.471 189.545 221.471 189.545L220.015 192.122C220.015 192.122 220.102 193.786 220.107 196.027L217.659 196.845C217.437 196.919 217.203 196.935 216.974 196.892C216.746 196.849 216.531 196.749 216.346 196.599C216.161 196.449 216.013 196.254 215.913 196.031C215.813 195.807 215.765 195.561 215.772 195.314L216.194 180.763L221.906 183.097C221.421 183.458 221.954 184.343 221.954 184.343C221.954 184.343 220.743 185.099 221.276 185.784Z" fill="#444053"/>
<path d="M221.569 185.471C222.096 186.156 221.764 189.235 221.764 189.235L220.307 191.812C220.307 191.812 220.394 193.473 220.402 195.717L217.909 196.549C217.692 196.621 217.463 196.636 217.239 196.594C217.016 196.552 216.805 196.454 216.624 196.307C216.444 196.16 216.298 195.97 216.2 195.751C216.103 195.532 216.055 195.291 216.062 195.049L216.487 180.453L222.202 182.787C221.714 183.148 222.247 184.031 222.247 184.031C222.247 184.031 221.041 184.789 221.569 185.471Z" fill="white"/>
<path d="M223.46 178.535C223.46 178.535 223.073 181.183 222.102 181.338C221.131 181.493 220.695 185.621 219.727 185.474C218.759 185.327 219.4 181.637 219.434 180.921C219.468 180.205 218.379 177.238 219.194 176.565C220.009 175.891 222.59 176.565 222.59 176.565L223.46 178.535Z" fill="#CF6F80"/>
<path opacity="0.1" d="M225.526 158.148L227.357 154.201C227.357 154.201 228.086 157.209 228.086 158.816C228.086 160.423 229.104 160.581 229.104 160.581C229.104 160.581 230.22 161.991 229.632 163.017C229.043 164.043 228.806 166.598 228.806 166.598C228.806 166.598 228.998 171.473 228.125 172.146C227.252 172.82 227.07 174.43 227.07 174.43C227.07 174.43 225.466 177.489 225.516 178.217C225.566 178.944 223.284 183.87 223.284 183.87C223.284 183.87 224.4 177.749 217.896 175.104C217.896 175.104 217.846 173.026 218.331 172.457C218.817 171.887 219.574 171.628 219.099 168.749C218.624 165.87 218.962 162.431 218.962 161.74C218.962 161.049 220.418 156.741 220.418 156.741L225.526 158.148Z" fill="#444053"/>
<path d="M226.318 153.637L227.917 154.201C227.917 154.201 228.648 157.209 228.648 158.816C228.648 160.423 229.666 160.581 229.666 160.581C229.666 160.581 230.782 161.991 230.194 163.017C229.605 164.043 229.371 166.598 229.371 166.598C229.371 166.598 229.563 171.473 228.69 172.146C227.817 172.82 227.621 174.43 227.621 174.43C227.621 174.43 226.02 177.489 226.07 178.217C226.12 178.944 223.835 183.87 223.835 183.87C223.835 183.87 224.954 177.749 218.448 175.104C218.448 175.104 218.4 173.026 218.886 172.457C219.371 171.887 220.128 171.628 219.653 168.749C219.178 165.87 219.516 162.431 219.516 161.74C219.516 161.049 220.973 156.741 220.973 156.741L226.318 153.637Z" fill="white"/>
<path opacity="0.1" d="M191.003 255.946C191.003 255.946 193.552 254.235 195.224 255.478C196.897 256.722 191.003 255.946 191.003 255.946Z" fill="#444053"/>
<path opacity="0.1" d="M210.807 250.654C210.807 250.654 213.062 250.344 214.957 252.523C216.851 254.703 210.807 250.654 210.807 250.654Z" fill="#444053"/>
<g opacity="0.1">
<path opacity="0.1" d="M214.107 114.303C213.783 114.601 213.366 114.816 213.15 115.213C212.965 115.554 212.96 115.975 212.812 116.341C212.664 116.708 212.234 117.006 211.936 116.775C211.867 114.238 210.696 111.855 209.258 109.825C208.856 109.213 208.367 108.671 207.81 108.218C207.245 107.765 206.542 107.552 205.839 107.623C205.047 107.739 204.351 108.314 203.551 108.385C202.496 108.48 201.549 107.699 200.501 107.66C200.075 107.665 199.656 107.766 199.27 107.958C198.884 108.15 198.541 108.428 198.264 108.774C197.713 109.468 197.304 110.277 197.063 111.15C196.649 112.475 196.423 113.859 196.393 115.256C196.377 116.042 196.309 117.023 195.628 117.317C195.644 117.525 195.644 117.734 195.628 117.943C196.314 117.661 196.383 116.668 196.398 115.879C196.428 114.482 196.654 113.098 197.069 111.774C197.309 110.9 197.718 110.089 198.269 109.394C198.547 109.05 198.89 108.772 199.276 108.581C199.661 108.389 200.081 108.288 200.506 108.283C201.562 108.323 202.512 109.101 203.556 109.008C204.348 108.937 205.05 108.359 205.844 108.246C206.547 108.176 207.25 108.388 207.815 108.841C208.373 109.294 208.861 109.836 209.263 110.448C210.701 112.476 211.873 114.852 211.941 117.396C212.239 117.63 212.669 117.325 212.817 116.964C212.965 116.603 212.97 116.18 213.155 115.836C213.371 115.439 213.788 115.227 214.113 114.929C214.936 114.17 215.142 112.893 215.11 111.734C215.11 111.697 215.11 111.661 215.11 111.627C215.06 112.631 214.809 113.654 214.107 114.303Z" fill="#444053"/>
<path opacity="0.1" d="M194.631 114.103C194.024 113.389 193.196 112.913 192.639 112.157C192.17 111.488 191.902 110.683 191.871 109.848C191.788 110.891 192.061 111.932 192.639 112.777C193.196 113.536 194.024 114.012 194.631 114.726C195.213 115.423 195.563 116.308 195.626 117.241C195.666 116.673 195.599 116.102 195.428 115.563C195.257 115.024 194.986 114.527 194.631 114.103Z" fill="#444053"/>
<path opacity="0.1" d="M215.625 105.591C215.469 106.281 215.192 106.938 215.065 107.635C214.99 108.1 214.963 108.573 214.983 109.044C214.992 108.776 215.019 108.508 215.065 108.244C215.192 107.544 215.469 106.89 215.625 106.2C215.715 105.819 215.745 105.424 215.712 105.032C215.695 105.22 215.666 105.407 215.625 105.591Z" fill="#444053"/>
</g>
<path opacity="0.1" d="M143.464 267.41C157.662 267.41 169.172 265.435 169.172 262.998C169.172 260.561 157.662 258.585 143.464 258.585C129.265 258.585 117.755 260.561 117.755 262.998C117.755 265.435 129.265 267.41 143.464 267.41Z" fill="#031F73"/>
<path d="M144.294 178.471H142.639V218.273H144.294V178.471Z" fill="#535461"/>
<path d="M154.688 218.151L154.585 219.945L154.437 222.482L154.376 223.537L154.231 226.074L154.168 227.129L154.02 229.666L152.353 258.444C152.28 259.682 151.769 260.845 150.923 261.694C150.077 262.544 148.96 263.017 147.799 263.017H139.129C137.968 263.017 136.851 262.544 136.006 261.694C135.16 260.844 134.65 259.682 134.578 258.444L132.918 229.646L132.77 227.109L132.71 226.054L132.562 223.517L132.501 222.462L132.353 219.925L132.248 218.132C132.23 217.787 132.277 217.441 132.389 217.116C132.5 216.792 132.672 216.495 132.894 216.244C133.116 215.993 133.384 215.793 133.682 215.656C133.979 215.52 134.299 215.45 134.623 215.45H152.355C152.678 215.453 152.996 215.527 153.29 215.666C153.585 215.806 153.85 216.009 154.068 216.262C154.287 216.515 154.455 216.813 154.561 217.138C154.668 217.463 154.711 217.808 154.688 218.151Z" fill="#3F3D56"/>
<path d="M154.585 219.945L154.437 222.474H132.491L132.343 219.945H154.585Z" fill="#9D9CB5"/>
<path d="M154.377 223.528L154.232 226.06H132.7L132.552 223.528H154.377Z" fill="#9D9CB5"/>
<path d="M154.168 227.117L154.023 229.646H132.908L132.76 227.117H154.168Z" fill="#9D9CB5"/>
<path d="M129.817 193.388C139.45 200.837 143.471 212.487 143.471 212.487C143.471 212.487 131.862 212.061 122.227 204.612C112.591 197.163 108.578 185.516 108.578 185.516C108.578 185.516 120.182 185.939 129.817 193.388Z" fill="#031F73"/>
<path d="M108.57 185.516C108.57 185.516 120.623 192.664 124.488 198.582C128.353 204.5 143.471 212.487 143.471 212.487" stroke="#535461" stroke-width="2" stroke-miterlimit="10"/>
<path d="M136.037 178.383C141.28 182.435 143.472 188.776 143.472 188.776C143.472 188.776 137.153 188.544 131.908 184.493C126.663 180.441 124.476 174.098 124.476 174.098C124.476 174.098 130.792 174.329 136.037 178.383Z" fill="#031F73"/>
<path d="M124.476 174.098C124.476 174.098 131.035 177.988 133.138 181.208C135.24 184.428 143.472 188.776 143.472 188.776" stroke="#535461" stroke-width="2" stroke-miterlimit="10"/>
<path d="M151.084 188.454C145.06 195.528 143.786 204.773 143.786 204.773C143.786 204.773 152.279 202.546 158.297 195.469C164.316 188.392 165.595 179.15 165.595 179.15C165.595 179.15 157.107 181.38 151.084 188.454Z" fill="#031F73"/>
<path d="M165.601 179.153C165.601 179.153 157.754 186.404 155.759 191.401C153.765 196.397 143.786 204.773 143.786 204.773" stroke="#535461" stroke-width="2" stroke-miterlimit="10"/>
<path d="M372.199 185.965C372.199 185.965 367.843 162.806 369.51 159.924C369.51 159.924 369.571 157.246 369.471 153.831C369.471 153.702 369.471 153.572 369.471 153.44C369.764 153.649 370.07 153.837 370.386 154.003C371.923 154.847 373.687 155.09 375.373 154.691L374.054 153.121C373.737 152.746 373.407 152.34 373.339 151.844C373.27 151.347 373.46 150.905 373.624 150.462C374.877 147.079 374.943 142.824 372.529 140.242C370.489 138.071 369.993 135.268 367.78 133.286C366.162 131.834 365.273 129.705 364.434 127.647C363.724 125.908 363.009 124.154 362.603 122.31C362.286 120.869 362.16 119.378 361.725 117.971C361.289 116.564 360.474 115.196 359.2 114.568C358.746 114.345 358.242 114.218 357.828 113.922C357.284 113.53 356.957 112.893 356.564 112.335C354.566 109.515 347.878 111.176 344.712 112.321C343.851 112.609 343.054 113.081 342.369 113.708L342.398 113.657C342.422 113.615 342.451 113.572 342.477 113.53C342.131 113.83 341.831 114.187 341.591 114.587C341.129 115.368 340.936 116.279 340.551 117.125C340.087 118.126 337.504 120.92 338.615 122.045C338.692 122.12 338.782 122.181 338.878 122.225C339.295 122.411 339.755 122.46 340.198 122.366L340.15 122.488C339.771 123.48 339.576 124.542 339.578 125.614C339.578 130.247 343.153 134.002 347.567 134.002C348.397 134.003 349.222 133.867 350.013 133.599C350.031 133.706 350.047 133.813 350.065 133.92C350.065 133.963 350.079 134.005 350.084 134.047L349.944 134.256C349.937 134.243 349.929 134.231 349.92 134.219L345.778 140.405C345.145 140.882 341.498 143.701 341.293 145.816C341.076 148.13 340.86 150.84 340.86 150.84L340.831 151.421C340.65 151.582 340.438 151.7 340.21 151.766C339.983 151.832 339.744 151.844 339.512 151.801C338.219 151.576 338.219 156.876 338.219 156.876C338.219 156.876 337.359 157.722 336.768 156.989C336.177 156.256 334.615 158.74 334.615 158.74L324.826 159.191L324.602 159.205L324.074 157.46C324.018 157.276 323.895 157.123 323.734 157.035C323.572 156.947 323.384 156.93 323.212 156.989C323.171 157.004 323.131 157.021 323.093 157.043L323.056 157.065L322.987 157.116L322.953 157.15C322.934 157.168 322.916 157.188 322.9 157.209L322.869 157.249L322.853 157.265C322.792 157.356 322.751 157.46 322.735 157.569C322.718 157.679 322.726 157.791 322.758 157.897L323.212 159.394C321.322 159.8 319.391 160.945 320.966 164.097L312.982 162.521L315.565 164.839L328.9 167.779C328.723 168.118 328.839 168.608 329.391 169.299C331.765 172.279 336.092 173.088 337.834 173.297C338.294 174.396 338.868 175.437 339.546 176.398L339.396 179.367C339.396 179.367 334.987 201.996 334.179 203.144C334.587 202.65 334.96 202.125 335.295 201.573C334.016 206.222 332.227 212.586 331.757 213.539C331.003 215.061 330.304 221.222 331.164 221.617C331.428 221.738 332.182 221.679 333.259 221.591V222.102L333.211 241.44C333.211 241.44 333.428 253.302 332.834 254.432C332.24 255.563 332.082 257.934 332.082 257.934C332.082 257.934 329.707 262.611 327.826 264.492C327.813 264.507 327.799 264.52 327.784 264.531L327.726 264.092C327.726 264.092 325.465 267.142 320.462 266.97C320.462 266.97 317.452 269.062 321.916 269.175C326.38 269.288 332.082 269.006 332.082 269.006C332.082 269.006 336.063 262.521 339.398 263.367V268.281H340.419V263.288C340.893 262.955 341.298 262.523 341.611 262.017C341.923 261.512 342.136 260.944 342.237 260.347C342.325 259.733 342.261 259.105 342.051 258.525C341.842 257.945 341.495 257.433 341.045 257.04C340.842 256.845 340.68 256.606 340.568 256.34C340.455 256.075 340.396 255.787 340.393 255.495L340.356 255.529C340.356 255.43 340.332 255.329 340.322 255.224C340.029 252.687 339.662 247.451 340.958 243.577C342.733 238.265 343.271 230.867 341.979 226.463C341.561 225.056 341.219 223.624 340.952 222.175C340.921 221.992 340.892 221.817 340.865 221.653C341.749 221.781 342.624 221.969 343.485 222.217C346.48 223.1 353.031 223.263 358.624 223.215C358.638 223.379 358.653 223.551 358.672 223.723C358.772 224.918 358.98 226.1 359.295 227.253C359.996 229.508 360.318 239.452 360.318 239.452C360.318 239.452 361.223 247.629 360.73 250.956C360.466 252.805 360.202 254.663 360.052 256.53V256.567C360.052 256.567 358.569 261.078 357.485 263.528C357.458 263.59 357.429 263.652 357.403 263.711C357.114 263.739 356.829 263.806 356.556 263.911C356.556 263.911 355.102 267.013 353.654 267.526C352.205 268.039 352.685 269.728 355.965 269.107C359.244 268.487 364.197 267.98 364.197 267.98L364.41 264.816L365.418 263.469L365.154 266.624L366.228 266.398L366.086 262.561L367.735 260.356C367.735 260.356 369.727 258.461 366.766 254.734V254.816C366.735 254.762 366.706 254.706 366.672 254.652V254.635C366.181 253.823 365.79 252.309 366.505 249.622C367.798 244.767 368.55 240.36 368.55 240.36C368.55 240.36 371.437 228.555 367.967 222.97H368.12C367.764 222.184 367.513 221.349 367.373 220.489C367.356 220.387 367.34 220.283 367.326 220.176C369.893 220.018 372.413 219.522 374.468 218.45C374.46 218.439 373.223 190.425 372.199 185.965ZM339.607 166.426V166.482L339.079 166.51L339.607 166.426ZM337.797 166.694C337.71 166.714 337.629 166.756 337.559 166.815C337.332 167.158 337.19 167.556 337.145 167.974L336.322 167.776C336.322 167.776 335.744 167.644 334.913 167.494L334.52 167.072C335.602 166.976 336.726 166.835 337.797 166.694Z" fill="url(#paint1_linear)"/>
<path d="M365.033 262.6L364.719 266.595L365.772 266.37L365.614 262.036L365.033 262.6Z" fill="#1D2366"/>
<path d="M341.015 243.631C339.746 247.494 340.105 252.707 340.39 255.239C340.495 256.175 340.593 256.744 340.593 256.744C340.593 256.744 338.696 261.362 338.537 261.537C338.379 261.712 332.955 265.25 332.955 265.25L329.163 267.616C329.163 267.616 325.316 265.814 327.161 265.194C327.537 265.032 327.877 264.785 328.155 264.469C330.002 262.594 332.321 257.934 332.321 257.934C332.321 257.934 332.48 255.568 333.06 254.443C333.641 253.319 333.429 241.497 333.429 241.497L333.474 222.226V219.714L340.69 219.77C340.736 220.623 340.84 221.471 341.002 222.307C341.261 223.751 341.596 225.178 342.007 226.582C343.279 230.977 342.751 238.339 341.015 243.631Z" fill="#FFB0B1"/>
<path opacity="0.1" d="M340.593 256.744C340.593 256.744 338.696 261.362 338.537 261.537C338.379 261.712 332.955 265.25 332.955 265.25L329.163 267.616C329.163 267.616 325.316 265.814 327.161 265.194C327.537 265.032 327.877 264.785 328.155 264.469L328.319 265.701L329.583 265.645L340.4 255.244C340.495 256.175 340.593 256.744 340.593 256.744Z" fill="#444053"/>
<path d="M340.461 255.506L329.582 265.978L328.319 266.034L328.055 264.061C328.055 264.061 325.844 267.1 320.931 266.931C320.931 266.931 317.981 269.014 322.353 269.127C326.725 269.24 332.308 268.958 332.308 268.958C332.308 268.958 336.208 262.473 339.471 263.319V268.216H340.474V263.274C340.94 262.939 341.338 262.506 341.643 262.002C341.949 261.498 342.156 260.933 342.252 260.342C342.339 259.732 342.278 259.109 342.074 258.532C341.87 257.956 341.531 257.445 341.089 257.049C340.891 256.851 340.734 256.612 340.626 256.347C340.518 256.082 340.462 255.796 340.461 255.506Z" fill="#1D2366"/>
<path d="M366.035 249.653C365.333 252.332 365.716 253.84 366.196 254.649V254.666C366.812 255.665 367.24 256.783 367.457 257.956L367.499 258.21L362.55 265.921L359.864 267.049C359.864 267.049 355.545 265.473 356.334 265.022C356.531 264.912 356.84 264.326 357.194 263.516C358.249 261.078 359.705 256.578 359.705 256.578V256.541C359.858 254.683 360.101 252.831 360.37 250.987C360.853 247.668 359.967 239.523 359.967 239.523C359.967 239.523 359.65 229.618 358.964 227.365C358.654 226.22 358.448 225.046 358.349 223.858C358.207 222.448 358.175 221.287 358.175 221.287C358.175 221.287 361.019 217.058 366.233 221.625C366.65 221.989 367.017 222.415 367.323 222.888C370.924 228.363 368.024 240.425 368.024 240.425C368.024 240.425 367.299 244.812 366.035 249.653Z" fill="#FFB0B1"/>
<path opacity="0.1" d="M367.507 258.21L362.557 265.921L359.872 267.049C359.872 267.049 355.552 265.473 356.341 265.022C356.539 264.912 356.848 264.326 357.202 263.516C359.03 263.499 359.977 265.36 359.977 265.36L362.294 264.966C362.294 264.966 365.349 258.549 366.035 258.157C366.721 257.765 366.14 255.227 366.14 255.227V254.582C366.159 254.604 366.175 254.629 366.196 254.652V254.669C366.812 255.668 367.24 256.786 367.457 257.959L367.507 258.21Z" fill="#444053"/>
<path d="M360.136 265.527C360.136 265.527 358.816 262.938 356.289 263.894C356.289 263.894 354.867 266.996 353.445 267.498C352.022 267.999 352.497 269.691 355.711 269.074C358.925 268.456 363.769 267.946 363.769 267.946L363.98 264.791L367.246 260.345C367.246 260.345 369.193 258.458 366.296 254.745V255.391C366.296 255.391 366.877 257.928 366.191 258.32C365.505 258.712 362.46 265.132 362.46 265.132L360.136 265.527Z" fill="#1D2366"/>
<path opacity="0.1" d="M340.699 219.764C340.744 220.617 340.848 221.465 341.01 222.302C338.039 221.837 335.282 222.068 333.475 222.22V219.708L340.699 219.764Z" fill="#444053"/>
<path opacity="0.1" d="M367.616 223.59C367.616 223.59 363.395 223.81 358.361 223.855C358.218 222.445 358.187 221.284 358.187 221.284C358.187 221.284 361.031 217.055 366.244 221.622C366.661 221.986 367.028 222.412 367.334 222.885C367.416 223.126 367.51 223.361 367.616 223.59Z" fill="#444053"/>
<path d="M367.615 223.083C367.615 223.083 349.125 224.038 343.49 222.35C337.854 220.661 332.269 222.124 331.427 221.732C330.585 221.34 331.269 215.202 332.007 213.683C332.746 212.163 336.799 196.794 336.799 196.794L340.698 175.067L344.806 173.858L345.097 173.77L352.255 171.662L357.5 170.114C357.5 170.114 367.929 213.626 367.035 216.835C366.71 218.063 366.658 219.356 366.882 220.61C367.019 221.466 367.265 222.299 367.615 223.083Z" fill="#1D2366"/>
<path d="M327.106 160.209C327.106 160.209 323.412 164.438 326.209 166.795C329.005 169.152 330.844 167.021 330.844 167.021L327.106 160.209Z" fill="#C7DAF5"/>
<path opacity="0.1" d="M327.106 160.209C327.106 160.209 323.412 164.438 326.209 166.795C329.005 169.152 330.844 167.021 330.844 167.021L327.106 160.209Z" fill="#444053"/>
<path d="M356.949 132.403C356.949 132.403 356.516 132.843 355.865 133.492C354.936 134.419 353.561 135.776 352.342 136.912C350.654 138.482 349.261 139.635 349.759 138.651C350.258 137.667 350.163 135.953 349.915 134.349C349.896 134.242 349.881 134.135 349.862 134.03C349.657 132.852 349.385 131.688 349.047 130.545C349.047 130.545 351.775 126.779 353.284 125.293C353.846 124.729 354.239 124.498 354.263 124.89C354.289 125.417 354.659 126.581 355.118 127.816C355.131 127.856 355.144 127.892 355.16 127.932C355.466 128.778 355.812 129.646 356.115 130.396C356.58 131.546 356.949 132.403 356.949 132.403Z" fill="#FFB0B1"/>
<path opacity="0.1" d="M355.16 127.932C354.904 129.405 354.282 130.778 353.359 131.907C352.436 133.036 351.247 133.879 349.915 134.349C349.705 133.062 349.415 131.791 349.047 130.546C349.047 130.546 354.184 123.455 354.263 124.89C354.281 125.434 354.683 126.641 355.16 127.932Z" fill="#444053"/>
<path opacity="0.1" d="M349.403 136.244L350.068 135.243C350.068 135.243 350.508 138.113 352.128 136.847C353.748 135.581 353.827 146.374 353.827 146.374L352.089 174.154L339.524 173.35L339.881 159.927L341.303 153.16L344.82 143.323L346.912 140.072L349.403 136.244Z" fill="#444053"/>
<path d="M353.827 146.546L352.244 171.664L352.078 174.326L345.073 173.878L344.809 173.861L339.532 173.522L339.888 160.096L341.311 153.33L344.828 143.492L346.92 140.242L349.41 136.399L350.075 135.401C350.075 135.401 350.516 138.271 352.136 137.005L352.17 136.98C353.753 135.908 353.827 146.546 353.827 146.546Z" fill="#1D2366"/>
<path d="M341.488 150.978C341.488 150.978 340.857 152.388 339.591 152.159C338.324 151.931 338.327 157.234 338.327 157.234C338.327 157.234 337.485 158.08 336.905 157.347C336.324 156.614 334.794 159.092 334.794 159.092L325.206 159.544C325.206 159.544 329.472 161.627 328.636 167.931C328.636 167.931 343.121 166.973 343.596 165.509C344.071 164.046 341.488 150.978 341.488 150.978Z" fill="white"/>
<path opacity="0.03" d="M341.488 150.978C341.488 150.978 340.857 152.388 339.591 152.159C338.324 151.931 338.327 157.234 338.327 157.234C338.327 157.234 337.485 158.08 336.905 157.347C336.324 156.614 334.794 159.092 334.794 159.092L325.206 159.544C325.206 159.544 329.472 161.627 328.636 167.931C328.636 167.931 343.121 166.973 343.596 165.509C344.071 164.046 341.488 150.978 341.488 150.978Z" fill="#444053"/>
<path d="M313.623 162.856L316.151 165.163L336.957 169.835L334.377 167.021L313.623 162.856Z" fill="white"/>
<path d="M349.443 137.132C349.097 137.696 348.108 140.583 347.282 143.103C346.593 145.204 346.018 147.051 346.018 147.051C346.018 147.051 344.675 156.394 343.989 158.083C343.303 159.772 343.675 166.358 343.675 166.358L341.118 182.624C341.118 182.624 339.96 191.011 338.171 196.022C336.406 200.953 334.441 203.265 334.38 203.338C335.171 202.193 339.485 179.655 339.485 179.655L340.91 151.229C340.91 151.229 341.118 148.528 341.329 146.219C341.541 143.91 345.815 140.758 345.815 140.758L349.936 134.496C350.35 135.088 350.073 136.12 349.443 137.132Z" fill="white"/>
<path d="M338.696 173.663C338.696 173.663 332.628 173.381 329.689 169.609C326.75 165.837 336.483 168.103 336.483 168.103L339.013 168.724L338.696 173.663Z" fill="#FFB0B1"/>
<path opacity="0.1" d="M367.035 216.838C366.71 218.066 366.658 219.359 366.882 220.613C360.262 221.115 353.181 219.203 353.181 219.203C351.862 220.5 348.387 222.412 348.387 222.412L346.493 197.319C345.282 193.935 344.807 176.209 344.807 176.209C344.807 176.209 344.915 175.282 345.07 173.892C345.07 173.858 345.07 173.821 345.084 173.787C345.556 169.905 346.493 162.617 346.952 161.633C347.585 160.279 345.005 156.679 345.005 156.679L346.179 145.979L346.321 144.688C348.796 143.507 350.693 139.734 350.693 139.734L352.149 137.008C353.732 135.922 353.814 146.56 353.814 146.56L352.231 171.678L357.476 170.131C357.476 170.131 367.93 213.629 367.035 216.838Z" fill="#444053"/>
<path d="M373.829 218.572C366.613 222.4 353.497 218.853 353.497 218.853C352.178 220.15 348.703 222.062 348.703 222.062L346.806 196.969C345.598 193.586 345.123 175.86 345.123 175.86C345.123 175.86 346.648 162.634 347.281 161.283C347.466 160.888 347.376 160.302 347.157 159.67C346.081 156.664 345.685 153.429 346.002 150.228L346.508 145.63L346.648 144.341C349.126 143.157 351.023 139.385 351.023 139.385L352.342 136.915L354.769 132.364L355.919 130.21L356.115 130.399L357.605 131.842C357.605 131.842 358.239 132.406 359.188 133.252C361.254 135.113 364.824 138.389 366.666 140.394C368.286 142.159 368.797 149.024 368.945 154.192C369.043 157.595 368.985 160.263 368.985 160.263C367.352 163.136 371.623 186.201 371.623 186.201C372.618 190.659 373.829 218.572 373.829 218.572Z" fill="white"/>
<path opacity="0.03" d="M359.978 139.328C359.978 139.328 355.025 149.402 355.6 153.231C356.176 157.06 357.811 161.393 357.023 162.405C356.752 162.789 356.401 163.1 355.999 163.315C355.596 163.529 355.153 163.642 354.703 163.643C353.912 163.699 351.801 165.276 351.801 165.445C351.801 165.614 349.851 165.614 348.107 166.403C346.363 167.193 343.788 167.641 343.788 167.641C343.788 167.641 338.775 167.472 338.308 167.979C337.841 168.487 337.361 171.523 338.361 173.945C339.361 176.367 340.472 178.174 341.311 178.504C342.15 178.834 347.474 176.928 351.793 176.477C356.112 176.026 360.801 172.369 360.801 172.369C360.801 172.369 365.964 170.396 366.869 167.077C367.774 163.759 365.764 145.52 365.764 145.52C365.764 145.52 364.244 137.019 359.978 139.328Z" fill="#444053"/>
<path opacity="0.03" d="M359.344 138.482C359.344 138.482 354.392 148.559 354.972 152.385C355.553 156.211 357.183 160.547 356.392 161.562C356.122 161.946 355.772 162.258 355.37 162.473C354.968 162.687 354.524 162.799 354.075 162.8C353.284 162.856 351.173 164.432 351.173 164.602C351.173 164.771 349.223 164.771 347.479 165.557C345.735 166.344 343.16 166.795 343.16 166.795C343.16 166.795 338.147 166.626 337.683 167.133C337.218 167.641 336.733 170.68 337.735 173.099C338.738 175.519 339.846 177.329 340.685 177.658C341.524 177.988 346.848 176.082 351.168 175.634C355.487 175.186 360.175 171.523 360.175 171.523C360.175 171.523 365.336 169.55 366.23 166.234C367.125 162.918 365.125 144.674 365.125 144.674C365.125 144.674 363.61 136.176 359.344 138.482Z" fill="#444053"/>
<path d="M359.822 138.821C359.822 138.821 354.87 148.897 355.45 152.723C356.031 156.549 357.661 160.886 356.872 161.898C356.602 162.283 356.252 162.595 355.85 162.81C355.447 163.026 355.003 163.138 354.553 163.138C353.762 163.195 351.651 164.771 351.651 164.937C351.651 165.104 349.704 165.106 347.957 165.896C346.21 166.685 343.638 167.134 343.638 167.134C343.638 167.134 338.625 166.964 338.158 167.472C337.691 167.979 337.211 171.019 338.211 173.438C339.211 175.857 340.321 177.667 341.16 177.997C341.999 178.327 347.324 176.421 351.643 175.97C355.962 175.519 360.65 171.862 360.65 171.862C360.65 171.862 365.814 169.888 366.719 166.57C367.624 163.251 365.626 145.012 365.626 145.012C365.626 145.012 364.086 136.526 359.822 138.821Z" fill="white"/>
<path opacity="0.1" d="M359.713 165.848C359.713 165.848 355.756 165.002 357.133 166.412C358.51 167.821 358.502 169.056 360.188 169C361.874 168.944 359.713 165.848 359.713 165.848Z" fill="#444053"/>
<path opacity="0.1" d="M366.402 196.18C366.402 196.18 364.613 197.474 368.035 200.457C371.457 203.44 366.402 196.18 366.402 196.18Z" fill="#444053"/>
<path opacity="0.1" d="M362.988 206.817C362.988 206.986 362.355 213.02 364.724 214.528C367.093 216.037 362.988 206.817 362.988 206.817Z" fill="#444053"/>
<path d="M325.369 159.529C323.459 159.6 319.332 160.223 321.472 164.489C323.364 168.264 326.543 165.741 328.332 163.826C327.896 162.041 326.835 160.503 325.369 159.529Z" fill="#FFB0B1"/>
<path d="M328.356 163.793L328.435 163.705L328.356 163.793Z" fill="#FFB0B1"/>
<path opacity="0.1" d="M359.189 133.424C357.163 134.904 355.464 136.153 355.131 136.413C354.224 137.132 352.493 141.352 351.377 143.506C350.488 145.24 347.598 145.686 346.509 145.796L346.649 144.507C349.126 143.323 351.023 139.551 351.023 139.551L355.92 130.376L357.606 132.014C357.606 132.014 358.239 132.578 359.189 133.424Z" fill="#444053"/>
<path d="M359.189 133.255C357.163 134.735 355.464 135.984 355.131 136.246C354.224 136.963 352.493 141.183 351.377 143.337C350.488 145.071 347.598 145.517 346.509 145.627L346.649 144.338C349.126 143.154 351.023 139.382 351.023 139.382L355.92 130.207L357.606 131.84C357.606 131.84 358.239 132.398 359.189 133.255Z" fill="#DCE7FF"/>
<path d="M355.289 126.071C355.29 127.764 354.81 129.416 353.912 130.811C352.851 132.459 351.272 133.646 349.463 134.157C347.653 134.669 345.731 134.469 344.047 133.596C342.363 132.723 341.028 131.234 340.283 129.398C339.539 127.563 339.435 125.503 339.99 123.592C340.545 121.682 341.723 120.048 343.309 118.986C344.895 117.924 346.785 117.505 348.636 117.804C350.487 118.104 352.176 119.103 353.397 120.62C354.617 122.137 355.288 124.071 355.289 126.071Z" fill="#FFB0B1"/>
<path opacity="0.1" d="M368.945 154.195C367.874 153.491 367.001 152.489 366.42 151.297C365.98 150.366 365.687 149.292 364.935 148.632C364.257 148.04 363.352 147.896 362.508 147.631C359.732 146.755 357.405 144.048 357.318 140.958C357.276 139.503 357.7 138.051 357.508 136.61C357.398 135.795 357.095 135.023 356.627 134.369C356.394 134.056 356.139 133.763 355.864 133.492C355.495 133.12 355.107 132.759 354.769 132.364C354.556 132.12 354.37 131.85 354.215 131.561C354.09 131.324 353.988 131.073 353.912 130.813C353.384 129.088 353.864 127.041 353.284 125.296L353.252 125.2C353.033 124.58 352.587 123.959 351.967 123.911C351.347 123.863 350.817 124.413 350.226 124.659C348.988 125.172 347.653 124.298 346.622 123.407C345.59 122.516 344.427 121.498 343.115 121.695C342.247 121.828 341.561 122.459 340.762 122.786C340.581 122.861 340.395 122.919 340.205 122.958C340.882 121.155 342.125 119.66 343.721 118.73C345.317 117.8 347.166 117.493 348.951 117.862C350.735 118.231 352.344 119.252 353.501 120.75C354.658 122.249 355.29 124.131 355.289 126.074C355.29 126.66 355.232 127.245 355.117 127.819C355.131 127.859 355.144 127.895 355.16 127.935C355.466 128.781 355.811 129.649 356.115 130.399L357.605 131.842C357.605 131.842 358.239 132.406 359.188 133.252C361.254 135.113 364.824 138.389 366.666 140.394C368.286 142.164 368.792 149.027 368.945 154.195Z" fill="#444053"/>
<path d="M340.669 117.635C341.047 116.815 341.234 115.896 341.685 115.117C342.347 113.99 343.503 113.268 344.69 112.831C347.791 111.689 354.342 110.031 356.299 112.831C356.685 113.395 357.004 114.021 357.537 114.41C357.943 114.706 358.434 114.833 358.88 115.055C360.128 115.681 360.925 117.046 361.349 118.439C361.774 119.832 361.901 121.326 362.212 122.761C362.61 124.602 363.31 126.347 364.006 128.081C364.827 130.128 365.697 132.251 367.28 133.698C369.441 135.671 369.919 138.465 371.924 140.631C374.299 143.202 374.222 147.445 372.998 150.815C372.837 151.257 372.655 151.72 372.718 152.19C372.782 152.661 373.109 153.09 373.417 153.465L374.715 155.03C371.644 155.822 368.17 154.108 366.74 151.099C366.299 150.169 366.006 149.097 365.252 148.435C364.576 147.843 363.668 147.702 362.827 147.437C360.051 146.557 357.724 143.848 357.637 140.758C357.595 139.306 358.02 137.854 357.827 136.416C357.72 135.595 357.415 134.818 356.943 134.16C356.218 133.148 355.123 132.468 354.532 131.341C353.532 129.454 354.292 127.004 353.571 124.98C353.35 124.36 352.906 123.739 352.286 123.691C351.666 123.643 351.136 124.193 350.542 124.439C349.308 124.952 347.973 124.081 346.941 123.187C345.909 122.293 344.746 121.278 343.432 121.478C342.564 121.608 341.88 122.239 341.081 122.569C340.49 122.812 339.292 123.029 338.775 122.496C337.683 121.422 340.213 118.639 340.669 117.635Z" fill="#591D4B"/>
<path opacity="0.1" d="M367.473 150.169C367.03 149.239 366.74 148.167 365.985 147.507C365.31 146.915 364.402 146.771 363.558 146.506C360.785 145.63 358.458 142.92 358.368 139.83C358.326 138.378 358.751 136.923 358.561 135.485C358.45 134.67 358.146 133.898 357.677 133.244C356.949 132.232 355.854 131.552 355.265 130.424C354.265 128.541 355.025 126.091 354.302 124.064C354.083 123.446 353.637 122.826 353.02 122.775C352.403 122.724 351.867 123.28 351.276 123.525C350.041 124.038 348.704 123.164 347.675 122.273C346.646 121.382 345.477 120.365 344.166 120.562C343.298 120.694 342.612 121.326 341.815 121.653C341.224 121.895 340.023 122.115 339.506 121.583C338.419 120.455 340.949 117.678 341.403 116.679C341.78 115.856 341.968 114.94 342.422 114.162C342.445 114.119 342.472 114.077 342.498 114.035C342.159 114.335 341.866 114.691 341.63 115.089C341.179 115.867 340.992 116.781 340.614 117.607C340.158 118.605 337.628 121.391 338.717 122.51C339.245 123.046 340.432 122.826 341.023 122.583C341.815 122.254 342.506 121.622 343.374 121.492C344.693 121.292 345.854 122.31 346.883 123.201C347.912 124.092 349.258 124.966 350.487 124.453C351.078 124.207 351.595 123.655 352.229 123.706C352.862 123.756 353.284 124.374 353.514 124.994C354.234 127.018 353.474 129.469 354.474 131.355C355.065 132.463 356.16 133.156 356.885 134.174C357.358 134.832 357.662 135.609 357.769 136.43C357.962 137.868 357.537 139.32 357.579 140.772C357.666 143.873 359.993 146.571 362.769 147.451C363.605 147.716 364.518 147.857 365.194 148.449C365.951 149.112 366.249 150.183 366.682 151.113C368.112 154.122 371.587 155.836 374.658 155.044L374.046 154.305C371.383 154.347 368.69 152.729 367.473 150.169Z" fill="#444053"/>
<path opacity="0.1" d="M349.284 137.301C348.939 137.865 347.949 140.752 347.123 143.273C346.35 142.951 345.648 140.901 345.648 140.901L349.77 134.637C350.192 135.257 349.915 136.286 349.284 137.301Z" fill="#444053"/>
<path d="M349.442 137.132C349.097 137.696 348.107 140.583 347.282 143.103C346.508 142.785 345.807 140.732 345.807 140.732L349.928 134.47C350.35 135.088 350.073 136.12 349.442 137.132Z" fill="#DCE7FF"/>
<path d="M325.48 165.935L323.195 158.235C323.168 158.145 323.158 158.05 323.165 157.956C323.173 157.862 323.198 157.77 323.238 157.686C323.279 157.601 323.335 157.527 323.403 157.466C323.47 157.405 323.549 157.359 323.633 157.33C323.803 157.274 323.987 157.291 324.146 157.379C324.304 157.466 324.423 157.617 324.477 157.798L326.762 165.49L326.535 167.1L325.48 165.935Z" fill="#BE8B87"/>
<path opacity="0.1" d="M323.411 157.559C323.582 157.501 323.767 157.518 323.925 157.606C324.084 157.693 324.204 157.845 324.258 158.027L326.543 165.718L326.372 166.925L326.538 167.111L326.765 165.501L324.467 157.81C324.412 157.628 324.293 157.477 324.135 157.39C323.977 157.302 323.792 157.285 323.622 157.342C323.479 157.391 323.356 157.49 323.271 157.623C323.316 157.598 323.363 157.576 323.411 157.559Z" fill="white"/>
<path d="M325.48 165.935L326.763 165.501L326.576 166.821L326.536 167.111L326.161 166.694L325.48 165.935Z" fill="#EFC8C4"/>
<path d="M326.161 166.694C326.183 166.664 326.211 166.639 326.243 166.62C326.262 166.608 326.283 166.601 326.305 166.601C326.327 166.601 326.348 166.608 326.367 166.62C326.385 166.644 326.4 166.669 326.412 166.697C326.429 166.728 326.453 166.754 326.481 166.774C326.51 166.794 326.542 166.807 326.576 166.812L326.536 167.095L326.161 166.694Z" fill="#727A9C"/>
<path d="M323.183 160.97C323.183 160.97 327.765 160.942 326.686 163.026C325.607 165.109 323.921 165.36 323.921 165.36L323.183 160.97Z" fill="#FFB0B1"/>
<path d="M294.679 67.4631H294.481C286.608 67.4631 279.645 71.915 275.64 78.4844C271.635 71.915 264.672 67.4631 256.799 67.4631H256.601C250.693 67.5233 245.045 70.0728 240.886 74.5576C236.727 79.0425 234.392 85.1002 234.389 91.4144C234.389 99.2553 237.602 110.381 243.868 119.536C255.807 136.98 275.64 152.241 275.64 152.241C275.64 152.241 295.473 136.982 307.409 119.536C313.678 110.381 316.889 99.2553 316.889 91.4144C316.886 85.1007 314.551 79.0434 310.393 74.5586C306.234 70.0739 300.587 67.524 294.679 67.4631ZM291.848 120.878C290.951 120.874 290.077 120.581 289.339 120.036C288.601 119.492 288.035 118.722 287.714 117.827H283.007C282.697 117.825 282.395 117.719 282.144 117.525C281.893 117.331 281.705 117.058 281.606 116.744L280.16 112.089L275.585 129.172C275.496 129.501 275.309 129.79 275.053 129.996C274.797 130.202 274.486 130.314 274.165 130.314H274.073C273.739 130.297 273.42 130.158 273.17 129.92C272.921 129.682 272.755 129.359 272.701 129.006L267.986 98.7027L264.54 116.634C264.461 116.975 264.278 117.278 264.019 117.494C263.761 117.71 263.441 117.827 263.113 117.827H256.483C256.284 117.836 256.086 117.802 255.899 117.727C255.713 117.652 255.543 117.537 255.4 117.39C255.256 117.243 255.142 117.066 255.064 116.871C254.986 116.675 254.945 116.465 254.945 116.252C254.945 116.04 254.986 115.829 255.064 115.634C255.142 115.438 255.256 115.262 255.4 115.115C255.543 114.967 255.713 114.853 255.899 114.778C256.086 114.703 256.284 114.669 256.483 114.678H261.952L266.833 90.5685C266.913 90.2121 267.107 89.8964 267.381 89.6756C267.654 89.4547 267.992 89.3423 268.334 89.3576C268.677 89.373 269.004 89.515 269.26 89.7596C269.515 90.0041 269.683 90.3359 269.735 90.6982L274.551 121.611L278.651 106.326C278.736 106.005 278.917 105.721 279.165 105.518C279.414 105.314 279.718 105.202 280.031 105.199H280.06C280.37 105.199 280.672 105.303 280.923 105.498C281.174 105.692 281.361 105.966 281.458 106.281L284.073 114.686H287.656C287.91 113.859 288.374 113.123 288.995 112.56C289.617 111.997 290.372 111.628 291.177 111.494C291.982 111.36 292.806 111.467 293.558 111.802C294.31 112.137 294.961 112.688 295.438 113.393C295.916 114.099 296.202 114.931 296.265 115.799C296.328 116.668 296.165 117.537 295.794 118.313C295.423 119.088 294.86 119.739 294.165 120.194C293.47 120.648 292.671 120.889 291.856 120.889L291.848 120.878Z" fill="#FF0000"/>
</g>
<defs>
<linearGradient id="paint0_linear" x1="202.459" y1="271.436" x2="202.459" y2="97.9442" gradientUnits="userSpaceOnUse">
<stop stop-color="#808080" stop-opacity="0.25"/>
<stop offset="0.54" stop-color="#808080" stop-opacity="0.12"/>
<stop offset="1" stop-color="#808080" stop-opacity="0.1"/>
</linearGradient>
<linearGradient id="paint1_linear" x1="59001.9" y1="130955" x2="59001.9" y2="41900.1" gradientUnits="userSpaceOnUse">
<stop stop-color="#808080" stop-opacity="0.25"/>
<stop offset="0.54" stop-color="#808080" stop-opacity="0.12"/>
<stop offset="1" stop-color="#808080" stop-opacity="0.1"/>
</linearGradient>
<clipPath id="clip0">
<rect width="291.555" height="220.69" fill="white" transform="translate(108.444 52.9655)"/>
</clipPath>
</defs>
</svg>
