<svg width="400" height="320" viewBox="0 0 400 320" fill="none" xmlns="http://www.w3.org/2000/svg">
<ellipse cx="200" cy="216.149" rx="200" ry="103.851" fill="#FDF7FF" fill-opacity="0.26"/>
<g clip-path="url(#clip0)">
<path opacity="0.1" d="M350.733 297.024C353.397 293.936 350.313 285.356 343.845 277.859C337.376 270.362 329.972 266.788 327.307 269.876C324.642 272.964 327.726 281.545 334.195 289.041C340.664 296.538 348.068 300.112 350.733 297.024Z" fill="#D75413"/>
<path d="M340.193 284.703C342.215 284.703 343.855 282.215 343.855 279.146C343.855 276.076 342.215 273.588 340.193 273.588C338.17 273.588 336.53 276.076 336.53 279.146C336.53 282.215 338.17 284.703 340.193 284.703Z" fill="#031F73"/>
<path d="M340.193 277.912C342.215 277.912 343.855 275.424 343.855 272.354C343.855 269.285 342.215 266.797 340.193 266.797C338.17 266.797 336.53 269.285 336.53 272.354C336.53 275.424 338.17 277.912 340.193 277.912Z" fill="#031F73"/>
<path d="M340.193 271.12C342.215 271.12 343.855 268.632 343.855 265.562C343.855 262.493 342.215 260.005 340.193 260.005C338.17 260.005 336.53 262.493 336.53 265.562C336.53 268.632 338.17 271.12 340.193 271.12Z" fill="#031F73"/>
<path d="M340.193 264.328C342.215 264.328 343.855 261.84 343.855 258.771C343.855 255.701 342.215 253.213 340.193 253.213C338.17 253.213 336.53 255.701 336.53 258.771C336.53 261.84 338.17 264.328 340.193 264.328Z" fill="#031F73"/>
<path d="M340.193 257.536C342.215 257.536 343.855 255.048 343.855 251.979C343.855 248.91 342.215 246.421 340.193 246.421C338.17 246.421 336.53 248.91 336.53 251.979C336.53 255.048 338.17 257.536 340.193 257.536Z" fill="#031F73"/>
<path d="M340.193 250.745C342.215 250.745 343.855 248.257 343.855 245.187C343.855 242.118 342.215 239.63 340.193 239.63C338.17 239.63 336.53 242.118 336.53 245.187C336.53 248.257 338.17 250.745 340.193 250.745Z" fill="#031F73"/>
<path d="M340.193 243.953C342.215 243.953 343.855 241.465 343.855 238.395C343.855 235.326 342.215 232.838 340.193 232.838C338.17 232.838 336.53 235.326 336.53 238.395C336.53 241.465 338.17 243.953 340.193 243.953Z" fill="#031F73"/>
<path d="M353.904 191.917C354.405 191.18 354.861 190.402 355.269 189.591L345.644 187.76L356.054 187.847C357.053 185.329 357.598 182.602 357.657 179.832C357.715 177.062 357.286 174.307 356.395 171.736L342.432 180.134L355.303 169.161C354.098 166.742 352.475 164.637 350.536 162.977C348.598 161.317 346.385 160.138 344.036 159.513C341.687 158.888 339.252 158.831 336.882 159.344C334.513 159.858 332.261 160.932 330.266 162.498C328.27 164.065 326.575 166.092 325.285 168.451C323.995 170.811 323.139 173.454 322.769 176.214C322.399 178.974 322.524 181.793 323.136 184.495C323.748 187.196 324.833 189.723 326.325 191.917C325.545 193.065 324.874 194.308 324.325 195.624L336.817 203.139L323.506 197.957C322.571 201.162 322.34 204.586 322.834 207.919C323.328 211.253 324.531 214.392 326.335 217.051C324.3 220.05 323.033 223.652 322.681 227.446C322.329 231.24 322.905 235.072 324.344 238.504C325.782 241.936 328.025 244.83 330.815 246.854C333.606 248.879 336.832 249.953 340.125 249.953C343.417 249.953 346.643 248.879 349.434 246.854C352.224 244.83 354.467 241.936 355.906 238.504C357.344 235.072 357.92 231.24 357.568 227.446C357.216 223.652 355.95 220.05 353.914 217.051C356.346 213.467 357.668 209.04 357.668 204.48C357.668 199.921 356.346 195.493 353.914 191.909L353.904 191.917Z" fill="#D75413"/>
<path opacity="0.1" d="M322.57 204.488C322.564 209.049 323.887 213.479 326.325 217.059C324.289 220.058 323.023 223.66 322.671 227.454C322.319 231.248 322.895 235.08 324.333 238.512C325.772 241.944 328.015 244.838 330.805 246.862C333.596 248.887 336.822 249.96 340.114 249.96C343.407 249.96 346.633 248.887 349.423 246.862C352.214 244.838 354.457 241.944 355.895 238.512C357.334 235.08 357.91 231.248 357.558 227.454C357.206 223.66 355.939 220.058 353.904 217.059C356.256 213.602 322.57 202.206 322.57 204.488Z" fill="black"/>
<path d="M331.435 0V284.802L248.151 271.353L146.911 295.289L146.095 295.482L65.543 269.771V22.1513L149.167 0L240.642 22.1513L244.12 21.3008L331.435 0Z" fill="#444053"/>
<path d="M317.44 15.5534V270.376L242.926 258.343L152.342 279.759L151.611 279.929L79.5371 256.927V35.3709L154.362 15.5534L236.205 35.3709L239.318 34.6114L317.44 15.5534Z" fill="white"/>
<path opacity="0.1" d="M248.151 271.353L146.911 295.289L149.167 0L240.642 22.1513L244.12 21.3008L248.151 271.353Z" fill="black"/>
<g opacity="0.3">
<path opacity="0.3" d="M238.041 54.5871L238.082 137.457H267.777V103.439H318.635L324.608 94.5623" stroke="#444053" stroke-width="3" stroke-miterlimit="10"/>
<path opacity="0.3" d="M72.7109 80.8918H183.129L189.956 77.3317H192.686V157.235H240.472L242.52 164.355V200.35H279.383V244.851" stroke="#444053" stroke-width="3" stroke-miterlimit="10"/>
<path opacity="0.3" d="M207.271 244.851V157.235" stroke="#444053" stroke-width="3" stroke-miterlimit="10"/>
<path opacity="0.3" d="M324.608 221.378H207.271" stroke="#444053" stroke-width="3" stroke-miterlimit="10"/>
<path opacity="0.3" d="M295.22 54.5871V244.851" stroke="#444053" stroke-width="3" stroke-miterlimit="10"/>
<path opacity="0.3" d="M72.3691 204.559H324.608" stroke="#444053" stroke-width="3" stroke-miterlimit="10"/>
<path opacity="0.3" d="M103.067 244.851V54.5871" stroke="#444053" stroke-width="3" stroke-miterlimit="10"/>
<path opacity="0.3" d="M161.701 54.5871V244.851" stroke="#444053" stroke-width="3" stroke-miterlimit="10"/>
<path opacity="0.3" d="M72.7109 102.647L267.778 103.439" stroke="#444053" stroke-width="3" stroke-miterlimit="10"/>
<path opacity="0.3" d="M129.483 54.9312V244.851" stroke="#444053" stroke-width="3" stroke-miterlimit="10"/>
<path opacity="0.3" d="M72.3691 146.681H161.701L207.271 204.559" stroke="#444053" stroke-width="3" stroke-miterlimit="10"/>
<path opacity="0.3" d="M217.142 54.5871V157.235" stroke="#444053" stroke-width="3" stroke-miterlimit="10"/>
<path opacity="0.3" d="M207.271 175.62H324.608" stroke="#444053" stroke-width="3" stroke-miterlimit="10"/>
</g>
<path d="M242.348 174.837H207.874V157.432L240.47 157.235L242.518 163.959L242.348 174.837Z" fill="#D75413"/>
<path d="M225.282 84.6496C220.278 84.6496 215.479 86.9534 211.941 91.0541C208.402 95.1549 206.414 100.717 206.414 106.516C206.414 118.593 225.282 157.828 225.282 157.828C225.282 157.828 244.151 118.608 244.151 106.516C244.151 100.717 242.163 95.1549 238.624 91.0541C235.086 86.9534 230.287 84.6496 225.282 84.6496ZM225.282 115.843C223.641 115.843 222.036 115.279 220.671 114.222C219.306 113.165 218.242 111.663 217.613 109.905C216.985 108.147 216.821 106.213 217.141 104.347C217.461 102.481 218.252 100.766 219.413 99.421C220.574 98.0756 222.053 97.1594 223.663 96.7882C225.273 96.417 226.942 96.6076 228.459 97.3357C229.976 98.0638 231.272 99.2968 232.185 100.879C233.097 102.461 233.584 104.321 233.584 106.223C233.583 108.774 232.708 111.22 231.151 113.023C229.594 114.826 227.483 115.839 225.282 115.839V115.843Z" fill="#D75413"/>
<path opacity="0.1" d="M225.282 84.6496C220.278 84.6496 215.479 86.9534 211.941 91.0541C208.402 95.1549 206.414 100.717 206.414 106.516C206.414 118.593 225.282 157.828 225.282 157.828C225.282 157.828 244.151 118.608 244.151 106.516C244.151 100.717 242.163 95.1549 238.624 91.0541C235.086 86.9534 230.287 84.6496 225.282 84.6496ZM225.282 115.843C223.641 115.843 222.036 115.279 220.671 114.222C219.306 113.165 218.242 111.663 217.613 109.905C216.985 108.147 216.821 106.213 217.141 104.347C217.461 102.481 218.252 100.766 219.413 99.421C220.574 98.0756 222.053 97.1594 223.663 96.7882C225.273 96.417 226.942 96.6076 228.459 97.3357C229.976 98.0638 231.272 99.2968 232.185 100.879C233.097 102.461 233.584 104.321 233.584 106.223C233.583 108.774 232.708 111.22 231.151 113.023C229.594 114.826 227.483 115.839 225.282 115.839V115.843Z" fill="black"/>
<path d="M225.282 87.814C220.278 87.814 215.479 90.1178 211.941 94.2186C208.402 98.3193 206.414 103.881 206.414 109.681C206.414 121.757 225.282 160.992 225.282 160.992C225.282 160.992 244.151 121.773 244.151 109.681C244.151 103.881 242.163 98.3193 238.624 94.2186C235.086 90.1178 230.287 87.814 225.282 87.814ZM225.282 119.008C223.641 119.008 222.036 118.444 220.671 117.387C219.306 116.329 218.242 114.827 217.613 113.069C216.985 111.311 216.821 109.377 217.141 107.511C217.461 105.645 218.252 103.931 219.413 102.585C220.574 101.24 222.053 100.324 223.663 99.9527C225.273 99.5815 226.942 99.772 228.459 100.5C229.976 101.228 231.272 102.461 232.185 104.043C233.097 105.625 233.584 107.485 233.584 109.388C233.583 111.939 232.708 114.384 231.151 116.188C229.594 117.991 227.483 119.004 225.282 119.004V119.008Z" fill="#D75413"/>
<path opacity="0.1" d="M218.887 295.117C224.678 292.226 228.54 287.642 227.512 284.877C226.485 282.112 220.957 282.214 215.166 285.104C209.375 287.994 205.513 292.579 206.54 295.344C207.568 298.109 213.095 298.007 218.887 295.117Z" fill="#D75413"/>
<path d="M216.892 291.784C218.287 291.784 219.418 290.07 219.418 287.955C219.418 285.84 218.287 284.126 216.892 284.126C215.497 284.126 214.366 285.84 214.366 287.955C214.366 290.07 215.497 291.784 216.892 291.784Z" fill="#031F73"/>
<path d="M216.892 287.101C218.287 287.101 219.418 285.386 219.418 283.272C219.418 281.157 218.287 279.443 216.892 279.443C215.497 279.443 214.366 281.157 214.366 283.272C214.366 285.386 215.497 287.101 216.892 287.101Z" fill="#031F73"/>
<path d="M216.892 282.421C218.287 282.421 219.418 280.707 219.418 278.592C219.418 276.477 218.287 274.763 216.892 274.763C215.497 274.763 214.366 276.477 214.366 278.592C214.366 280.707 215.497 282.421 216.892 282.421Z" fill="#031F73"/>
<path d="M216.892 277.742C218.287 277.742 219.418 276.027 219.418 273.913C219.418 271.798 218.287 270.084 216.892 270.084C215.497 270.084 214.366 271.798 214.366 273.913C214.366 276.027 215.497 277.742 216.892 277.742Z" fill="#031F73"/>
<path d="M216.892 273.058C218.287 273.058 219.418 271.344 219.418 269.229C219.418 267.115 218.287 265.4 216.892 265.4C215.497 265.4 214.366 267.115 214.366 269.229C214.366 271.344 215.497 273.058 216.892 273.058Z" fill="#031F73"/>
<path d="M216.892 268.379C218.287 268.379 219.418 266.664 219.418 264.55C219.418 262.435 218.287 260.721 216.892 260.721C215.497 260.721 214.366 262.435 214.366 264.55C214.366 266.664 215.497 268.379 216.892 268.379Z" fill="#031F73"/>
<path d="M216.892 263.699C218.287 263.699 219.418 261.985 219.418 259.87C219.418 257.756 218.287 256.041 216.892 256.041C215.497 256.041 214.366 257.756 214.366 259.87C214.366 261.985 215.497 263.699 216.892 263.699Z" fill="#031F73"/>
<path d="M207.441 227.834C207.097 227.332 206.782 226.803 206.499 226.252L213.135 224.986L205.967 225.049C205.28 223.314 204.905 221.434 204.865 219.525C204.825 217.616 205.121 215.718 205.735 213.946L215.36 219.713L206.486 212.15C207.317 210.484 208.435 209.034 209.771 207.89C211.107 206.747 212.632 205.934 214.251 205.504C215.87 205.074 217.548 205.034 219.18 205.388C220.813 205.742 222.365 206.482 223.74 207.562C225.115 208.642 226.283 210.038 227.171 211.664C228.06 213.29 228.65 215.111 228.905 217.013C229.16 218.915 229.074 220.857 228.653 222.719C228.232 224.581 227.484 226.322 226.457 227.834C226.989 228.627 227.447 229.484 227.822 230.389L219.217 235.575L228.399 232.015C229.044 234.224 229.203 236.583 228.863 238.881C228.522 241.179 227.693 243.342 226.45 245.175C227.853 247.242 228.726 249.726 228.969 252.341C229.212 254.956 228.815 257.597 227.824 259.963C226.832 262.329 225.286 264.324 223.363 265.72C221.439 267.116 219.215 267.856 216.946 267.856C214.676 267.856 212.452 267.116 210.529 265.72C208.605 264.324 207.059 262.329 206.067 259.963C205.076 257.597 204.679 254.956 204.922 252.341C205.165 249.726 206.038 247.242 207.441 245.175C205.765 242.705 204.854 239.653 204.854 236.511C204.854 233.368 205.765 230.316 207.441 227.846V227.834Z" fill="#D75413"/>
<path opacity="0.1" d="M229.037 236.485C229.042 239.629 228.13 242.683 226.45 245.152C227.853 247.219 228.726 249.702 228.969 252.317C229.212 254.932 228.815 257.574 227.824 259.939C226.832 262.305 225.286 264.3 223.363 265.696C221.439 267.092 219.215 267.832 216.946 267.832C214.676 267.832 212.452 267.092 210.529 265.696C208.605 264.3 207.059 262.305 206.067 259.939C205.076 257.574 204.679 254.932 204.922 252.317C205.165 249.702 206.038 247.219 207.441 245.152C205.82 242.778 229.037 234.926 229.037 236.485Z" fill="black"/>
<path opacity="0.1" d="M70.5052 288.321C73.1698 285.233 70.0858 276.653 63.617 269.156C57.1482 261.659 49.7441 258.085 47.0795 261.173C44.4149 264.261 47.4989 272.842 53.9677 280.339C60.4365 287.835 67.8406 291.409 70.5052 288.321Z" fill="#D75413"/>
<path d="M59.9651 276.001C61.9878 276.001 63.6276 273.513 63.6276 270.444C63.6276 267.374 61.9878 264.886 59.9651 264.886C57.9425 264.886 56.3027 267.374 56.3027 270.444C56.3027 273.513 57.9425 276.001 59.9651 276.001Z" fill="#031F73"/>
<path d="M59.9651 269.209C61.9878 269.209 63.6276 266.721 63.6276 263.652C63.6276 260.582 61.9878 258.094 59.9651 258.094C57.9425 258.094 56.3027 260.582 56.3027 263.652C56.3027 266.721 57.9425 269.209 59.9651 269.209Z" fill="#031F73"/>
<path d="M59.9651 262.418C61.9878 262.418 63.6276 259.929 63.6276 256.86C63.6276 253.791 61.9878 251.302 59.9651 251.302C57.9425 251.302 56.3027 253.791 56.3027 256.86C56.3027 259.929 57.9425 262.418 59.9651 262.418Z" fill="#031F73"/>
<path d="M59.9651 255.626C61.9878 255.626 63.6276 253.138 63.6276 250.068C63.6276 246.999 61.9878 244.511 59.9651 244.511C57.9425 244.511 56.3027 246.999 56.3027 250.068C56.3027 253.138 57.9425 255.626 59.9651 255.626Z" fill="#031F73"/>
<path d="M59.9651 248.834C61.9878 248.834 63.6276 246.346 63.6276 243.277C63.6276 240.207 61.9878 237.719 59.9651 237.719C57.9425 237.719 56.3027 240.207 56.3027 243.277C56.3027 246.346 57.9425 248.834 59.9651 248.834Z" fill="#031F73"/>
<path d="M59.9651 242.042C61.9878 242.042 63.6276 239.554 63.6276 236.485C63.6276 233.415 61.9878 230.927 59.9651 230.927C57.9425 230.927 56.3027 233.415 56.3027 236.485C56.3027 239.554 57.9425 242.042 59.9651 242.042Z" fill="#031F73"/>
<path d="M59.9651 235.251C61.9878 235.251 63.6276 232.762 63.6276 229.693C63.6276 226.624 61.9878 224.135 59.9651 224.135C57.9425 224.135 56.3027 226.624 56.3027 229.693C56.3027 232.762 57.9425 235.251 59.9651 235.251Z" fill="#031F73"/>
<path d="M73.6753 183.215C74.1765 182.477 74.6327 181.7 75.0406 180.889L65.4153 179.058L75.8257 179.145C76.8243 176.627 77.3697 173.9 77.4284 171.13C77.487 168.36 77.0579 165.605 76.167 163.034L62.2034 171.431L75.0748 160.458C73.8691 158.04 72.2464 155.935 70.3079 154.275C68.3693 152.615 66.1565 151.436 63.8073 150.811C61.4582 150.186 59.0231 150.128 56.654 150.642C54.2848 151.155 52.0323 152.229 50.037 153.796C48.0417 155.363 46.3463 157.39 45.0566 159.749C43.7669 162.109 42.9104 164.751 42.5407 167.511C42.171 170.272 42.2959 173.09 42.9076 175.792C43.5194 178.494 44.6048 181.021 46.0964 183.215C45.3161 184.363 44.6455 185.606 44.0962 186.921L56.5887 194.437L43.277 189.255C42.3423 192.46 42.1116 195.883 42.6056 199.217C43.0997 202.551 44.3029 205.689 46.1066 208.349C44.0711 211.348 42.8049 214.95 42.4527 218.744C42.1005 222.537 42.6766 226.369 44.115 229.801C45.5535 233.234 47.7963 236.127 50.587 238.152C53.3777 240.177 56.6037 241.25 59.8961 241.25C63.1885 241.25 66.4145 240.177 69.2052 238.152C71.9959 236.127 74.2387 233.234 75.6772 229.801C77.1156 226.369 77.6917 222.537 77.3395 218.744C76.9873 214.95 75.7211 211.348 73.6856 208.349C76.1177 204.765 77.4399 200.337 77.4399 195.778C77.4399 191.218 76.1177 186.791 73.6856 183.207L73.6753 183.215Z" fill="#D75413"/>
<path opacity="0.1" d="M42.3428 195.786C42.3362 200.347 43.6592 204.776 46.0974 208.357C44.0619 211.356 42.7956 214.958 42.4435 218.752C42.0913 222.545 42.6673 226.377 44.1058 229.809C45.5443 233.242 47.7871 236.135 50.5778 238.16C53.3685 240.185 56.5944 241.258 59.8869 241.258C63.1793 241.258 66.4053 240.185 69.196 238.16C71.9867 236.135 74.2295 233.242 75.6679 229.809C77.1064 226.377 77.6824 222.545 77.3303 218.752C76.9781 214.958 75.7118 211.356 73.6764 208.357C76.0281 204.9 42.3428 193.503 42.3428 195.786Z" fill="black"/>
</g>
<defs>
<clipPath id="clip0">
<rect width="315.315" height="298.137" fill="white" transform="translate(42.3428)"/>
</clipPath>
</defs>
</svg>
