<svg width="400" height="320" viewBox="0 0 400 320" fill="none" xmlns="http://www.w3.org/2000/svg">
<ellipse rx="146.094" ry="81.6046" transform="matrix(-0.867139 0.498067 -0.796373 -0.604805 208.329 197.881)" fill="#031F73"/>
<g clip-path="url(#clip0)">
<path d="M310.991 13.5H12.8955V241.545H310.991V13.5Z" fill="#6C63FF"/>
<path d="M85.6094 143.987L85.2637 143.879C88.7 122.839 96.5665 103.684 107.867 88.8406C119.168 73.997 133.394 64.1318 148.746 60.4943C164.097 56.8568 179.882 59.6105 194.102 68.4067C208.323 77.203 220.339 91.6461 228.629 109.907C233.344 120.263 236.754 131.652 238.716 143.589L238.37 143.698C230.211 94.075 198.812 59.4177 162.013 59.4177C125.697 59.4177 93.5647 94.984 85.6094 143.987Z" fill="#F2F2F2"/>
<path d="M22.1922 22.8461C23.6829 22.8461 24.8913 21.1723 24.8913 19.1076C24.8913 17.043 23.6829 15.3692 22.1922 15.3692C20.7016 15.3692 19.4932 17.043 19.4932 19.1076C19.4932 21.1723 20.7016 22.8461 22.1922 22.8461Z" fill="#F2F2F2"/>
<path d="M30.2889 22.8461C31.7795 22.8461 32.988 21.1723 32.988 19.1076C32.988 17.043 31.7795 15.3692 30.2889 15.3692C28.7983 15.3692 27.5898 17.043 27.5898 19.1076C27.5898 21.1723 28.7983 22.8461 30.2889 22.8461Z" fill="#F2F2F2"/>
<path d="M38.3866 22.8461C39.8772 22.8461 41.0856 21.1723 41.0856 19.1076C41.0856 17.043 39.8772 15.3692 38.3866 15.3692C36.8959 15.3692 35.6875 17.043 35.6875 19.1076C35.6875 21.1723 36.8959 22.8461 38.3866 22.8461Z" fill="#F2F2F2"/>
<path d="M12.8955 174.349V175.2C35.5676 182.478 52.9915 208.954 55.7085 241.545H56.3143C53.5853 208.498 35.9005 181.647 12.8955 174.349Z" fill="#F2F2F2"/>
<path opacity="0.1" d="M44.7833 241.545H12.8955V194.511C21.003 197.018 28.3791 202.843 34.0656 211.231C39.7522 219.618 43.4864 230.18 44.7833 241.545Z" fill="black"/>
<path opacity="0.1" d="M310.991 196.339V240.507H277.034C278.844 229.277 283.049 219.061 289.105 211.184C295.161 203.308 302.786 198.136 310.991 196.339Z" fill="black"/>
<path d="M273.45 76.0567L273.258 75.7368L201.466 158.203L201.235 158.469L250.979 241.545H251.759L202.081 158.577L273.18 76.9082L310.991 140.059V138.755L273.45 76.0567Z" fill="#F2F2F2"/>
<path d="M130.913 152.072C130.925 154.207 130.869 156.356 130.745 158.519C130.67 159.914 130.562 161.31 130.427 162.71C130.352 163.52 130.266 164.33 130.169 165.14C130.001 166.548 129.807 167.941 129.587 169.319C129.554 169.535 129.518 169.746 129.479 169.962C127.273 183.333 122.521 195.641 115.717 205.606C118.081 208.116 119.959 211.398 121.182 215.159C122.405 218.92 122.936 223.043 122.727 227.157C122.519 231.272 121.576 235.251 119.985 238.738C118.393 242.225 116.202 245.111 113.608 247.137C111.014 249.164 108.098 250.267 105.12 250.35C102.142 250.432 99.1964 249.49 96.5459 247.609C93.8955 245.728 91.6232 242.965 89.9325 239.569C88.2419 236.173 87.1856 232.249 86.8582 228.149C80.025 230.182 72.9765 230.413 66.0815 228.831C35.6871 221.902 15.1023 182.162 20.1016 140.063C25.1009 97.964 53.7948 69.4479 84.1892 76.3765C94.4035 78.6995 103.95 84.9142 111.759 94.325C119.568 103.736 125.332 115.971 128.406 129.662C128.454 129.878 128.499 130.09 128.547 130.306C129.044 132.578 129.465 134.889 129.809 137.238C130.013 138.626 130.187 140.022 130.337 141.43C130.559 143.556 130.721 145.708 130.814 147.876C130.877 149.268 130.91 150.666 130.913 152.072Z" fill="#3F3D56"/>
<path d="M220.282 104.472C230.5 104.472 238.783 92.9988 238.783 78.8461C238.783 64.6933 230.5 53.2203 220.282 53.2203C210.064 53.2203 201.781 64.6933 201.781 78.8461C201.781 92.9988 210.064 104.472 220.282 104.472Z" fill="#A0616A"/>
<path d="M227.51 98.4658C227.51 98.4658 225.198 113.681 225.198 115.283C225.198 116.884 214.213 124.092 214.213 124.092L204.384 121.689L200.915 107.275C200.915 107.275 206.697 95.2626 206.697 90.4578L227.51 98.4658Z" fill="#A0616A"/>
<path d="M250.059 134.501L238.354 181.506V181.51L232.713 204.173C232.713 204.173 232.137 230.6 231.558 233.001C230.979 235.402 232.137 236.204 232.713 237.005C233.292 237.807 232.137 240.208 231.558 240.208C231.438 240.208 231.267 240.727 231.075 241.545H175.025L179.523 175.342L179.248 172.255L174.32 116.885L202.837 102.998V103.003C202.834 103.302 202.762 114.538 211.321 118.484C219.994 122.488 225.962 109.022 225.962 109.022L250.059 134.501Z" fill="#D0CDE1"/>
<path d="M132.403 246.214C132.403 246.214 116.793 259.828 118.527 268.637C120.262 277.446 138.185 253.422 138.185 252.621C138.185 251.82 132.403 246.214 132.403 246.214Z" fill="#A0616A"/>
<path d="M236.327 58.2003C236.327 58.2003 230.453 40.5721 219.195 44.6401C207.936 48.7082 201.573 54.8102 201.083 60.9123C200.594 67.0144 201.328 76.1675 201.328 76.1675C201.328 76.1675 202.552 63.6243 210.384 66.3364C218.216 69.0484 230.453 67.0144 230.453 67.0144L232.411 91.4226C232.411 91.4226 234.614 87.0156 237.062 89.7276C239.509 92.4396 244.16 63.6243 236.327 58.2003Z" fill="#2F2E41"/>
<path d="M261.043 207.376C261.043 207.376 261.043 225.673 256.188 241.545H239.505L239.652 241.009V237.005C239.652 237.005 241.385 233.803 241.385 233.001C241.385 232.199 239.073 232.199 240.806 230.6C242.543 228.997 244.276 212.979 244.276 212.979C244.276 212.979 243.697 209.777 243.119 208.975C242.543 208.178 243.697 205.772 243.697 205.772L242.543 203.372L238.353 181.51V181.506L235.024 164.13L241.385 134.501H250.058C250.058 134.501 257.574 143.311 256.995 160.126L261.043 207.376Z" fill="#D0CDE1"/>
<path d="M184.148 114.482L174.319 116.884C174.319 116.884 168.537 124.892 166.225 134.502L161.6 163.331L154.084 184.152C154.084 184.152 145.411 196.164 139.051 223.392L129.801 247.416L139.63 255.424C139.63 255.424 166.803 211.38 170.272 196.164L185.304 156.124L184.148 114.482Z" fill="#D0CDE1"/>
<path d="M124.456 264.599C126.941 264.599 128.955 261.81 128.955 258.368C128.955 254.927 126.941 252.138 124.456 252.138C121.972 252.138 119.958 254.927 119.958 258.368C119.958 261.81 121.972 264.599 124.456 264.599Z" fill="#3F3D56"/>
<path d="M29.2217 169.319V130.306H128.547C128.499 130.09 128.454 129.878 128.406 129.662H28.7539V169.962H129.48C129.519 169.746 129.555 169.535 129.588 169.319H29.2217Z" fill="#F2F2F2"/>
<path opacity="0.1" d="M45.748 145.621H33.6436V162.387H45.748V145.621Z" fill="black"/>
<path d="M33.4111 136.915V162.71H52.0316V136.915H33.4111ZM51.5668 162.066H33.876V137.563H51.5668V162.066Z" fill="#F2F2F2"/>
<path d="M88.7689 199.799H77.9727V184.846H88.7689V199.799ZM78.5724 198.969H88.1691V185.676H78.5724V198.969Z" fill="#FF6584"/>
<path d="M65.1333 195.033L61.2764 190.136L61.6818 189.524L65.0224 193.766L72.6256 177.969L73.1246 178.43L65.1333 195.033Z" fill="#F2F2F2"/>
<path d="M68.9767 188.584V198.969H59.3801V185.676H66.8774V184.846H58.7803V199.799H69.5765V188.584H68.9767Z" fill="#F2F2F2"/>
<path d="M294.013 50.6927C292.034 50.6927 290.098 49.8796 288.452 48.3562C286.806 46.8328 285.523 44.6676 284.766 42.1342C284.008 39.6009 283.81 36.8133 284.196 34.124C284.582 31.4346 285.536 28.9643 286.936 27.0254C288.335 25.0865 290.119 23.7661 292.061 23.2311C294.002 22.6962 296.015 22.9707 297.844 24.0201C299.673 25.0694 301.236 26.8464 302.336 29.1263C303.436 31.4062 304.023 34.0867 304.023 36.8287C304.02 40.5044 302.964 44.0283 301.088 46.6274C299.211 49.2265 296.667 50.6885 294.013 50.6927ZM294.013 23.6096C292.126 23.6096 290.281 24.3849 288.711 25.8374C287.142 27.2899 285.918 29.3545 285.196 31.77C284.474 34.1855 284.285 36.8434 284.653 39.4076C285.021 41.9719 285.93 44.3273 287.265 46.1761C288.6 48.0248 290.3 49.2838 292.151 49.7939C294.003 50.3039 295.922 50.0422 297.666 49.0416C299.41 48.0411 300.9 46.3468 301.949 44.1729C302.997 41.999 303.557 39.4432 303.557 36.8287C303.554 33.324 302.548 29.964 300.759 27.4858C298.97 25.0075 296.544 23.6135 294.013 23.6096Z" fill="#F2F2F2"/>
<path d="M300.463 28.9962L300.133 28.5401L294.013 37.0177L287.892 28.5401L287.563 28.9962L293.684 37.4733L288.378 44.8223L288.707 45.2784L294.013 37.9294L299.319 45.2784L299.648 44.8223L294.342 37.4733L300.463 28.9962Z" fill="#F2F2F2"/>
<path d="M121.757 143.18H64.1768V144.011H121.757V143.18Z" fill="#F2F2F2"/>
<path d="M121.757 149.826H64.1768V150.657H121.757V149.826Z" fill="#F2F2F2"/>
<path d="M121.757 156.472H64.1768V157.303H121.757V156.472Z" fill="#F2F2F2"/>
</g>
<defs>
<clipPath id="clip0">
<rect width="323.887" height="270.576" fill="white"/>
</clipPath>
</defs>
</svg>
