<svg width="748" height="455" viewBox="0 0 748 455" fill="none" xmlns="http://www.w3.org/2000/svg">
<g clip-path="url(#clip0)">
<ellipse rx="65.1454" ry="117.816" transform="matrix(-0.932773 0.360464 -0.467447 -0.884021 268.523 208.801)" fill="#FDF7FF" fill-opacity="0.26"/>
<path d="M425.934 98.2042C372.713 -60.5681 299.762 -28.6208 288.815 207.191C285.935 269.237 346.748 321.178 421.157 323.086C495.567 324.994 556.957 276.199 558.276 214.099C559.595 152 446.056 158.232 425.934 98.2042Z" fill="#F2F2F2"/>
<path d="M505.313 111.381H311.354V198.848H505.313V111.381Z" fill="#444053"/>
<path opacity="0.4" d="M533.421 255.676C538.548 255.676 542.704 251.11 542.704 245.477C542.704 239.845 538.548 235.279 533.421 235.279C528.294 235.279 524.138 239.845 524.138 245.477C524.138 251.11 528.294 255.676 533.421 255.676Z" fill="#D75413"/>
<path d="M506.195 323.822L505.348 323.804C505.675 313.458 506.68 303.151 508.354 292.964C512.017 271.153 518.107 256.828 526.456 250.388L526.942 251.15C507.439 266.193 506.205 323.247 506.195 323.822Z" fill="#444053"/>
<path d="M516.783 323.599L515.936 323.581C515.954 322.551 516.483 298.265 525.186 291.553L525.672 292.314C517.321 298.756 516.787 323.352 516.783 323.599Z" fill="#444053"/>
<path d="M531.761 251.234C534.1 251.234 535.996 249.151 535.996 246.582C535.996 244.012 534.1 241.929 531.761 241.929C529.422 241.929 527.526 244.012 527.526 246.582C527.526 249.151 529.422 251.234 531.761 251.234Z" fill="#D75413"/>
<path d="M529.664 291.246C532.003 291.246 533.899 289.163 533.899 286.593C533.899 284.024 532.003 281.941 529.664 281.941C527.325 281.941 525.429 284.024 525.429 286.593C525.429 289.163 527.325 291.246 529.664 291.246Z" fill="#D75413"/>
<path d="M514.807 254.023C515.603 259.608 513.529 264.603 513.529 264.603C513.529 264.603 510.164 260.543 509.368 254.959C508.572 249.374 510.647 244.379 510.647 244.379C510.647 244.379 514.012 248.438 514.807 254.023Z" fill="#D75413"/>
<path d="M528.638 267.544C523.771 269.379 518.938 268.026 518.938 268.026C518.938 268.026 521.997 263.699 526.865 261.865C531.732 260.031 536.564 261.384 536.564 261.384C536.564 261.384 533.505 265.71 528.638 267.544Z" fill="#444053"/>
<path d="M528.807 303.021C526.604 303.781 524.258 303.892 522.004 303.343C523.435 301.341 525.363 299.837 527.555 299.011C529.747 298.185 532.109 298.073 534.358 298.688C532.885 300.641 530.971 302.135 528.807 303.021Z" fill="#444053"/>
<path d="M523.946 323.069H186V324H523.946V323.069Z" fill="#444053"/>
<path d="M558.25 199.313H310.931V93.2367H558.25V199.313ZM311.778 198.383H557.403V94.1672H311.778V198.383Z" fill="#444053"/>
<path d="M476.939 152.209C476.939 187.249 457.98 199.483 434.589 199.483C434.048 199.483 433.506 199.474 432.968 199.462C431.884 199.436 430.809 199.38 429.748 199.299C408.638 197.659 392.24 184.795 392.24 152.209C392.24 118.492 431.459 75.9405 434.414 72.7846C434.414 72.784 434.414 72.7835 434.414 72.783C434.414 72.7824 434.415 72.782 434.415 72.7815C434.415 72.7811 434.416 72.7808 434.416 72.7806C434.417 72.7804 434.417 72.7803 434.418 72.7803C434.531 72.6561 434.589 72.5962 434.589 72.5962C434.589 72.5962 476.939 117.173 476.939 152.209Z" fill="#D75413"/>
<path d="M433.046 194.122L448.536 170.348L433.007 196.734L432.968 199.462C431.884 199.436 430.809 199.38 429.748 199.299L431.417 164.246L431.405 163.972L431.432 163.924L431.592 160.61L416.024 134.16L431.639 158.127L431.678 158.829L432.937 132.344L419.61 105.012L433.1 127.698L434.414 72.7846L434.418 72.5962V72.7803L434.2 116.081L447.468 98.9139L434.145 119.81L433.794 143.525L446.185 120.765L433.744 147.015L433.549 160.199L451.529 128.52L433.479 164.798L433.046 194.122Z" fill="#444053"/>
<path d="M358.784 70.9048C357.695 70.9048 356.63 70.5501 355.725 69.8855C354.82 69.2209 354.114 68.2763 353.697 67.1711C353.281 66.066 353.172 64.8499 353.384 63.6766C353.597 62.5034 354.121 61.4257 354.891 60.5798C355.661 59.734 356.642 59.1579 357.71 58.9246C358.778 58.6912 359.885 58.811 360.891 59.2687C361.897 59.7265 362.756 60.5017 363.361 61.4964C363.966 62.491 364.289 63.6604 364.289 64.8566C364.288 66.4601 363.707 67.9975 362.675 69.1314C361.643 70.2653 360.243 70.903 358.784 70.9048ZM358.784 59.7389C357.862 59.7389 356.962 60.039 356.196 60.6013C355.43 61.1637 354.832 61.963 354.48 62.8981C354.127 63.8333 354.035 64.8623 354.215 65.855C354.395 66.8478 354.838 67.7596 355.49 68.4754C356.141 69.1911 356.971 69.6785 357.875 69.876C358.779 70.0735 359.715 69.9721 360.566 69.5848C361.418 69.1974 362.145 68.5415 362.657 67.6998C363.169 66.8582 363.442 65.8688 363.442 64.8566C363.441 63.4998 362.949 62.1989 362.076 61.2395C361.203 60.2801 360.019 59.7404 358.784 59.7389Z" fill="#444053"/>
<path d="M464.657 228.159C466.529 228.159 468.045 226.492 468.045 224.437C468.045 222.381 466.529 220.715 464.657 220.715C462.786 220.715 461.27 222.381 461.27 224.437C461.27 226.492 462.786 228.159 464.657 228.159Z" fill="#444053"/>
<path d="M227.079 118.825C228.95 118.825 230.467 117.159 230.467 115.103C230.467 113.048 228.95 111.381 227.079 111.381C225.208 111.381 223.691 113.048 223.691 115.103C223.691 117.159 225.208 118.825 227.079 118.825Z" fill="#444053"/>
<path d="M406.639 241.186H395.628V229.089H406.639V241.186ZM396.475 240.255H405.792V230.02H396.475V240.255Z" fill="#444053"/>
<path d="M557.825 116.964C569.519 116.964 579 106.549 579 93.702C579 80.8545 569.519 70.4396 557.825 70.4396C546.131 70.4396 536.65 80.8545 536.65 93.702C536.65 106.549 546.131 116.964 557.825 116.964Z" fill="#D75413"/>
<path d="M554.174 104.112L545.065 94.1058L547.62 91.2989L554.182 98.5079L568.032 83.292L570.587 86.0988L554.174 104.112Z" fill="white"/>
<path d="M243.171 247.234C236.302 247.234 229.588 249.471 223.878 253.664C218.167 257.856 213.716 263.814 211.088 270.785C208.459 277.756 207.772 285.427 209.112 292.827C210.452 300.228 213.759 307.025 218.615 312.361C223.472 317.696 229.66 321.33 236.396 322.802C243.132 324.274 250.114 323.518 256.46 320.631C262.805 317.743 268.229 312.853 272.044 306.58C275.86 300.306 277.897 292.93 277.897 285.384C277.897 275.266 274.238 265.563 267.726 258.408C261.213 251.253 252.381 247.234 243.171 247.234ZM245.288 288.641C243.948 288.641 242.638 288.204 241.524 287.387C240.409 286.569 239.541 285.406 239.028 284.046C238.515 282.686 238.381 281.189 238.642 279.745C238.904 278.301 239.549 276.974 240.497 275.933C241.444 274.892 242.652 274.183 243.966 273.896C245.281 273.609 246.643 273.756 247.881 274.32C249.119 274.883 250.177 275.837 250.922 277.061C251.667 278.286 252.064 279.725 252.064 281.197C252.064 283.171 251.35 285.065 250.079 286.461C248.809 287.857 247.085 288.641 245.288 288.641Z" fill="#F2F2F2"/>
<path d="M279.986 220.154C279.22 221.07 265.128 235.8 265.128 235.8C265.128 235.8 266.528 246.081 281.606 247.357L306.737 249.483C306.737 249.483 311.487 268.634 317.134 274.753C322.782 280.873 320.19 281.215 322.309 284.198C324.429 287.18 321.454 287.98 324.671 288.27C327.889 288.559 334.536 284.286 334.608 280.98C334.681 277.675 332.804 275.782 331.97 274.94C331.136 274.098 329.02 266.052 327.752 264.35C326.484 262.649 321.683 242.18 321.683 242.18C321.683 242.18 316.89 232.278 310.247 231.488C303.604 230.698 296.213 227.148 296.213 227.148" fill="#031F73"/>
<path opacity="0.1" d="M279.986 220.154C279.22 221.07 265.128 235.8 265.128 235.8C265.128 235.8 266.528 246.081 281.606 247.357L306.737 249.483C306.737 249.483 311.487 268.634 317.134 274.753C322.782 280.873 320.19 281.215 322.309 284.198C324.429 287.18 321.454 287.98 324.671 288.27C327.889 288.559 334.536 284.286 334.608 280.98C334.681 277.675 332.804 275.782 331.97 274.94C331.136 274.098 329.02 266.052 327.752 264.35C326.484 262.649 321.683 242.18 321.683 242.18C321.683 242.18 316.89 232.278 310.247 231.488C303.604 230.698 296.213 227.148 296.213 227.148" fill="black"/>
<path d="M304.362 160.756C304.362 160.756 309.651 144.969 313.271 149.999C316.891 155.029 307.446 163.29 307.446 163.29L304.362 160.756Z" fill="#A0616A"/>
<path d="M276.503 168.997L279.514 167.597C279.514 167.597 284.981 173.899 287.152 175.071C289.323 176.244 295.253 179.081 296.042 179.547C296.83 180.014 305.757 162.663 303.622 160.172C303.622 160.172 307.617 161.755 309.437 161.155C309.437 161.155 304.896 185.342 304.205 188.62C303.514 191.898 301.901 192.284 298.893 192.404C295.885 192.525 277.62 186.637 277.62 186.637L276.503 168.997Z" fill="#575A89"/>
<path d="M322.963 286.198C322.963 286.198 323.893 289.478 323.479 290.003C323.064 290.529 321.85 299.499 326.838 298.911C331.827 298.324 334.226 296.559 335.489 296.657C336.752 296.756 355.495 289.571 354.564 286.291C353.634 283.011 344.262 286.604 344.262 286.604C344.262 286.604 333.616 284.379 331.116 281.813C328.616 279.248 322.963 286.198 322.963 286.198Z" fill="#031F73"/>
<path opacity="0.1" d="M322.963 286.198C322.963 286.198 323.893 289.478 323.479 290.003C323.064 290.529 321.85 299.499 326.838 298.911C331.827 298.324 334.226 296.559 335.489 296.657C336.752 296.756 355.495 289.571 354.564 286.291C353.634 283.011 344.262 286.604 344.262 286.604C344.262 286.604 333.616 284.379 331.116 281.813C328.616 279.248 322.963 286.198 322.963 286.198Z" fill="black"/>
<path d="M313.406 291.024C313.406 291.024 316.415 305.427 318.622 305.28C320.83 305.133 336.412 296.802 338.329 295.152C340.791 293.033 340.694 289.289 337.868 290.076C335.042 290.862 327.05 290.157 325.692 288.572L322.198 284.495L313.406 291.024Z" fill="#031F73"/>
<path d="M282.559 211.006C281.735 211.859 256.656 235.231 256.656 235.231C256.656 235.231 258.709 250.34 273.663 252.817C288.617 255.294 297.249 252.201 297.249 252.201C297.249 252.201 300.72 271.68 305.947 278.234C311.175 284.789 308.568 284.923 310.484 288.067C312.4 291.211 309.381 291.771 312.57 292.317C315.76 292.863 322.673 289.131 322.963 285.84C323.254 282.55 321.508 280.511 320.731 279.605C319.955 278.699 318.378 270.505 317.225 268.707C316.073 266.908 312.639 246.11 312.639 246.11C312.639 246.11 308.515 235.852 301.941 234.533C295.368 233.215 288.231 229.084 288.231 229.084" fill="#031F73"/>
<path d="M259.474 160.372C266.042 160.372 271.366 154.523 271.366 147.308C271.366 140.093 266.042 134.244 259.474 134.244C252.907 134.244 247.583 140.093 247.583 147.308C247.583 154.523 252.907 160.372 259.474 160.372Z" fill="#A0616A"/>
<path d="M253.242 155.462C253.242 155.462 255.025 163.443 252.309 167.534C249.593 171.624 270.477 169.677 270.477 169.677C270.477 169.677 264.824 156.727 266.91 153.716C268.996 150.704 253.242 155.462 253.242 155.462Z" fill="#A0616A"/>
<path d="M279.936 168.011C282.459 170.955 281.6 187.649 281.6 187.649L279.988 202.559C279.988 202.559 281.916 205.263 281.286 206.343C280.655 207.422 279.625 208.488 281.614 208.994C283.603 209.5 288.187 210.312 286.72 212.684C286.24 213.356 285.727 213.998 285.183 214.607C284.715 215.15 284.159 215.781 283.529 216.484C282.054 218.12 280.178 220.133 278.096 222.256C277.507 222.861 276.903 223.472 276.283 224.088C268.343 231.979 258.469 240.332 256.426 236.323C253.006 229.608 250.629 228.649 250.786 222.934C250.943 217.218 246.539 202.549 246.539 202.549C246.539 202.549 241.419 177.514 248.635 170.052L249.763 168.07C250.287 167.148 251.061 166.431 251.976 166.019C252.892 165.608 253.902 165.523 254.863 165.777C258.385 166.701 263.784 167.978 266.123 167.772C269.737 167.452 268.945 165.819 268.945 165.819C268.945 165.819 277.414 165.066 279.936 168.011Z" fill="#575A89"/>
<path d="M291.086 221.411C291.086 221.411 305.798 225.42 303.639 231.069C301.481 236.718 288.746 226.394 288.746 226.394L291.086 221.411Z" fill="#A0616A"/>
<path d="M252.894 152.087C253.187 151.697 252.897 151.128 252.642 150.707C251.277 148.455 251.016 145.25 252.518 143.105C253.11 142.306 253.851 141.655 254.69 141.196C255.869 140.51 257.155 140.076 258.481 139.918C259.186 139.906 259.884 139.755 260.54 139.472C260.955 139.241 262.912 138.488 263.332 138.269C264.255 137.786 265.54 137.995 266.132 137.079C266.698 136.202 266.169 135.001 265.619 134.113C264.366 132.088 261.199 130.41 259.023 129.878C257.372 129.475 255.649 130.042 254.12 130.834C252.356 131.795 250.683 132.945 249.125 134.267C246.985 136.009 244.877 137.939 243.591 140.502C242.306 143.065 241.996 146.402 243.448 148.855C243.751 149.366 244.121 149.828 244.404 150.352C245.095 151.63 245.219 153.177 245.707 154.563C246.071 155.577 246.623 156.496 247.33 157.26C248.036 158.025 248.88 158.618 249.808 159.002C251.295 159.606 253.124 159.773 254.003 161.223L254.413 158.2C254.52 157.818 254.505 157.408 254.37 157.038C254.234 156.668 253.988 156.36 253.671 156.165L251.565 154.216C251.145 153.902 250.826 153.45 250.654 152.926C250.198 150.838 252.406 152.737 252.894 152.087Z" fill="#031F73"/>
<path opacity="0.1" d="M273.984 209.621L283.527 216.484C281.635 218.586 279.078 221.307 276.282 224.088C273.633 222.521 270.932 220.825 268.515 219.121C259.673 212.887 252.092 197.232 248.696 189.638C245.299 182.044 248.064 176.195 248.064 176.195C250.314 175.1 252.695 174.363 255.134 174.009C259.561 173.275 273.984 209.621 273.984 209.621Z" fill="black"/>
<path opacity="0.1" d="M275.246 207.462L285.182 214.607C284.715 215.15 284.159 215.781 283.528 216.484C282.053 218.12 280.177 220.133 278.096 222.256C275.273 220.6 272.361 218.785 269.777 216.963C260.935 210.728 253.354 195.074 249.958 187.479C246.561 179.885 255.7 182.609 255.7 182.609C255.7 182.609 250.958 180.251 255.384 179.518C259.811 178.785 275.246 207.462 275.246 207.462Z" fill="black"/>
<path d="M248.501 174.889C248.501 174.889 245.737 180.738 249.133 188.332C252.53 195.926 260.111 211.581 268.953 217.815C277.794 224.05 290.444 230.191 290.444 230.191C290.444 230.191 291.644 222.969 293.669 222.156L274.421 208.315C274.421 208.315 259.998 171.97 255.572 172.703C253.132 173.058 250.751 173.794 248.501 174.889Z" fill="#575A89"/>
<path d="M245.288 324C237.583 324 230.05 321.49 223.643 316.786C217.236 312.083 212.242 305.398 209.293 297.577C206.344 289.756 205.572 281.15 207.076 272.847C208.579 264.544 212.29 256.917 217.739 250.931C223.187 244.945 230.13 240.868 237.687 239.217C245.245 237.565 253.079 238.413 260.198 241.652C267.317 244.892 273.402 250.378 277.683 257.417C281.965 264.456 284.25 272.731 284.25 281.197C284.238 292.545 280.129 303.425 272.825 311.449C265.521 319.473 255.618 323.987 245.288 324ZM245.288 239.325C237.75 239.325 230.381 241.78 224.113 246.381C217.845 250.982 212.96 257.522 210.075 265.173C207.191 272.824 206.436 281.243 207.907 289.366C209.377 297.488 213.007 304.949 218.338 310.805C223.668 316.661 230.459 320.649 237.853 322.265C245.246 323.88 252.91 323.051 259.874 319.882C266.838 316.713 272.791 311.346 276.979 304.46C281.167 297.574 283.403 289.479 283.403 281.197C283.391 270.096 279.372 259.453 272.227 251.603C265.081 243.753 255.393 239.337 245.288 239.325Z" fill="#444053"/>
<path d="M245.289 289.106C243.865 289.106 242.473 288.642 241.289 287.773C240.106 286.904 239.183 285.669 238.638 284.224C238.093 282.779 237.95 281.188 238.228 279.654C238.506 278.12 239.192 276.711 240.198 275.604C241.205 274.498 242.488 273.745 243.885 273.44C245.281 273.135 246.729 273.291 248.044 273.89C249.36 274.489 250.484 275.502 251.275 276.803C252.066 278.104 252.489 279.633 252.489 281.197C252.486 283.294 251.727 285.304 250.378 286.787C249.028 288.27 247.198 289.104 245.289 289.106ZM245.289 274.218C244.033 274.218 242.805 274.628 241.76 275.394C240.715 276.161 239.901 277.251 239.42 278.526C238.94 279.802 238.814 281.205 239.059 282.559C239.304 283.912 239.909 285.156 240.797 286.132C241.686 287.108 242.818 287.772 244.05 288.042C245.282 288.311 246.559 288.173 247.72 287.645C248.881 287.116 249.873 286.222 250.571 285.074C251.269 283.927 251.642 282.577 251.642 281.197C251.64 279.347 250.97 277.573 249.779 276.265C248.588 274.956 246.973 274.22 245.289 274.218Z" fill="#444053"/>
<path d="M244.442 238.859H243.595V190.939H221.573V190.008H244.442V238.859Z" fill="#444053"/>
<path d="M294.838 254.213H275.978V255.143H294.838V254.213Z" fill="#444053"/>
<path d="M286.367 222.11H243.171V223.041H286.367V222.11Z" fill="#444053"/>
<path d="M317.071 309.26L294.451 254.871L295.222 254.484L317.492 308.033L337.859 297.987L338.206 298.836L317.071 309.26Z" fill="#444053"/>
<path d="M223.691 192.335C230.24 192.335 235.549 191.501 235.549 190.474C235.549 189.446 230.24 188.613 223.691 188.613C217.142 188.613 211.833 189.446 211.833 190.474C211.833 191.501 217.142 192.335 223.691 192.335Z" fill="#444053"/>
</g>
<path d="M2.15 393V375.675H12.725V377.75H4.575V382.9H11.825V384.925H4.575V390.925H13.35V393H2.15ZM16.2822 380.375C16.8156 380.242 17.5239 380.1 18.4072 379.95C19.2906 379.8 20.3072 379.725 21.4572 379.725C22.4906 379.725 23.3489 379.875 24.0322 380.175C24.7156 380.458 25.2572 380.867 25.6572 381.4C26.0739 381.917 26.3656 382.542 26.5322 383.275C26.6989 384.008 26.7822 384.817 26.7822 385.7V393H24.4572V386.2C24.4572 385.4 24.3989 384.717 24.2822 384.15C24.1822 383.583 24.0072 383.125 23.7572 382.775C23.5072 382.425 23.1739 382.175 22.7572 382.025C22.3406 381.858 21.8239 381.775 21.2072 381.775C20.9572 381.775 20.6989 381.783 20.4322 381.8C20.1656 381.817 19.9072 381.842 19.6572 381.875C19.4239 381.892 19.2072 381.917 19.0072 381.95C18.8239 381.983 18.6906 382.008 18.6072 382.025V393H16.2822V380.375ZM36.2877 393.3C35.2377 393.3 34.3127 393.133 33.5127 392.8C32.7294 392.467 32.0627 392 31.5127 391.4C30.9794 390.8 30.5794 390.092 30.3127 389.275C30.046 388.442 29.9127 387.525 29.9127 386.525C29.9127 385.525 30.0544 384.608 30.3377 383.775C30.6377 382.942 31.0544 382.225 31.5877 381.625C32.121 381.008 32.771 380.533 33.5377 380.2C34.321 379.85 35.1877 379.675 36.1377 379.675C36.721 379.675 37.3044 379.725 37.8877 379.825C38.471 379.925 39.0294 380.083 39.5627 380.3L39.0377 382.275C38.6877 382.108 38.2794 381.975 37.8127 381.875C37.3627 381.775 36.8794 381.725 36.3627 381.725C35.0627 381.725 34.0627 382.133 33.3627 382.95C32.6794 383.767 32.3377 384.958 32.3377 386.525C32.3377 387.225 32.4127 387.867 32.5627 388.45C32.7294 389.033 32.9794 389.533 33.3127 389.95C33.6627 390.367 34.1044 390.692 34.6377 390.925C35.171 391.142 35.821 391.25 36.5877 391.25C37.2044 391.25 37.7627 391.192 38.2627 391.075C38.7627 390.958 39.1544 390.833 39.4377 390.7L39.7627 392.65C39.6294 392.733 39.4377 392.817 39.1877 392.9C38.9377 392.967 38.6544 393.025 38.3377 393.075C38.021 393.142 37.6794 393.192 37.3127 393.225C36.9627 393.275 36.621 393.3 36.2877 393.3ZM53.4164 386.5C53.4164 387.533 53.2664 388.467 52.9664 389.3C52.6664 390.133 52.2414 390.85 51.6914 391.45C51.1581 392.05 50.5164 392.517 49.7664 392.85C49.0164 393.167 48.1997 393.325 47.3164 393.325C46.4331 393.325 45.6164 393.167 44.8664 392.85C44.1164 392.517 43.4664 392.05 42.9164 391.45C42.3831 390.85 41.9664 390.133 41.6664 389.3C41.3664 388.467 41.2164 387.533 41.2164 386.5C41.2164 385.483 41.3664 384.558 41.6664 383.725C41.9664 382.875 42.3831 382.15 42.9164 381.55C43.4664 380.95 44.1164 380.492 44.8664 380.175C45.6164 379.842 46.4331 379.675 47.3164 379.675C48.1997 379.675 49.0164 379.842 49.7664 380.175C50.5164 380.492 51.1581 380.95 51.6914 381.55C52.2414 382.15 52.6664 382.875 52.9664 383.725C53.2664 384.558 53.4164 385.483 53.4164 386.5ZM50.9914 386.5C50.9914 385.033 50.6581 383.875 49.9914 383.025C49.3414 382.158 48.4497 381.725 47.3164 381.725C46.1831 381.725 45.2831 382.158 44.6164 383.025C43.9664 383.875 43.6414 385.033 43.6414 386.5C43.6414 387.967 43.9664 389.133 44.6164 390C45.2831 390.85 46.1831 391.275 47.3164 391.275C48.4497 391.275 49.3414 390.85 49.9914 390C50.6581 389.133 50.9914 387.967 50.9914 386.5ZM56.6875 380.375C57.2208 380.242 57.9292 380.1 58.8125 379.95C59.6958 379.8 60.7125 379.725 61.8625 379.725C62.8958 379.725 63.7542 379.875 64.4375 380.175C65.1208 380.458 65.6625 380.867 66.0625 381.4C66.4792 381.917 66.7708 382.542 66.9375 383.275C67.1042 384.008 67.1875 384.817 67.1875 385.7V393H64.8625V386.2C64.8625 385.4 64.8042 384.717 64.6875 384.15C64.5875 383.583 64.4125 383.125 64.1625 382.775C63.9125 382.425 63.5792 382.175 63.1625 382.025C62.7458 381.858 62.2292 381.775 61.6125 381.775C61.3625 381.775 61.1042 381.783 60.8375 381.8C60.5708 381.817 60.3125 381.842 60.0625 381.875C59.8292 381.892 59.6125 381.917 59.4125 381.95C59.2292 381.983 59.0958 382.008 59.0125 382.025V393H56.6875V380.375ZM73.218 380H78.143V381.95H73.218V387.95C73.218 388.6 73.268 389.142 73.368 389.575C73.468 389.992 73.618 390.325 73.818 390.575C74.018 390.808 74.268 390.975 74.568 391.075C74.868 391.175 75.218 391.225 75.618 391.225C76.318 391.225 76.8763 391.15 77.293 391C77.7263 390.833 78.0263 390.717 78.193 390.65L78.643 392.575C78.4096 392.692 78.0013 392.833 77.418 393C76.8346 393.183 76.168 393.275 75.418 393.275C74.5346 393.275 73.8013 393.167 73.218 392.95C72.6513 392.717 72.193 392.375 71.843 391.925C71.493 391.475 71.243 390.925 71.093 390.275C70.9596 389.608 70.893 388.842 70.893 387.975V376.375L73.218 375.975V380ZM85.9016 379.725C86.1016 379.725 86.3266 379.742 86.5766 379.775C86.8432 379.792 87.1016 379.825 87.3516 379.875C87.6016 379.908 87.8266 379.95 88.0266 380C88.2432 380.033 88.4016 380.067 88.5016 380.1L88.1016 382.125C87.9182 382.058 87.6099 381.983 87.1766 381.9C86.7599 381.8 86.2182 381.75 85.5516 381.75C85.1182 381.75 84.6849 381.8 84.2516 381.9C83.8349 381.983 83.5599 382.042 83.4266 382.075V393H81.1016V380.55C81.6516 380.35 82.3349 380.167 83.1516 380C83.9682 379.817 84.8849 379.725 85.9016 379.725ZM90.0201 386.525C90.0201 385.375 90.1868 384.375 90.5201 383.525C90.8535 382.658 91.2951 381.942 91.8451 381.375C92.3951 380.808 93.0285 380.383 93.7451 380.1C94.4618 379.817 95.1951 379.675 95.9451 379.675C97.6951 379.675 99.0368 380.225 99.9701 381.325C100.903 382.408 101.37 384.067 101.37 386.3C101.37 386.4 101.37 386.533 101.37 386.7C101.37 386.85 101.362 386.992 101.345 387.125H92.4451C92.5451 388.475 92.9368 389.5 93.6201 390.2C94.3035 390.9 95.3701 391.25 96.8201 391.25C97.6368 391.25 98.3201 391.183 98.8701 391.05C99.4368 390.9 99.8618 390.758 100.145 390.625L100.47 392.575C100.187 392.725 99.6868 392.883 98.9701 393.05C98.2701 393.217 97.4701 393.3 96.5701 393.3C95.4368 393.3 94.4535 393.133 93.6201 392.8C92.8035 392.45 92.1285 391.975 91.5951 391.375C91.0618 390.775 90.6618 390.067 90.3951 389.25C90.1451 388.417 90.0201 387.508 90.0201 386.525ZM98.9451 385.25C98.9618 384.2 98.6951 383.342 98.1451 382.675C97.6118 381.992 96.8701 381.65 95.9201 381.65C95.3868 381.65 94.9118 381.758 94.4951 381.975C94.0951 382.175 93.7535 382.442 93.4701 382.775C93.1868 383.108 92.9618 383.492 92.7951 383.925C92.6451 384.358 92.5451 384.8 92.4951 385.25H98.9451ZM121.971 386.5C121.971 387.533 121.821 388.467 121.521 389.3C121.221 390.133 120.796 390.85 120.246 391.45C119.713 392.05 119.071 392.517 118.321 392.85C117.571 393.167 116.754 393.325 115.871 393.325C114.988 393.325 114.171 393.167 113.421 392.85C112.671 392.517 112.021 392.05 111.471 391.45C110.938 390.85 110.521 390.133 110.221 389.3C109.921 388.467 109.771 387.533 109.771 386.5C109.771 385.483 109.921 384.558 110.221 383.725C110.521 382.875 110.938 382.15 111.471 381.55C112.021 380.95 112.671 380.492 113.421 380.175C114.171 379.842 114.988 379.675 115.871 379.675C116.754 379.675 117.571 379.842 118.321 380.175C119.071 380.492 119.713 380.95 120.246 381.55C120.796 382.15 121.221 382.875 121.521 383.725C121.821 384.558 121.971 385.483 121.971 386.5ZM119.546 386.5C119.546 385.033 119.213 383.875 118.546 383.025C117.896 382.158 117.004 381.725 115.871 381.725C114.738 381.725 113.838 382.158 113.171 383.025C112.521 383.875 112.196 385.033 112.196 386.5C112.196 387.967 112.521 389.133 113.171 390C113.838 390.85 114.738 391.275 115.871 391.275C117.004 391.275 117.896 390.85 118.546 390C119.213 389.133 119.546 387.967 119.546 386.5ZM140.053 386.525C140.053 385.008 139.678 383.842 138.928 383.025C138.178 382.208 137.178 381.8 135.928 381.8C135.228 381.8 134.678 381.825 134.278 381.875C133.895 381.925 133.587 381.983 133.353 382.05V390.25C133.637 390.483 134.045 390.708 134.578 390.925C135.112 391.142 135.695 391.25 136.328 391.25C136.995 391.25 137.562 391.133 138.028 390.9C138.512 390.65 138.903 390.317 139.203 389.9C139.503 389.467 139.72 388.967 139.853 388.4C139.987 387.817 140.053 387.192 140.053 386.525ZM142.478 386.525C142.478 387.508 142.345 388.417 142.078 389.25C141.828 390.083 141.453 390.8 140.953 391.4C140.453 392 139.837 392.467 139.103 392.8C138.387 393.133 137.562 393.3 136.628 393.3C135.878 393.3 135.212 393.2 134.628 393C134.062 392.8 133.637 392.608 133.353 392.425V397.625H131.028V380.4C131.578 380.267 132.262 380.125 133.078 379.975C133.912 379.808 134.87 379.725 135.953 379.725C136.953 379.725 137.853 379.883 138.653 380.2C139.453 380.517 140.137 380.967 140.703 381.55C141.27 382.133 141.703 382.85 142.003 383.7C142.32 384.533 142.478 385.475 142.478 386.525ZM150.55 379.725C150.75 379.725 150.975 379.742 151.225 379.775C151.492 379.792 151.75 379.825 152 379.875C152.25 379.908 152.475 379.95 152.675 380C152.892 380.033 153.05 380.067 153.15 380.1L152.75 382.125C152.567 382.058 152.258 381.983 151.825 381.9C151.408 381.8 150.867 381.75 150.2 381.75C149.767 381.75 149.333 381.8 148.9 381.9C148.483 381.983 148.208 382.042 148.075 382.075V393H145.75V380.55C146.3 380.35 146.983 380.167 147.8 380C148.617 379.817 149.533 379.725 150.55 379.725ZM166.869 386.5C166.869 387.533 166.719 388.467 166.419 389.3C166.119 390.133 165.694 390.85 165.144 391.45C164.61 392.05 163.969 392.517 163.219 392.85C162.469 393.167 161.652 393.325 160.769 393.325C159.885 393.325 159.069 393.167 158.319 392.85C157.569 392.517 156.919 392.05 156.369 391.45C155.835 390.85 155.419 390.133 155.119 389.3C154.819 388.467 154.669 387.533 154.669 386.5C154.669 385.483 154.819 384.558 155.119 383.725C155.419 382.875 155.835 382.15 156.369 381.55C156.919 380.95 157.569 380.492 158.319 380.175C159.069 379.842 159.885 379.675 160.769 379.675C161.652 379.675 162.469 379.842 163.219 380.175C163.969 380.492 164.61 380.95 165.144 381.55C165.694 382.15 166.119 382.875 166.419 383.725C166.719 384.558 166.869 385.483 166.869 386.5ZM164.444 386.5C164.444 385.033 164.11 383.875 163.444 383.025C162.794 382.158 161.902 381.725 160.769 381.725C159.635 381.725 158.735 382.158 158.069 383.025C157.419 383.875 157.094 385.033 157.094 386.5C157.094 387.967 157.419 389.133 158.069 390C158.735 390.85 159.635 391.275 160.769 391.275C161.902 391.275 162.794 390.85 163.444 390C164.11 389.133 164.444 387.967 164.444 386.5ZM175.215 373.6C175.798 373.6 176.298 373.642 176.715 373.725C177.131 373.792 177.431 373.858 177.615 373.925L177.29 375.925C177.106 375.858 176.856 375.792 176.54 375.725C176.223 375.642 175.84 375.6 175.39 375.6C174.306 375.6 173.548 375.9 173.115 376.5C172.681 377.083 172.465 377.875 172.465 378.875V380H177.465V381.95H172.465V393H170.14V378.825C170.14 377.158 170.548 375.875 171.365 374.975C172.181 374.058 173.465 373.6 175.215 373.6ZM182.215 393H179.89V380H182.215V393ZM181.04 377.65C180.623 377.65 180.265 377.517 179.965 377.25C179.681 376.967 179.54 376.592 179.54 376.125C179.54 375.658 179.681 375.292 179.965 375.025C180.265 374.742 180.623 374.6 181.04 374.6C181.456 374.6 181.806 374.742 182.09 375.025C182.39 375.292 182.54 375.658 182.54 376.125C182.54 376.592 182.39 376.967 182.09 377.25C181.806 377.517 181.456 377.65 181.04 377.65ZM189.229 391.325C190.179 391.325 190.879 391.2 191.329 390.95C191.796 390.7 192.029 390.3 192.029 389.75C192.029 389.183 191.804 388.733 191.354 388.4C190.904 388.067 190.162 387.692 189.129 387.275C188.629 387.075 188.146 386.875 187.679 386.675C187.229 386.458 186.837 386.208 186.504 385.925C186.171 385.642 185.904 385.3 185.704 384.9C185.504 384.5 185.404 384.008 185.404 383.425C185.404 382.275 185.829 381.367 186.679 380.7C187.529 380.017 188.687 379.675 190.154 379.675C190.521 379.675 190.887 379.7 191.254 379.75C191.621 379.783 191.962 379.833 192.279 379.9C192.596 379.95 192.871 380.008 193.104 380.075C193.354 380.142 193.546 380.2 193.679 380.25L193.254 382.25C193.004 382.117 192.612 381.983 192.079 381.85C191.546 381.7 190.904 381.625 190.154 381.625C189.504 381.625 188.937 381.758 188.454 382.025C187.971 382.275 187.729 382.675 187.729 383.225C187.729 383.508 187.779 383.758 187.879 383.975C187.996 384.192 188.162 384.392 188.379 384.575C188.612 384.742 188.896 384.9 189.229 385.05C189.562 385.2 189.962 385.358 190.429 385.525C191.046 385.758 191.596 385.992 192.079 386.225C192.562 386.442 192.971 386.7 193.304 387C193.654 387.3 193.921 387.667 194.104 388.1C194.287 388.517 194.379 389.033 194.379 389.65C194.379 390.85 193.929 391.758 193.029 392.375C192.146 392.992 190.879 393.3 189.229 393.3C188.079 393.3 187.179 393.2 186.529 393C185.879 392.817 185.437 392.675 185.204 392.575L185.629 390.575C185.896 390.675 186.321 390.825 186.904 391.025C187.487 391.225 188.262 391.325 189.229 391.325ZM200.386 391.325C201.336 391.325 202.036 391.2 202.486 390.95C202.953 390.7 203.186 390.3 203.186 389.75C203.186 389.183 202.961 388.733 202.511 388.4C202.061 388.067 201.32 387.692 200.286 387.275C199.786 387.075 199.303 386.875 198.836 386.675C198.386 386.458 197.995 386.208 197.661 385.925C197.328 385.642 197.061 385.3 196.861 384.9C196.661 384.5 196.561 384.008 196.561 383.425C196.561 382.275 196.986 381.367 197.836 380.7C198.686 380.017 199.845 379.675 201.311 379.675C201.678 379.675 202.045 379.7 202.411 379.75C202.778 379.783 203.12 379.833 203.436 379.9C203.753 379.95 204.028 380.008 204.261 380.075C204.511 380.142 204.703 380.2 204.836 380.25L204.411 382.25C204.161 382.117 203.77 381.983 203.236 381.85C202.703 381.7 202.061 381.625 201.311 381.625C200.661 381.625 200.095 381.758 199.611 382.025C199.128 382.275 198.886 382.675 198.886 383.225C198.886 383.508 198.936 383.758 199.036 383.975C199.153 384.192 199.32 384.392 199.536 384.575C199.77 384.742 200.053 384.9 200.386 385.05C200.72 385.2 201.12 385.358 201.586 385.525C202.203 385.758 202.753 385.992 203.236 386.225C203.72 386.442 204.128 386.7 204.461 387C204.811 387.3 205.078 387.667 205.261 388.1C205.445 388.517 205.536 389.033 205.536 389.65C205.536 390.85 205.086 391.758 204.186 392.375C203.303 392.992 202.036 393.3 200.386 393.3C199.236 393.3 198.336 393.2 197.686 393C197.036 392.817 196.595 392.675 196.361 392.575L196.786 390.575C197.053 390.675 197.478 390.825 198.061 391.025C198.645 391.225 199.42 391.325 200.386 391.325ZM210.844 393H208.519V380H210.844V393ZM209.669 377.65C209.252 377.65 208.894 377.517 208.594 377.25C208.31 376.967 208.169 376.592 208.169 376.125C208.169 375.658 208.31 375.292 208.594 375.025C208.894 374.742 209.252 374.6 209.669 374.6C210.085 374.6 210.435 374.742 210.719 375.025C211.019 375.292 211.169 375.658 211.169 376.125C211.169 376.592 211.019 376.967 210.719 377.25C210.435 377.517 210.085 377.65 209.669 377.65ZM226.317 386.5C226.317 387.533 226.167 388.467 225.867 389.3C225.567 390.133 225.142 390.85 224.592 391.45C224.058 392.05 223.417 392.517 222.667 392.85C221.917 393.167 221.1 393.325 220.217 393.325C219.333 393.325 218.517 393.167 217.767 392.85C217.017 392.517 216.367 392.05 215.817 391.45C215.283 390.85 214.867 390.133 214.567 389.3C214.267 388.467 214.117 387.533 214.117 386.5C214.117 385.483 214.267 384.558 214.567 383.725C214.867 382.875 215.283 382.15 215.817 381.55C216.367 380.95 217.017 380.492 217.767 380.175C218.517 379.842 219.333 379.675 220.217 379.675C221.1 379.675 221.917 379.842 222.667 380.175C223.417 380.492 224.058 380.95 224.592 381.55C225.142 382.15 225.567 382.875 225.867 383.725C226.167 384.558 226.317 385.483 226.317 386.5ZM223.892 386.5C223.892 385.033 223.558 383.875 222.892 383.025C222.242 382.158 221.35 381.725 220.217 381.725C219.083 381.725 218.183 382.158 217.517 383.025C216.867 383.875 216.542 385.033 216.542 386.5C216.542 387.967 216.867 389.133 217.517 390C218.183 390.85 219.083 391.275 220.217 391.275C221.35 391.275 222.242 390.85 222.892 390C223.558 389.133 223.892 387.967 223.892 386.5ZM229.588 380.375C230.121 380.242 230.83 380.1 231.713 379.95C232.596 379.8 233.613 379.725 234.763 379.725C235.796 379.725 236.655 379.875 237.338 380.175C238.021 380.458 238.563 380.867 238.963 381.4C239.38 381.917 239.671 382.542 239.838 383.275C240.005 384.008 240.088 384.817 240.088 385.7V393H237.763V386.2C237.763 385.4 237.705 384.717 237.588 384.15C237.488 383.583 237.313 383.125 237.063 382.775C236.813 382.425 236.48 382.175 236.063 382.025C235.646 381.858 235.13 381.775 234.513 381.775C234.263 381.775 234.005 381.783 233.738 381.8C233.471 381.817 233.213 381.842 232.963 381.875C232.73 381.892 232.513 381.917 232.313 381.95C232.13 381.983 231.996 382.008 231.913 382.025V393H229.588V380.375ZM248.343 391.325C248.893 391.325 249.377 391.317 249.793 391.3C250.227 391.267 250.585 391.217 250.868 391.15V387.275C250.702 387.192 250.427 387.125 250.043 387.075C249.677 387.008 249.227 386.975 248.693 386.975C248.343 386.975 247.968 387 247.568 387.05C247.185 387.1 246.827 387.208 246.493 387.375C246.177 387.525 245.91 387.742 245.693 388.025C245.477 388.292 245.368 388.65 245.368 389.1C245.368 389.933 245.635 390.517 246.168 390.85C246.702 391.167 247.427 391.325 248.343 391.325ZM248.143 379.675C249.077 379.675 249.86 379.8 250.493 380.05C251.143 380.283 251.66 380.625 252.043 381.075C252.443 381.508 252.727 382.033 252.893 382.65C253.06 383.25 253.143 383.917 253.143 384.65V392.775C252.943 392.808 252.66 392.858 252.293 392.925C251.943 392.975 251.543 393.025 251.093 393.075C250.643 393.125 250.152 393.167 249.618 393.2C249.102 393.25 248.585 393.275 248.068 393.275C247.335 393.275 246.66 393.2 246.043 393.05C245.427 392.9 244.893 392.667 244.443 392.35C243.993 392.017 243.643 391.583 243.393 391.05C243.143 390.517 243.018 389.875 243.018 389.125C243.018 388.408 243.16 387.792 243.443 387.275C243.743 386.758 244.143 386.342 244.643 386.025C245.143 385.708 245.727 385.475 246.393 385.325C247.06 385.175 247.76 385.1 248.493 385.1C248.727 385.1 248.968 385.117 249.218 385.15C249.468 385.167 249.702 385.2 249.918 385.25C250.152 385.283 250.352 385.317 250.518 385.35C250.685 385.383 250.802 385.408 250.868 385.425V384.775C250.868 384.392 250.827 384.017 250.743 383.65C250.66 383.267 250.51 382.933 250.293 382.65C250.077 382.35 249.777 382.117 249.393 381.95C249.027 381.767 248.543 381.675 247.943 381.675C247.177 381.675 246.502 381.733 245.918 381.85C245.352 381.95 244.927 382.058 244.643 382.175L244.368 380.25C244.668 380.117 245.168 379.992 245.868 379.875C246.568 379.742 247.327 379.675 248.143 379.675ZM260.905 393.25C259.472 393.217 258.455 392.908 257.855 392.325C257.255 391.742 256.955 390.833 256.955 389.6V374L259.28 373.6V389.225C259.28 389.608 259.313 389.925 259.38 390.175C259.447 390.425 259.555 390.625 259.705 390.775C259.855 390.925 260.055 391.042 260.305 391.125C260.555 391.192 260.863 391.25 261.23 391.3L260.905 393.25ZM271.327 386.525C271.327 387.192 271.394 387.817 271.527 388.4C271.66 388.967 271.877 389.467 272.177 389.9C272.477 390.317 272.86 390.65 273.327 390.9C273.81 391.133 274.385 391.25 275.052 391.25C275.685 391.25 276.269 391.142 276.802 390.925C277.335 390.708 277.744 390.483 278.027 390.25V382.05C277.794 381.983 277.477 381.925 277.077 381.875C276.694 381.825 276.152 381.8 275.452 381.8C274.202 381.8 273.202 382.208 272.452 383.025C271.702 383.842 271.327 385.008 271.327 386.525ZM268.902 386.525C268.902 385.475 269.052 384.533 269.352 383.7C269.669 382.85 270.11 382.133 270.677 381.55C271.244 380.967 271.927 380.517 272.727 380.2C273.527 379.883 274.427 379.725 275.427 379.725C276.51 379.725 277.46 379.808 278.277 379.975C279.11 380.125 279.802 380.267 280.352 380.4V397.625H278.027V392.425C277.744 392.608 277.31 392.8 276.727 393C276.16 393.2 275.502 393.3 274.752 393.3C273.819 393.3 272.985 393.133 272.252 392.8C271.535 392.467 270.927 392 270.427 391.4C269.927 390.8 269.544 390.083 269.277 389.25C269.027 388.417 268.902 387.508 268.902 386.525ZM294.699 392.625C294.165 392.758 293.457 392.9 292.574 393.05C291.707 393.2 290.699 393.275 289.549 393.275C288.549 393.275 287.707 393.133 287.024 392.85C286.34 392.55 285.79 392.133 285.374 391.6C284.957 391.067 284.657 390.442 284.474 389.725C284.29 388.992 284.199 388.183 284.199 387.3V380H286.524V386.8C286.524 388.383 286.774 389.517 287.274 390.2C287.774 390.883 288.615 391.225 289.799 391.225C290.049 391.225 290.307 391.217 290.574 391.2C290.84 391.183 291.09 391.167 291.324 391.15C291.557 391.117 291.765 391.092 291.949 391.075C292.149 391.042 292.29 391.008 292.374 390.975V380H294.699V392.625ZM297.979 386.525C297.979 385.375 298.146 384.375 298.479 383.525C298.812 382.658 299.254 381.942 299.804 381.375C300.354 380.808 300.987 380.383 301.704 380.1C302.421 379.817 303.154 379.675 303.904 379.675C305.654 379.675 306.996 380.225 307.929 381.325C308.862 382.408 309.329 384.067 309.329 386.3C309.329 386.4 309.329 386.533 309.329 386.7C309.329 386.85 309.321 386.992 309.304 387.125H300.404C300.504 388.475 300.896 389.5 301.579 390.2C302.262 390.9 303.329 391.25 304.779 391.25C305.596 391.25 306.279 391.183 306.829 391.05C307.396 390.9 307.821 390.758 308.104 390.625L308.429 392.575C308.146 392.725 307.646 392.883 306.929 393.05C306.229 393.217 305.429 393.3 304.529 393.3C303.396 393.3 302.412 393.133 301.579 392.8C300.762 392.45 300.087 391.975 299.554 391.375C299.021 390.775 298.621 390.067 298.354 389.25C298.104 388.417 297.979 387.508 297.979 386.525ZM306.904 385.25C306.921 384.2 306.654 383.342 306.104 382.675C305.571 381.992 304.829 381.65 303.879 381.65C303.346 381.65 302.871 381.758 302.454 381.975C302.054 382.175 301.712 382.442 301.429 382.775C301.146 383.108 300.921 383.492 300.754 383.925C300.604 384.358 300.504 384.8 300.454 385.25H306.904ZM328.605 380C327.955 382.433 327.188 384.767 326.305 387C325.438 389.233 324.597 391.233 323.78 393H321.68C320.863 391.233 320.013 389.233 319.13 387C318.263 384.767 317.505 382.433 316.855 380H319.355C319.555 380.817 319.788 381.692 320.055 382.625C320.338 383.542 320.63 384.458 320.93 385.375C321.247 386.275 321.563 387.15 321.88 388C322.197 388.85 322.497 389.608 322.78 390.275C323.063 389.608 323.363 388.85 323.68 388C323.997 387.15 324.305 386.275 324.605 385.375C324.922 384.458 325.213 383.542 325.48 382.625C325.763 381.692 326.005 380.817 326.205 380H328.605ZM342.137 386.5C342.137 387.533 341.987 388.467 341.687 389.3C341.387 390.133 340.962 390.85 340.412 391.45C339.879 392.05 339.237 392.517 338.487 392.85C337.737 393.167 336.92 393.325 336.037 393.325C335.154 393.325 334.337 393.167 333.587 392.85C332.837 392.517 332.187 392.05 331.637 391.45C331.104 390.85 330.687 390.133 330.387 389.3C330.087 388.467 329.937 387.533 329.937 386.5C329.937 385.483 330.087 384.558 330.387 383.725C330.687 382.875 331.104 382.15 331.637 381.55C332.187 380.95 332.837 380.492 333.587 380.175C334.337 379.842 335.154 379.675 336.037 379.675C336.92 379.675 337.737 379.842 338.487 380.175C339.237 380.492 339.879 380.95 340.412 381.55C340.962 382.15 341.387 382.875 341.687 383.725C341.987 384.558 342.137 385.483 342.137 386.5ZM339.712 386.5C339.712 385.033 339.379 383.875 338.712 383.025C338.062 382.158 337.17 381.725 336.037 381.725C334.904 381.725 334.004 382.158 333.337 383.025C332.687 383.875 332.362 385.033 332.362 386.5C332.362 387.967 332.687 389.133 333.337 390C334.004 390.85 334.904 391.275 336.037 391.275C337.17 391.275 338.062 390.85 338.712 390C339.379 389.133 339.712 387.967 339.712 386.5ZM351.058 393.3C350.008 393.3 349.083 393.133 348.283 392.8C347.5 392.467 346.833 392 346.283 391.4C345.75 390.8 345.35 390.092 345.083 389.275C344.817 388.442 344.683 387.525 344.683 386.525C344.683 385.525 344.825 384.608 345.108 383.775C345.408 382.942 345.825 382.225 346.358 381.625C346.892 381.008 347.542 380.533 348.308 380.2C349.092 379.85 349.958 379.675 350.908 379.675C351.492 379.675 352.075 379.725 352.658 379.825C353.242 379.925 353.8 380.083 354.333 380.3L353.808 382.275C353.458 382.108 353.05 381.975 352.583 381.875C352.133 381.775 351.65 381.725 351.133 381.725C349.833 381.725 348.833 382.133 348.133 382.95C347.45 383.767 347.108 384.958 347.108 386.525C347.108 387.225 347.183 387.867 347.333 388.45C347.5 389.033 347.75 389.533 348.083 389.95C348.433 390.367 348.875 390.692 349.408 390.925C349.942 391.142 350.592 391.25 351.358 391.25C351.975 391.25 352.533 391.192 353.033 391.075C353.533 390.958 353.925 390.833 354.208 390.7L354.533 392.65C354.4 392.733 354.208 392.817 353.958 392.9C353.708 392.967 353.425 393.025 353.108 393.075C352.792 393.142 352.45 393.192 352.083 393.225C351.733 393.275 351.392 393.3 351.058 393.3ZM356.304 386.525C356.304 385.375 356.471 384.375 356.804 383.525C357.138 382.658 357.579 381.942 358.129 381.375C358.679 380.808 359.313 380.383 360.029 380.1C360.746 379.817 361.479 379.675 362.229 379.675C363.979 379.675 365.321 380.225 366.254 381.325C367.188 382.408 367.654 384.067 367.654 386.3C367.654 386.4 367.654 386.533 367.654 386.7C367.654 386.85 367.646 386.992 367.629 387.125H358.729C358.829 388.475 359.221 389.5 359.904 390.2C360.588 390.9 361.654 391.25 363.104 391.25C363.921 391.25 364.604 391.183 365.154 391.05C365.721 390.9 366.146 390.758 366.429 390.625L366.754 392.575C366.471 392.725 365.971 392.883 365.254 393.05C364.554 393.217 363.754 393.3 362.854 393.3C361.721 393.3 360.738 393.133 359.904 392.8C359.088 392.45 358.413 391.975 357.879 391.375C357.346 390.775 356.946 390.067 356.679 389.25C356.429 388.417 356.304 387.508 356.304 386.525ZM365.229 385.25C365.246 384.2 364.979 383.342 364.429 382.675C363.896 381.992 363.154 381.65 362.204 381.65C361.671 381.65 361.196 381.758 360.779 381.975C360.379 382.175 360.038 382.442 359.754 382.775C359.471 383.108 359.246 383.492 359.079 383.925C358.929 384.358 358.829 384.8 358.779 385.25H365.229ZM362.179 373.775L365.579 377.35L364.604 378.45L362.179 376.25L359.754 378.45L358.779 377.35L362.179 373.775ZM385.805 386.525C385.805 385.008 385.43 383.842 384.68 383.025C383.93 382.208 382.93 381.8 381.68 381.8C380.98 381.8 380.43 381.825 380.03 381.875C379.647 381.925 379.339 381.983 379.105 382.05V390.25C379.389 390.483 379.797 390.708 380.33 390.925C380.864 391.142 381.447 391.25 382.08 391.25C382.747 391.25 383.314 391.133 383.78 390.9C384.264 390.65 384.655 390.317 384.955 389.9C385.255 389.467 385.472 388.967 385.605 388.4C385.739 387.817 385.805 387.192 385.805 386.525ZM388.23 386.525C388.23 387.508 388.097 388.417 387.83 389.25C387.58 390.083 387.205 390.8 386.705 391.4C386.205 392 385.589 392.467 384.855 392.8C384.139 393.133 383.314 393.3 382.38 393.3C381.63 393.3 380.964 393.2 380.38 393C379.814 392.8 379.389 392.608 379.105 392.425V397.625H376.78V380.4C377.33 380.267 378.014 380.125 378.83 379.975C379.664 379.808 380.622 379.725 381.705 379.725C382.705 379.725 383.605 379.883 384.405 380.2C385.205 380.517 385.889 380.967 386.455 381.55C387.022 382.133 387.455 382.85 387.755 383.7C388.072 384.533 388.23 385.475 388.23 386.525ZM396.302 379.725C396.502 379.725 396.727 379.742 396.977 379.775C397.244 379.792 397.502 379.825 397.752 379.875C398.002 379.908 398.227 379.95 398.427 380C398.644 380.033 398.802 380.067 398.902 380.1L398.502 382.125C398.319 382.058 398.01 381.983 397.577 381.9C397.16 381.8 396.619 381.75 395.952 381.75C395.519 381.75 395.085 381.8 394.652 381.9C394.235 381.983 393.96 382.042 393.827 382.075V393H391.502V380.55C392.052 380.35 392.735 380.167 393.552 380C394.369 379.817 395.285 379.725 396.302 379.725ZM400.421 386.525C400.421 385.375 400.587 384.375 400.921 383.525C401.254 382.658 401.696 381.942 402.246 381.375C402.796 380.808 403.429 380.383 404.146 380.1C404.862 379.817 405.596 379.675 406.346 379.675C408.096 379.675 409.437 380.225 410.371 381.325C411.304 382.408 411.771 384.067 411.771 386.3C411.771 386.4 411.771 386.533 411.771 386.7C411.771 386.85 411.762 386.992 411.746 387.125H402.846C402.946 388.475 403.337 389.5 404.021 390.2C404.704 390.9 405.771 391.25 407.221 391.25C408.037 391.25 408.721 391.183 409.271 391.05C409.837 390.9 410.262 390.758 410.546 390.625L410.871 392.575C410.587 392.725 410.087 392.883 409.371 393.05C408.671 393.217 407.871 393.3 406.971 393.3C405.837 393.3 404.854 393.133 404.021 392.8C403.204 392.45 402.529 391.975 401.996 391.375C401.462 390.775 401.062 390.067 400.796 389.25C400.546 388.417 400.421 387.508 400.421 386.525ZM409.346 385.25C409.362 384.2 409.096 383.342 408.546 382.675C408.012 381.992 407.271 381.65 406.321 381.65C405.787 381.65 405.312 381.758 404.896 381.975C404.496 382.175 404.154 382.442 403.871 382.775C403.587 383.108 403.362 383.492 403.196 383.925C403.046 384.358 402.946 384.8 402.896 385.25H409.346ZM420.76 393.3C419.71 393.3 418.785 393.133 417.985 392.8C417.202 392.467 416.535 392 415.985 391.4C415.452 390.8 415.052 390.092 414.785 389.275C414.519 388.442 414.385 387.525 414.385 386.525C414.385 385.525 414.527 384.608 414.81 383.775C415.11 382.942 415.527 382.225 416.06 381.625C416.594 381.008 417.244 380.533 418.01 380.2C418.794 379.85 419.66 379.675 420.61 379.675C421.194 379.675 421.777 379.725 422.36 379.825C422.944 379.925 423.502 380.083 424.035 380.3L423.51 382.275C423.16 382.108 422.752 381.975 422.285 381.875C421.835 381.775 421.352 381.725 420.835 381.725C419.535 381.725 418.535 382.133 417.835 382.95C417.152 383.767 416.81 384.958 416.81 386.525C416.81 387.225 416.885 387.867 417.035 388.45C417.202 389.033 417.452 389.533 417.785 389.95C418.135 390.367 418.577 390.692 419.11 390.925C419.644 391.142 420.294 391.25 421.06 391.25C421.677 391.25 422.235 391.192 422.735 391.075C423.235 390.958 423.627 390.833 423.91 390.7L424.235 392.65C424.102 392.733 423.91 392.817 423.66 392.9C423.41 392.967 423.127 393.025 422.81 393.075C422.494 393.142 422.152 393.192 421.785 393.225C421.435 393.275 421.094 393.3 420.76 393.3ZM429.056 393H426.731V380H429.056V393ZM427.881 377.65C427.465 377.65 427.106 377.517 426.806 377.25C426.523 376.967 426.381 376.592 426.381 376.125C426.381 375.658 426.523 375.292 426.806 375.025C427.106 374.742 427.465 374.6 427.881 374.6C428.298 374.6 428.648 374.742 428.931 375.025C429.231 375.292 429.381 375.658 429.381 376.125C429.381 376.592 429.231 376.967 428.931 377.25C428.648 377.517 428.298 377.65 427.881 377.65ZM436.08 391.325C437.03 391.325 437.73 391.2 438.18 390.95C438.646 390.7 438.88 390.3 438.88 389.75C438.88 389.183 438.655 388.733 438.205 388.4C437.755 388.067 437.013 387.692 435.98 387.275C435.48 387.075 434.996 386.875 434.53 386.675C434.08 386.458 433.688 386.208 433.355 385.925C433.021 385.642 432.755 385.3 432.555 384.9C432.355 384.5 432.255 384.008 432.255 383.425C432.255 382.275 432.68 381.367 433.53 380.7C434.38 380.017 435.538 379.675 437.005 379.675C437.371 379.675 437.738 379.7 438.105 379.75C438.471 379.783 438.813 379.833 439.13 379.9C439.446 379.95 439.721 380.008 439.955 380.075C440.205 380.142 440.396 380.2 440.53 380.25L440.105 382.25C439.855 382.117 439.463 381.983 438.93 381.85C438.396 381.7 437.755 381.625 437.005 381.625C436.355 381.625 435.788 381.758 435.305 382.025C434.821 382.275 434.58 382.675 434.58 383.225C434.58 383.508 434.63 383.758 434.73 383.975C434.846 384.192 435.013 384.392 435.23 384.575C435.463 384.742 435.746 384.9 436.08 385.05C436.413 385.2 436.813 385.358 437.28 385.525C437.896 385.758 438.446 385.992 438.93 386.225C439.413 386.442 439.821 386.7 440.155 387C440.505 387.3 440.771 387.667 440.955 388.1C441.138 388.517 441.23 389.033 441.23 389.65C441.23 390.85 440.78 391.758 439.88 392.375C438.996 392.992 437.73 393.3 436.08 393.3C434.93 393.3 434.03 393.2 433.38 393C432.73 392.817 432.288 392.675 432.055 392.575L432.48 390.575C432.746 390.675 433.171 390.825 433.755 391.025C434.338 391.225 435.113 391.325 436.08 391.325ZM448.612 391.325C449.162 391.325 449.645 391.317 450.062 391.3C450.495 391.267 450.854 391.217 451.137 391.15V387.275C450.97 387.192 450.695 387.125 450.312 387.075C449.945 387.008 449.495 386.975 448.962 386.975C448.612 386.975 448.237 387 447.837 387.05C447.454 387.1 447.095 387.208 446.762 387.375C446.445 387.525 446.179 387.742 445.962 388.025C445.745 388.292 445.637 388.65 445.637 389.1C445.637 389.933 445.904 390.517 446.437 390.85C446.97 391.167 447.695 391.325 448.612 391.325ZM448.412 379.675C449.345 379.675 450.129 379.8 450.762 380.05C451.412 380.283 451.929 380.625 452.312 381.075C452.712 381.508 452.995 382.033 453.162 382.65C453.329 383.25 453.412 383.917 453.412 384.65V392.775C453.212 392.808 452.929 392.858 452.562 392.925C452.212 392.975 451.812 393.025 451.362 393.075C450.912 393.125 450.42 393.167 449.887 393.2C449.37 393.25 448.854 393.275 448.337 393.275C447.604 393.275 446.929 393.2 446.312 393.05C445.695 392.9 445.162 392.667 444.712 392.35C444.262 392.017 443.912 391.583 443.662 391.05C443.412 390.517 443.287 389.875 443.287 389.125C443.287 388.408 443.429 387.792 443.712 387.275C444.012 386.758 444.412 386.342 444.912 386.025C445.412 385.708 445.995 385.475 446.662 385.325C447.329 385.175 448.029 385.1 448.762 385.1C448.995 385.1 449.237 385.117 449.487 385.15C449.737 385.167 449.97 385.2 450.187 385.25C450.42 385.283 450.62 385.317 450.787 385.35C450.954 385.383 451.07 385.408 451.137 385.425V384.775C451.137 384.392 451.095 384.017 451.012 383.65C450.929 383.267 450.779 382.933 450.562 382.65C450.345 382.35 450.045 382.117 449.662 381.95C449.295 381.767 448.812 381.675 448.212 381.675C447.445 381.675 446.77 381.733 446.187 381.85C445.62 381.95 445.195 382.058 444.912 382.175L444.637 380.25C444.937 380.117 445.437 379.992 446.137 379.875C446.837 379.742 447.595 379.675 448.412 379.675ZM463.06 380.375C463.593 380.242 464.301 380.1 465.185 379.95C466.068 379.8 467.085 379.725 468.235 379.725C469.268 379.725 470.126 379.875 470.81 380.175C471.493 380.458 472.035 380.867 472.435 381.4C472.851 381.917 473.143 382.542 473.31 383.275C473.476 384.008 473.56 384.817 473.56 385.7V393H471.235V386.2C471.235 385.4 471.176 384.717 471.06 384.15C470.96 383.583 470.785 383.125 470.535 382.775C470.285 382.425 469.951 382.175 469.535 382.025C469.118 381.858 468.601 381.775 467.985 381.775C467.735 381.775 467.476 381.783 467.21 381.8C466.943 381.817 466.685 381.842 466.435 381.875C466.201 381.892 465.985 381.917 465.785 381.95C465.601 381.983 465.468 382.008 465.385 382.025V393H463.06V380.375ZM481.815 391.325C482.365 391.325 482.848 391.317 483.265 391.3C483.698 391.267 484.057 391.217 484.34 391.15V387.275C484.173 387.192 483.898 387.125 483.515 387.075C483.148 387.008 482.698 386.975 482.165 386.975C481.815 386.975 481.44 387 481.04 387.05C480.657 387.1 480.298 387.208 479.965 387.375C479.648 387.525 479.382 387.742 479.165 388.025C478.948 388.292 478.84 388.65 478.84 389.1C478.84 389.933 479.107 390.517 479.64 390.85C480.173 391.167 480.898 391.325 481.815 391.325ZM481.615 379.675C482.548 379.675 483.332 379.8 483.965 380.05C484.615 380.283 485.132 380.625 485.515 381.075C485.915 381.508 486.198 382.033 486.365 382.65C486.532 383.25 486.615 383.917 486.615 384.65V392.775C486.415 392.808 486.132 392.858 485.765 392.925C485.415 392.975 485.015 393.025 484.565 393.075C484.115 393.125 483.623 393.167 483.09 393.2C482.573 393.25 482.057 393.275 481.54 393.275C480.807 393.275 480.132 393.2 479.515 393.05C478.898 392.9 478.365 392.667 477.915 392.35C477.465 392.017 477.115 391.583 476.865 391.05C476.615 390.517 476.49 389.875 476.49 389.125C476.49 388.408 476.632 387.792 476.915 387.275C477.215 386.758 477.615 386.342 478.115 386.025C478.615 385.708 479.198 385.475 479.865 385.325C480.532 385.175 481.232 385.1 481.965 385.1C482.198 385.1 482.44 385.117 482.69 385.15C482.94 385.167 483.173 385.2 483.39 385.25C483.623 385.283 483.823 385.317 483.99 385.35C484.157 385.383 484.273 385.408 484.34 385.425V384.775C484.34 384.392 484.298 384.017 484.215 383.65C484.132 383.267 483.982 382.933 483.765 382.65C483.548 382.35 483.248 382.117 482.865 381.95C482.498 381.767 482.015 381.675 481.415 381.675C480.648 381.675 479.973 381.733 479.39 381.85C478.823 381.95 478.398 382.058 478.115 382.175L477.84 380.25C478.14 380.117 478.64 379.992 479.34 379.875C480.04 379.742 480.798 379.675 481.615 379.675ZM579.663 382.75C579.379 382.517 578.971 382.292 578.438 382.075C577.904 381.858 577.321 381.75 576.688 381.75C576.021 381.75 575.446 381.875 574.963 382.125C574.496 382.358 574.113 382.692 573.813 383.125C573.513 383.542 573.296 384.042 573.163 384.625C573.029 385.208 572.963 385.833 572.963 386.5C572.963 388.017 573.338 389.192 574.088 390.025C574.838 390.842 575.838 391.25 577.088 391.25C577.721 391.25 578.246 391.225 578.663 391.175C579.096 391.108 579.429 391.042 579.663 390.975V382.75ZM579.663 374L581.988 373.6V392.625C581.454 392.775 580.771 392.925 579.938 393.075C579.104 393.225 578.146 393.3 577.063 393.3C576.063 393.3 575.163 393.142 574.363 392.825C573.563 392.508 572.879 392.058 572.313 391.475C571.746 390.892 571.304 390.183 570.988 389.35C570.688 388.5 570.538 387.55 570.538 386.5C570.538 385.5 570.663 384.583 570.913 383.75C571.179 382.917 571.563 382.2 572.063 381.6C572.563 381 573.171 380.533 573.888 380.2C574.621 379.867 575.454 379.7 576.388 379.7C577.138 379.7 577.796 379.8 578.363 380C578.946 380.2 579.379 380.392 579.663 380.575V374ZM590.384 391.325C590.934 391.325 591.418 391.317 591.834 391.3C592.268 391.267 592.626 391.217 592.909 391.15V387.275C592.743 387.192 592.468 387.125 592.084 387.075C591.718 387.008 591.268 386.975 590.734 386.975C590.384 386.975 590.009 387 589.609 387.05C589.226 387.1 588.868 387.208 588.534 387.375C588.218 387.525 587.951 387.742 587.734 388.025C587.518 388.292 587.409 388.65 587.409 389.1C587.409 389.933 587.676 390.517 588.209 390.85C588.743 391.167 589.468 391.325 590.384 391.325ZM590.184 379.675C591.118 379.675 591.901 379.8 592.534 380.05C593.184 380.283 593.701 380.625 594.084 381.075C594.484 381.508 594.768 382.033 594.934 382.65C595.101 383.25 595.184 383.917 595.184 384.65V392.775C594.984 392.808 594.701 392.858 594.334 392.925C593.984 392.975 593.584 393.025 593.134 393.075C592.684 393.125 592.193 393.167 591.659 393.2C591.143 393.25 590.626 393.275 590.109 393.275C589.376 393.275 588.701 393.2 588.084 393.05C587.468 392.9 586.934 392.667 586.484 392.35C586.034 392.017 585.684 391.583 585.434 391.05C585.184 390.517 585.059 389.875 585.059 389.125C585.059 388.408 585.201 387.792 585.484 387.275C585.784 386.758 586.184 386.342 586.684 386.025C587.184 385.708 587.768 385.475 588.434 385.325C589.101 385.175 589.801 385.1 590.534 385.1C590.768 385.1 591.009 385.117 591.259 385.15C591.509 385.167 591.743 385.2 591.959 385.25C592.193 385.283 592.393 385.317 592.559 385.35C592.726 385.383 592.843 385.408 592.909 385.425V384.775C592.909 384.392 592.868 384.017 592.784 383.65C592.701 383.267 592.551 382.933 592.334 382.65C592.118 382.35 591.818 382.117 591.434 381.95C591.068 381.767 590.584 381.675 589.984 381.675C589.218 381.675 588.543 381.733 587.959 381.85C587.393 381.95 586.968 382.058 586.684 382.175L586.409 380.25C586.709 380.117 587.209 379.992 587.909 379.875C588.609 379.742 589.368 379.675 590.184 379.675ZM602.071 391.325C603.021 391.325 603.721 391.2 604.171 390.95C604.638 390.7 604.871 390.3 604.871 389.75C604.871 389.183 604.646 388.733 604.196 388.4C603.746 388.067 603.004 387.692 601.971 387.275C601.471 387.075 600.988 386.875 600.521 386.675C600.071 386.458 599.679 386.208 599.346 385.925C599.013 385.642 598.746 385.3 598.546 384.9C598.346 384.5 598.246 384.008 598.246 383.425C598.246 382.275 598.671 381.367 599.521 380.7C600.371 380.017 601.529 379.675 602.996 379.675C603.363 379.675 603.729 379.7 604.096 379.75C604.463 379.783 604.804 379.833 605.121 379.9C605.438 379.95 605.713 380.008 605.946 380.075C606.196 380.142 606.388 380.2 606.521 380.25L606.096 382.25C605.846 382.117 605.454 381.983 604.921 381.85C604.388 381.7 603.746 381.625 602.996 381.625C602.346 381.625 601.779 381.758 601.296 382.025C600.813 382.275 600.571 382.675 600.571 383.225C600.571 383.508 600.621 383.758 600.721 383.975C600.838 384.192 601.004 384.392 601.221 384.575C601.454 384.742 601.738 384.9 602.071 385.05C602.404 385.2 602.804 385.358 603.271 385.525C603.888 385.758 604.438 385.992 604.921 386.225C605.404 386.442 605.813 386.7 606.146 387C606.496 387.3 606.763 387.667 606.946 388.1C607.129 388.517 607.221 389.033 607.221 389.65C607.221 390.85 606.771 391.758 605.871 392.375C604.988 392.992 603.721 393.3 602.071 393.3C600.921 393.3 600.021 393.2 599.371 393C598.721 392.817 598.279 392.675 598.046 392.575L598.471 390.575C598.738 390.675 599.163 390.825 599.746 391.025C600.329 391.225 601.104 391.325 602.071 391.325ZM619.014 391.325C619.964 391.325 620.664 391.2 621.114 390.95C621.581 390.7 621.814 390.3 621.814 389.75C621.814 389.183 621.589 388.733 621.139 388.4C620.689 388.067 619.948 387.692 618.914 387.275C618.414 387.075 617.931 386.875 617.464 386.675C617.014 386.458 616.623 386.208 616.289 385.925C615.956 385.642 615.689 385.3 615.489 384.9C615.289 384.5 615.189 384.008 615.189 383.425C615.189 382.275 615.614 381.367 616.464 380.7C617.314 380.017 618.473 379.675 619.939 379.675C620.306 379.675 620.673 379.7 621.039 379.75C621.406 379.783 621.748 379.833 622.064 379.9C622.381 379.95 622.656 380.008 622.889 380.075C623.139 380.142 623.331 380.2 623.464 380.25L623.039 382.25C622.789 382.117 622.398 381.983 621.864 381.85C621.331 381.7 620.689 381.625 619.939 381.625C619.289 381.625 618.723 381.758 618.239 382.025C617.756 382.275 617.514 382.675 617.514 383.225C617.514 383.508 617.564 383.758 617.664 383.975C617.781 384.192 617.948 384.392 618.164 384.575C618.398 384.742 618.681 384.9 619.014 385.05C619.348 385.2 619.748 385.358 620.214 385.525C620.831 385.758 621.381 385.992 621.864 386.225C622.348 386.442 622.756 386.7 623.089 387C623.439 387.3 623.706 387.667 623.889 388.1C624.073 388.517 624.164 389.033 624.164 389.65C624.164 390.85 623.714 391.758 622.814 392.375C621.931 392.992 620.664 393.3 619.014 393.3C617.864 393.3 616.964 393.2 616.314 393C615.664 392.817 615.223 392.675 614.989 392.575L615.414 390.575C615.681 390.675 616.106 390.825 616.689 391.025C617.273 391.225 618.048 391.325 619.014 391.325ZM637.496 392.625C636.963 392.758 636.255 392.9 635.371 393.05C634.505 393.2 633.496 393.275 632.346 393.275C631.346 393.275 630.505 393.133 629.821 392.85C629.138 392.55 628.588 392.133 628.171 391.6C627.755 391.067 627.455 390.442 627.271 389.725C627.088 388.992 626.996 388.183 626.996 387.3V380H629.321V386.8C629.321 388.383 629.571 389.517 630.071 390.2C630.571 390.883 631.413 391.225 632.596 391.225C632.846 391.225 633.105 391.217 633.371 391.2C633.638 391.183 633.888 391.167 634.121 391.15C634.355 391.117 634.563 391.092 634.746 391.075C634.946 391.042 635.088 391.008 635.171 390.975V380H637.496V392.625ZM645.902 391.325C646.452 391.325 646.935 391.317 647.352 391.3C647.785 391.267 648.144 391.217 648.427 391.15V387.275C648.26 387.192 647.985 387.125 647.602 387.075C647.235 387.008 646.785 386.975 646.252 386.975C645.902 386.975 645.527 387 645.127 387.05C644.744 387.1 644.385 387.208 644.052 387.375C643.735 387.525 643.469 387.742 643.252 388.025C643.035 388.292 642.927 388.65 642.927 389.1C642.927 389.933 643.194 390.517 643.727 390.85C644.26 391.167 644.985 391.325 645.902 391.325ZM645.702 379.675C646.635 379.675 647.419 379.8 648.052 380.05C648.702 380.283 649.219 380.625 649.602 381.075C650.002 381.508 650.285 382.033 650.452 382.65C650.619 383.25 650.702 383.917 650.702 384.65V392.775C650.502 392.808 650.219 392.858 649.852 392.925C649.502 392.975 649.102 393.025 648.652 393.075C648.202 393.125 647.71 393.167 647.177 393.2C646.66 393.25 646.144 393.275 645.627 393.275C644.894 393.275 644.219 393.2 643.602 393.05C642.985 392.9 642.452 392.667 642.002 392.35C641.552 392.017 641.202 391.583 640.952 391.05C640.702 390.517 640.577 389.875 640.577 389.125C640.577 388.408 640.719 387.792 641.002 387.275C641.302 386.758 641.702 386.342 642.202 386.025C642.702 385.708 643.285 385.475 643.952 385.325C644.619 385.175 645.319 385.1 646.052 385.1C646.285 385.1 646.527 385.117 646.777 385.15C647.027 385.167 647.26 385.2 647.477 385.25C647.71 385.283 647.91 385.317 648.077 385.35C648.244 385.383 648.36 385.408 648.427 385.425V384.775C648.427 384.392 648.385 384.017 648.302 383.65C648.219 383.267 648.069 382.933 647.852 382.65C647.635 382.35 647.335 382.117 646.952 381.95C646.585 381.767 646.102 381.675 645.502 381.675C644.735 381.675 644.06 381.733 643.477 381.85C642.91 381.95 642.485 382.058 642.202 382.175L641.927 380.25C642.227 380.117 642.727 379.992 643.427 379.875C644.127 379.742 644.885 379.675 645.702 379.675ZM657.588 391.325C658.538 391.325 659.238 391.2 659.688 390.95C660.155 390.7 660.388 390.3 660.388 389.75C660.388 389.183 660.163 388.733 659.713 388.4C659.263 388.067 658.522 387.692 657.488 387.275C656.988 387.075 656.505 386.875 656.038 386.675C655.588 386.458 655.197 386.208 654.863 385.925C654.53 385.642 654.263 385.3 654.063 384.9C653.863 384.5 653.763 384.008 653.763 383.425C653.763 382.275 654.188 381.367 655.038 380.7C655.888 380.017 657.047 379.675 658.513 379.675C658.88 379.675 659.247 379.7 659.613 379.75C659.98 379.783 660.322 379.833 660.638 379.9C660.955 379.95 661.23 380.008 661.463 380.075C661.713 380.142 661.905 380.2 662.038 380.25L661.613 382.25C661.363 382.117 660.972 381.983 660.438 381.85C659.905 381.7 659.263 381.625 658.513 381.625C657.863 381.625 657.297 381.758 656.813 382.025C656.33 382.275 656.088 382.675 656.088 383.225C656.088 383.508 656.138 383.758 656.238 383.975C656.355 384.192 656.522 384.392 656.738 384.575C656.972 384.742 657.255 384.9 657.588 385.05C657.922 385.2 658.322 385.358 658.788 385.525C659.405 385.758 659.955 385.992 660.438 386.225C660.922 386.442 661.33 386.7 661.663 387C662.013 387.3 662.28 387.667 662.463 388.1C662.647 388.517 662.738 389.033 662.738 389.65C662.738 390.85 662.288 391.758 661.388 392.375C660.505 392.992 659.238 393.3 657.588 393.3C656.438 393.3 655.538 393.2 654.888 393C654.238 392.817 653.797 392.675 653.563 392.575L653.988 390.575C654.255 390.675 654.68 390.825 655.263 391.025C655.847 391.225 656.622 391.325 657.588 391.325ZM671.507 380.375C672.04 380.242 672.74 380.1 673.607 379.95C674.49 379.8 675.507 379.725 676.657 379.725C677.49 379.725 678.19 379.842 678.757 380.075C679.324 380.292 679.799 380.617 680.182 381.05C680.299 380.967 680.482 380.85 680.732 380.7C680.982 380.55 681.29 380.408 681.657 380.275C682.024 380.125 682.432 380 682.882 379.9C683.332 379.783 683.815 379.725 684.332 379.725C685.332 379.725 686.149 379.875 686.782 380.175C687.415 380.458 687.907 380.867 688.257 381.4C688.624 381.933 688.865 382.567 688.982 383.3C689.115 384.033 689.182 384.833 689.182 385.7V393H686.857V386.2C686.857 385.433 686.815 384.775 686.732 384.225C686.665 383.675 686.524 383.217 686.307 382.85C686.107 382.483 685.824 382.217 685.457 382.05C685.107 381.867 684.649 381.775 684.082 381.775C683.299 381.775 682.649 381.883 682.132 382.1C681.632 382.3 681.29 382.483 681.107 382.65C681.24 383.083 681.34 383.558 681.407 384.075C681.474 384.592 681.507 385.133 681.507 385.7V393H679.182V386.2C679.182 385.433 679.14 384.775 679.057 384.225C678.974 383.675 678.824 383.217 678.607 382.85C678.407 382.483 678.124 382.217 677.757 382.05C677.407 381.867 676.957 381.775 676.407 381.775C676.174 381.775 675.924 381.783 675.657 381.8C675.39 381.817 675.132 381.842 674.882 381.875C674.649 381.892 674.432 381.917 674.232 381.95C674.032 381.983 673.899 382.008 673.832 382.025V393H671.507V380.375ZM697.44 391.325C697.99 391.325 698.473 391.317 698.89 391.3C699.323 391.267 699.682 391.217 699.965 391.15V387.275C699.798 387.192 699.523 387.125 699.14 387.075C698.773 387.008 698.323 386.975 697.79 386.975C697.44 386.975 697.065 387 696.665 387.05C696.282 387.1 695.923 387.208 695.59 387.375C695.273 387.525 695.007 387.742 694.79 388.025C694.573 388.292 694.465 388.65 694.465 389.1C694.465 389.933 694.732 390.517 695.265 390.85C695.798 391.167 696.523 391.325 697.44 391.325ZM697.24 379.675C698.173 379.675 698.957 379.8 699.59 380.05C700.24 380.283 700.757 380.625 701.14 381.075C701.54 381.508 701.823 382.033 701.99 382.65C702.157 383.25 702.24 383.917 702.24 384.65V392.775C702.04 392.808 701.757 392.858 701.39 392.925C701.04 392.975 700.64 393.025 700.19 393.075C699.74 393.125 699.248 393.167 698.715 393.2C698.198 393.25 697.682 393.275 697.165 393.275C696.432 393.275 695.757 393.2 695.14 393.05C694.523 392.9 693.99 392.667 693.54 392.35C693.09 392.017 692.74 391.583 692.49 391.05C692.24 390.517 692.115 389.875 692.115 389.125C692.115 388.408 692.257 387.792 692.54 387.275C692.84 386.758 693.24 386.342 693.74 386.025C694.24 385.708 694.823 385.475 695.49 385.325C696.157 385.175 696.857 385.1 697.59 385.1C697.823 385.1 698.065 385.117 698.315 385.15C698.565 385.167 698.798 385.2 699.015 385.25C699.248 385.283 699.448 385.317 699.615 385.35C699.782 385.383 699.898 385.408 699.965 385.425V384.775C699.965 384.392 699.923 384.017 699.84 383.65C699.757 383.267 699.607 382.933 699.39 382.65C699.173 382.35 698.873 382.117 698.49 381.95C698.123 381.767 697.64 381.675 697.04 381.675C696.273 381.675 695.598 381.733 695.015 381.85C694.448 381.95 694.023 382.058 693.74 382.175L693.465 380.25C693.765 380.117 694.265 379.992 694.965 379.875C695.665 379.742 696.423 379.675 697.24 379.675ZM701.74 375.225C701.657 375.425 701.54 375.658 701.39 375.925C701.257 376.192 701.082 376.442 700.865 376.675C700.648 376.892 700.39 377.083 700.09 377.25C699.807 377.4 699.49 377.475 699.14 377.475C698.807 377.475 698.49 377.417 698.19 377.3C697.907 377.183 697.632 377.058 697.365 376.925C697.082 376.792 696.84 376.692 696.64 376.625C696.44 376.558 696.248 376.525 696.065 376.525C695.782 376.525 695.515 376.642 695.265 376.875C695.032 377.108 694.848 377.358 694.715 377.625L693.515 377.025C693.582 376.825 693.69 376.592 693.84 376.325C693.99 376.058 694.173 375.817 694.39 375.6C694.607 375.367 694.857 375.175 695.14 375.025C695.44 374.858 695.765 374.775 696.115 374.775C696.448 374.775 696.757 374.833 697.04 374.95C697.34 375.067 697.623 375.192 697.89 375.325C698.173 375.458 698.415 375.558 698.615 375.625C698.815 375.692 699.007 375.725 699.19 375.725C699.473 375.725 699.732 375.608 699.965 375.375C700.215 375.142 700.407 374.892 700.54 374.625L701.74 375.225ZM717.577 386.5C717.577 387.533 717.427 388.467 717.127 389.3C716.827 390.133 716.402 390.85 715.852 391.45C715.318 392.05 714.677 392.517 713.927 392.85C713.177 393.167 712.36 393.325 711.477 393.325C710.593 393.325 709.777 393.167 709.027 392.85C708.277 392.517 707.627 392.05 707.077 391.45C706.543 390.85 706.127 390.133 705.827 389.3C705.527 388.467 705.377 387.533 705.377 386.5C705.377 385.483 705.527 384.558 705.827 383.725C706.127 382.875 706.543 382.15 707.077 381.55C707.627 380.95 708.277 380.492 709.027 380.175C709.777 379.842 710.593 379.675 711.477 379.675C712.36 379.675 713.177 379.842 713.927 380.175C714.677 380.492 715.318 380.95 715.852 381.55C716.402 382.15 716.827 382.875 717.127 383.725C717.427 384.558 717.577 385.483 717.577 386.5ZM715.152 386.5C715.152 385.033 714.818 383.875 714.152 383.025C713.502 382.158 712.61 381.725 711.477 381.725C710.343 381.725 709.443 382.158 708.777 383.025C708.127 383.875 707.802 385.033 707.802 386.5C707.802 387.967 708.127 389.133 708.777 390C709.443 390.85 710.343 391.275 711.477 391.275C712.61 391.275 713.502 390.85 714.152 390C714.818 389.133 715.152 387.967 715.152 386.5ZM723.873 391.325C724.823 391.325 725.523 391.2 725.973 390.95C726.439 390.7 726.673 390.3 726.673 389.75C726.673 389.183 726.448 388.733 725.998 388.4C725.548 388.067 724.806 387.692 723.773 387.275C723.273 387.075 722.789 386.875 722.323 386.675C721.873 386.458 721.481 386.208 721.148 385.925C720.814 385.642 720.548 385.3 720.348 384.9C720.148 384.5 720.048 384.008 720.048 383.425C720.048 382.275 720.473 381.367 721.323 380.7C722.173 380.017 723.331 379.675 724.798 379.675C725.164 379.675 725.531 379.7 725.898 379.75C726.264 379.783 726.606 379.833 726.923 379.9C727.239 379.95 727.514 380.008 727.748 380.075C727.998 380.142 728.189 380.2 728.323 380.25L727.898 382.25C727.648 382.117 727.256 381.983 726.723 381.85C726.189 381.7 725.548 381.625 724.798 381.625C724.148 381.625 723.581 381.758 723.098 382.025C722.614 382.275 722.373 382.675 722.373 383.225C722.373 383.508 722.423 383.758 722.523 383.975C722.639 384.192 722.806 384.392 723.023 384.575C723.256 384.742 723.539 384.9 723.873 385.05C724.206 385.2 724.606 385.358 725.073 385.525C725.689 385.758 726.239 385.992 726.723 386.225C727.206 386.442 727.614 386.7 727.948 387C728.298 387.3 728.564 387.667 728.748 388.1C728.931 388.517 729.023 389.033 729.023 389.65C729.023 390.85 728.573 391.758 727.673 392.375C726.789 392.992 725.523 393.3 723.873 393.3C722.723 393.3 721.823 393.2 721.173 393C720.523 392.817 720.081 392.675 719.848 392.575L720.273 390.575C720.539 390.675 720.964 390.825 721.548 391.025C722.131 391.225 722.906 391.325 723.873 391.325ZM734.755 391.65C734.755 392.1 734.605 392.492 734.305 392.825C734.005 393.158 733.597 393.325 733.08 393.325C732.563 393.325 732.155 393.158 731.855 392.825C731.555 392.492 731.405 392.1 731.405 391.65C731.405 391.2 731.555 390.808 731.855 390.475C732.155 390.142 732.563 389.975 733.08 389.975C733.597 389.975 734.005 390.142 734.305 390.475C734.605 390.808 734.755 391.2 734.755 391.65Z" fill="#444053"/>
<path d="M505.288 386.525C505.288 385.008 504.913 383.842 504.163 383.025C503.413 382.208 502.413 381.8 501.163 381.8C500.463 381.8 499.913 381.825 499.513 381.875C499.129 381.925 498.821 381.983 498.588 382.05V390.25C498.871 390.483 499.279 390.708 499.813 390.925C500.346 391.142 500.929 391.25 501.563 391.25C502.229 391.25 502.796 391.133 503.263 390.9C503.746 390.65 504.138 390.317 504.438 389.9C504.738 389.467 504.954 388.967 505.088 388.4C505.221 387.817 505.288 387.192 505.288 386.525ZM507.713 386.525C507.713 387.508 507.579 388.417 507.313 389.25C507.063 390.083 506.688 390.8 506.188 391.4C505.688 392 505.071 392.467 504.338 392.8C503.621 393.133 502.796 393.3 501.863 393.3C501.113 393.3 500.446 393.2 499.863 393C499.296 392.8 498.871 392.608 498.588 392.425V397.625H496.263V380.4C496.813 380.267 497.496 380.125 498.313 379.975C499.146 379.808 500.104 379.725 501.188 379.725C502.188 379.725 503.088 379.883 503.888 380.2C504.688 380.517 505.371 380.967 505.938 381.55C506.504 382.133 506.938 382.85 507.238 383.7C507.554 384.533 507.713 385.475 507.713 386.525ZM515.384 391.325C515.934 391.325 516.418 391.317 516.834 391.3C517.268 391.267 517.626 391.217 517.909 391.15V387.275C517.743 387.192 517.468 387.125 517.084 387.075C516.718 387.008 516.268 386.975 515.734 386.975C515.384 386.975 515.009 387 514.609 387.05C514.226 387.1 513.868 387.208 513.534 387.375C513.218 387.525 512.951 387.742 512.734 388.025C512.518 388.292 512.409 388.65 512.409 389.1C512.409 389.933 512.676 390.517 513.209 390.85C513.743 391.167 514.468 391.325 515.384 391.325ZM515.184 379.675C516.118 379.675 516.901 379.8 517.534 380.05C518.184 380.283 518.701 380.625 519.084 381.075C519.484 381.508 519.768 382.033 519.934 382.65C520.101 383.25 520.184 383.917 520.184 384.65V392.775C519.984 392.808 519.701 392.858 519.334 392.925C518.984 392.975 518.584 393.025 518.134 393.075C517.684 393.125 517.193 393.167 516.659 393.2C516.143 393.25 515.626 393.275 515.109 393.275C514.376 393.275 513.701 393.2 513.084 393.05C512.468 392.9 511.934 392.667 511.484 392.35C511.034 392.017 510.684 391.583 510.434 391.05C510.184 390.517 510.059 389.875 510.059 389.125C510.059 388.408 510.201 387.792 510.484 387.275C510.784 386.758 511.184 386.342 511.684 386.025C512.184 385.708 512.768 385.475 513.434 385.325C514.101 385.175 514.801 385.1 515.534 385.1C515.768 385.1 516.009 385.117 516.259 385.15C516.509 385.167 516.743 385.2 516.959 385.25C517.193 385.283 517.393 385.317 517.559 385.35C517.726 385.383 517.843 385.408 517.909 385.425V384.775C517.909 384.392 517.868 384.017 517.784 383.65C517.701 383.267 517.551 382.933 517.334 382.65C517.118 382.35 516.818 382.117 516.434 381.95C516.068 381.767 515.584 381.675 514.984 381.675C514.218 381.675 513.543 381.733 512.959 381.85C512.393 381.95 511.968 382.058 511.684 382.175L511.409 380.25C511.709 380.117 512.209 379.992 512.909 379.875C513.609 379.742 514.368 379.675 515.184 379.675ZM527.946 393.25C526.513 393.217 525.496 392.908 524.896 392.325C524.296 391.742 523.996 390.833 523.996 389.6V374L526.321 373.6V389.225C526.321 389.608 526.354 389.925 526.421 390.175C526.488 390.425 526.596 390.625 526.746 390.775C526.896 390.925 527.096 391.042 527.346 391.125C527.596 391.192 527.904 391.25 528.271 391.3L527.946 393.25ZM530.882 380.375C531.415 380.242 532.115 380.1 532.982 379.95C533.865 379.8 534.882 379.725 536.032 379.725C536.865 379.725 537.565 379.842 538.132 380.075C538.699 380.292 539.174 380.617 539.557 381.05C539.674 380.967 539.857 380.85 540.107 380.7C540.357 380.55 540.665 380.408 541.032 380.275C541.399 380.125 541.807 380 542.257 379.9C542.707 379.783 543.19 379.725 543.707 379.725C544.707 379.725 545.524 379.875 546.157 380.175C546.79 380.458 547.282 380.867 547.632 381.4C547.999 381.933 548.24 382.567 548.357 383.3C548.49 384.033 548.557 384.833 548.557 385.7V393H546.232V386.2C546.232 385.433 546.19 384.775 546.107 384.225C546.04 383.675 545.899 383.217 545.682 382.85C545.482 382.483 545.199 382.217 544.832 382.05C544.482 381.867 544.024 381.775 543.457 381.775C542.674 381.775 542.024 381.883 541.507 382.1C541.007 382.3 540.665 382.483 540.482 382.65C540.615 383.083 540.715 383.558 540.782 384.075C540.849 384.592 540.882 385.133 540.882 385.7V393H538.557V386.2C538.557 385.433 538.515 384.775 538.432 384.225C538.349 383.675 538.199 383.217 537.982 382.85C537.782 382.483 537.499 382.217 537.132 382.05C536.782 381.867 536.332 381.775 535.782 381.775C535.549 381.775 535.299 381.783 535.032 381.8C534.765 381.817 534.507 381.842 534.257 381.875C534.024 381.892 533.807 381.917 533.607 381.95C533.407 381.983 533.274 382.008 533.207 382.025V393H530.882V380.375ZM556.815 391.325C557.365 391.325 557.848 391.317 558.265 391.3C558.698 391.267 559.057 391.217 559.34 391.15V387.275C559.173 387.192 558.898 387.125 558.515 387.075C558.148 387.008 557.698 386.975 557.165 386.975C556.815 386.975 556.44 387 556.04 387.05C555.657 387.1 555.298 387.208 554.965 387.375C554.648 387.525 554.382 387.742 554.165 388.025C553.948 388.292 553.84 388.65 553.84 389.1C553.84 389.933 554.107 390.517 554.64 390.85C555.173 391.167 555.898 391.325 556.815 391.325ZM556.615 379.675C557.548 379.675 558.332 379.8 558.965 380.05C559.615 380.283 560.132 380.625 560.515 381.075C560.915 381.508 561.198 382.033 561.365 382.65C561.532 383.25 561.615 383.917 561.615 384.65V392.775C561.415 392.808 561.132 392.858 560.765 392.925C560.415 392.975 560.015 393.025 559.565 393.075C559.115 393.125 558.623 393.167 558.09 393.2C557.573 393.25 557.057 393.275 556.54 393.275C555.807 393.275 555.132 393.2 554.515 393.05C553.898 392.9 553.365 392.667 552.915 392.35C552.465 392.017 552.115 391.583 551.865 391.05C551.615 390.517 551.49 389.875 551.49 389.125C551.49 388.408 551.632 387.792 551.915 387.275C552.215 386.758 552.615 386.342 553.115 386.025C553.615 385.708 554.198 385.475 554.865 385.325C555.532 385.175 556.232 385.1 556.965 385.1C557.198 385.1 557.44 385.117 557.69 385.15C557.94 385.167 558.173 385.2 558.39 385.25C558.623 385.283 558.823 385.317 558.99 385.35C559.157 385.383 559.273 385.408 559.34 385.425V384.775C559.34 384.392 559.298 384.017 559.215 383.65C559.132 383.267 558.982 382.933 558.765 382.65C558.548 382.35 558.248 382.117 557.865 381.95C557.498 381.767 557.015 381.675 556.415 381.675C555.648 381.675 554.973 381.733 554.39 381.85C553.823 381.95 553.398 382.058 553.115 382.175L552.84 380.25C553.14 380.117 553.64 379.992 554.34 379.875C555.04 379.742 555.798 379.675 556.615 379.675Z" fill="#D75413"/>
<defs>
<clipPath id="clip0">
<rect width="393" height="324" fill="white" transform="translate(186)"/>
</clipPath>
</defs>
</svg>
