<svg width="126" height="24" viewBox="0 0 126 24" fill="none" xmlns="http://www.w3.org/2000/svg">
<path d="M34.92 19.28C32.6667 19.28 30.9467 18.6533 29.76 17.4C28.5867 16.1467 28 14.3667 28 12.06C28 10.9133 28.18 9.89333 28.54 9C28.9 8.09333 29.3933 7.33333 30.02 6.72C30.6467 6.09333 31.3933 5.62 32.26 5.3C33.1267 4.98 34.0667 4.82 35.08 4.82C35.6667 4.82 36.2 4.86667 36.68 4.96C37.16 5.04 37.58 5.14 37.94 5.26C38.3 5.36667 38.6 5.48 38.84 5.6C39.08 5.72 39.2533 5.81333 39.36 5.88L38.46 8.4C38.0333 8.17333 37.5333 7.98 36.96 7.82C36.4 7.66 35.76 7.58 35.04 7.58C34.56 7.58 34.0867 7.66 33.62 7.82C33.1667 7.98 32.76 8.24 32.4 8.6C32.0533 8.94667 31.7733 9.4 31.56 9.96C31.3467 10.52 31.24 11.2 31.24 12C31.24 12.64 31.3067 13.24 31.44 13.8C31.5867 14.3467 31.8133 14.82 32.12 15.22C32.44 15.62 32.8533 15.94 33.36 16.18C33.8667 16.4067 34.48 16.52 35.2 16.52C35.6533 16.52 36.06 16.4933 36.42 16.44C36.78 16.3867 37.1 16.3267 37.38 16.26C37.66 16.18 37.9067 16.0933 38.12 16C38.3333 15.9067 38.5267 15.82 38.7 15.74L39.56 18.24C39.12 18.5067 38.5 18.7467 37.7 18.96C36.9 19.1733 35.9733 19.28 34.92 19.28ZM50.8288 16.32V19H41.5688V5.14H44.6888V16.32H50.8288ZM52.8383 5.14H55.9583V19H52.8383V5.14ZM68.4664 19C67.5731 17.4133 66.6064 15.8467 65.5664 14.3C64.5264 12.7533 63.4197 11.2933 62.2464 9.92V19H59.1664V5.14H61.7064C62.1464 5.58 62.6331 6.12 63.1664 6.76C63.6997 7.4 64.2397 8.08667 64.7864 8.82C65.3464 9.54 65.8997 10.2933 66.4464 11.08C66.9931 11.8533 67.5064 12.6 67.9864 13.32V5.14H71.0864V19H68.4664ZM88.3883 6.62C88.5483 7.16667 88.7216 7.78667 88.9083 8.48C89.1083 9.16 89.3149 9.86667 89.5283 10.6C89.7549 11.3333 89.9816 12.0667 90.2083 12.8C90.4349 13.5333 90.6549 14.2133 90.8683 14.84C91.0416 14.16 91.2149 13.42 91.3883 12.62C91.5749 11.82 91.7483 10.9933 91.9083 10.14C92.0683 9.28667 92.2216 8.44 92.3683 7.6C92.5283 6.74667 92.6749 5.92667 92.8083 5.14H96.0483C95.5816 7.46 95.0416 9.81333 94.4283 12.2C93.8283 14.5867 93.1749 16.8533 92.4683 19H89.6083C89.1416 17.72 88.6883 16.38 88.2483 14.98C87.8083 13.5667 87.3749 12.1533 86.9483 10.74C86.5216 12.1533 86.0949 13.5667 85.6683 14.98C85.2416 16.38 84.7949 17.72 84.3283 19H81.4683C80.7616 16.8533 80.1016 14.5867 79.4883 12.2C78.8883 9.81333 78.3549 7.46 77.8883 5.14H81.2683C81.4016 5.92667 81.5483 6.74667 81.7083 7.6C81.8683 8.44 82.0349 9.28667 82.2083 10.14C82.3816 10.9933 82.5549 11.82 82.7283 12.62C82.9149 13.42 83.1016 14.16 83.2883 14.84C83.5283 14.1867 83.7616 13.4933 83.9883 12.76C84.2149 12.0267 84.4349 11.2933 84.6483 10.56C84.8616 9.82667 85.0549 9.12 85.2283 8.44C85.4149 7.76 85.5816 7.15333 85.7283 6.62H88.3883ZM98.0531 19V5.14H107.413V7.76H101.173V10.48H106.713V13.04H101.173V16.38H107.873V19H98.0531ZM114.802 19.18C114.042 19.18 113.282 19.1533 112.522 19.1C111.775 19.06 110.995 18.9533 110.182 18.78V5.34C110.822 5.22 111.522 5.13333 112.282 5.08C113.042 5.01333 113.749 4.98 114.402 4.98C115.282 4.98 116.089 5.04667 116.822 5.18C117.569 5.3 118.209 5.51333 118.742 5.82C119.275 6.12667 119.689 6.53333 119.982 7.04C120.289 7.53333 120.442 8.14667 120.442 8.88C120.442 9.98667 119.909 10.86 118.842 11.5C119.722 11.8333 120.322 12.2867 120.642 12.86C120.962 13.4333 121.122 14.08 121.122 14.8C121.122 16.2533 120.589 17.3467 119.522 18.08C118.469 18.8133 116.895 19.18 114.802 19.18ZM113.222 12.96V16.54C113.449 16.5667 113.695 16.5867 113.962 16.6C114.229 16.6133 114.522 16.62 114.842 16.62C115.775 16.62 116.529 16.4867 117.102 16.22C117.675 15.9533 117.962 15.46 117.962 14.74C117.962 14.1 117.722 13.6467 117.242 13.38C116.762 13.1 116.075 12.96 115.182 12.96H113.222ZM113.222 10.58H114.742C115.702 10.58 116.389 10.46 116.802 10.22C117.215 9.96667 117.422 9.56667 117.422 9.02C117.422 8.46 117.209 8.06667 116.782 7.84C116.355 7.61333 115.729 7.5 114.902 7.5C114.635 7.5 114.349 7.50667 114.042 7.52C113.735 7.52 113.462 7.53333 113.222 7.56V10.58Z" fill="white"/>
<path fill-rule="evenodd" clip-rule="evenodd" d="M9.91712 1.16669C14.4093 1.16669 18.06 4.12569 18.06 7.76669C18.06 12.7167 9.91712 19.8667 9.91712 19.8667C9.91712 19.8667 1.77427 12.7167 1.77427 7.76669C1.77427 4.12569 5.42498 1.16669 9.91712 1.16669ZM19.417 20.9667H0.416992V23.1667H19.417V20.9667ZM4.48882 7.7667C4.48882 5.3357 6.9181 3.3667 9.91739 3.3667C12.9167 3.3667 15.346 5.3357 15.346 7.7667C15.346 10.1097 12.5231 13.7727 9.91739 16.4677C7.31167 13.7837 4.48882 10.1097 4.48882 7.7667ZM7.20337 7.76671C7.20337 6.55671 8.4248 5.56671 9.91765 5.56671C11.4105 5.56671 12.6319 6.55671 12.6319 7.76671C12.6319 8.97671 11.4241 9.96671 9.91765 9.96671C8.4248 9.96671 7.20337 8.97671 7.20337 7.76671Z" fill="white" fill-opacity="0.9"/>
</svg>
