<svg width="205" height="50" viewBox="0 0 205 50" fill="none" xmlns="http://www.w3.org/2000/svg">
<path d="M66.88 34.42C63.5 34.42 60.92 33.48 59.14 31.6C57.38 29.72 56.5 27.05 56.5 23.59C56.5 21.87 56.77 20.34 57.31 19C57.85 17.64 58.59 16.5 59.53 15.58C60.47 14.64 61.59 13.93 62.89 13.45C64.19 12.97 65.6 12.73 67.12 12.73C68 12.73 68.8 12.8 69.52 12.94C70.24 13.06 70.87 13.21 71.41 13.39C71.95 13.55 72.4 13.72 72.76 13.9C73.12 14.08 73.38 14.22 73.54 14.32L72.19 18.1C71.55 17.76 70.8 17.47 69.94 17.23C69.1 16.99 68.14 16.87 67.06 16.87C66.34 16.87 65.63 16.99 64.93 17.23C64.25 17.47 63.64 17.86 63.1 18.4C62.58 18.92 62.16 19.6 61.84 20.44C61.52 21.28 61.36 22.3 61.36 23.5C61.36 24.46 61.46 25.36 61.66 26.2C61.88 27.02 62.22 27.73 62.68 28.33C63.16 28.93 63.78 29.41 64.54 29.77C65.3 30.11 66.22 30.28 67.3 30.28C67.98 30.28 68.59 30.24 69.13 30.16C69.67 30.08 70.15 29.99 70.57 29.89C70.99 29.77 71.36 29.64 71.68 29.5C72 29.36 72.29 29.23 72.55 29.11L73.84 32.86C73.18 33.26 72.25 33.62 71.05 33.94C69.85 34.26 68.46 34.42 66.88 34.42ZM90.7431 29.98V34H76.8531V13.21H81.5331V29.98H90.7431ZM93.7574 13.21H98.4374V34H93.7574V13.21ZM117.2 34C115.86 31.62 114.41 29.27 112.85 26.95C111.29 24.63 109.63 22.44 107.87 20.38V34H103.25V13.21H107.06C107.72 13.87 108.45 14.68 109.25 15.64C110.05 16.6 110.86 17.63 111.68 18.73C112.52 19.81 113.35 20.94 114.17 22.12C114.99 23.28 115.76 24.4 116.48 25.48V13.21H121.13V34H117.2ZM147.082 15.43C147.322 16.25 147.582 17.18 147.862 18.22C148.162 19.24 148.472 20.3 148.792 21.4C149.132 22.5 149.472 23.6 149.812 24.7C150.152 25.8 150.482 26.82 150.802 27.76C151.062 26.74 151.322 25.63 151.582 24.43C151.862 23.23 152.122 21.99 152.362 20.71C152.602 19.43 152.832 18.16 153.052 16.9C153.292 15.62 153.512 14.39 153.712 13.21H158.572C157.872 16.69 157.062 20.22 156.142 23.8C155.242 27.38 154.262 30.78 153.202 34H148.912C148.212 32.08 147.532 30.07 146.872 27.97C146.212 25.85 145.562 23.73 144.922 21.61C144.282 23.73 143.642 25.85 143.002 27.97C142.362 30.07 141.692 32.08 140.992 34H136.702C135.642 30.78 134.652 27.38 133.732 23.8C132.832 20.22 132.032 16.69 131.332 13.21H136.402C136.602 14.39 136.822 15.62 137.062 16.9C137.302 18.16 137.552 19.43 137.812 20.71C138.072 21.99 138.332 23.23 138.592 24.43C138.872 25.63 139.152 26.74 139.432 27.76C139.792 26.78 140.142 25.74 140.482 24.64C140.822 23.54 141.152 22.44 141.472 21.34C141.792 20.24 142.082 19.18 142.342 18.16C142.622 17.14 142.872 16.23 143.092 15.43H147.082ZM161.58 34V13.21H175.62V17.14H166.26V21.22H174.57V25.06H166.26V30.07H176.31V34H161.58ZM186.703 34.27C185.563 34.27 184.423 34.23 183.283 34.15C182.163 34.09 180.993 33.93 179.773 33.67V13.51C180.733 13.33 181.783 13.2 182.923 13.12C184.063 13.02 185.123 12.97 186.103 12.97C187.423 12.97 188.633 13.07 189.733 13.27C190.853 13.45 191.813 13.77 192.613 14.23C193.413 14.69 194.033 15.3 194.473 16.06C194.933 16.8 195.163 17.72 195.163 18.82C195.163 20.48 194.363 21.79 192.763 22.75C194.083 23.25 194.983 23.93 195.463 24.79C195.943 25.65 196.183 26.62 196.183 27.7C196.183 29.88 195.383 31.52 193.783 32.62C192.203 33.72 189.843 34.27 186.703 34.27ZM184.333 24.94V30.31C184.673 30.35 185.043 30.38 185.443 30.4C185.843 30.42 186.283 30.43 186.763 30.43C188.163 30.43 189.293 30.23 190.153 29.83C191.013 29.43 191.443 28.69 191.443 27.61C191.443 26.65 191.083 25.97 190.363 25.57C189.643 25.15 188.613 24.94 187.273 24.94H184.333ZM184.333 21.37H186.613C188.053 21.37 189.083 21.19 189.703 20.83C190.323 20.45 190.633 19.85 190.633 19.03C190.633 18.19 190.313 17.6 189.673 17.26C189.033 16.92 188.093 16.75 186.853 16.75C186.453 16.75 186.023 16.76 185.563 16.78C185.103 16.78 184.693 16.8 184.333 16.84V21.37Z" fill="white"/>
<path fill-rule="evenodd" clip-rule="evenodd" d="M25.0003 4.16675C31.8961 4.16675 37.5003 9.77092 37.5003 16.6667C37.5003 26.0417 25.0003 39.5834 25.0003 39.5834C25.0003 39.5834 12.5003 26.0417 12.5003 16.6667C12.5003 9.77092 18.1044 4.16675 25.0003 4.16675ZM39.5837 41.6667H10.417V45.8334H39.5837V41.6667ZM16.667 16.6668C16.667 12.0626 20.3962 8.33344 25.0003 8.33344C29.6045 8.33344 33.3337 12.0626 33.3337 16.6668C33.3337 21.1043 29.0003 28.0418 25.0003 33.1459C21.0003 28.0626 16.667 21.1043 16.667 16.6668ZM20.8337 16.6667C20.8337 14.3751 22.7087 12.5001 25.0004 12.5001C27.292 12.5001 29.167 14.3751 29.167 16.6667C29.167 18.9584 27.3129 20.8334 25.0004 20.8334C22.7087 20.8334 20.8337 18.9584 20.8337 16.6667Z" fill="white" fill-opacity="0.9"/>
</svg>
